<?xml version="1.0" encoding="utf-8"?>
<!-- Generator: Adobe Illustrator 19.2.1, SVG Export Plug-In . SVG Version: 6.00 Build 0)  -->
<svg version="1.1" id="text" xmlns="http://www.w3.org/2000/svg" xmlns:xlink="http://www.w3.org/1999/xlink" x="0px" y="0px"
	 viewBox="0 0 1207.4 337.9" style="enable-background:new 0 0 1207.4 337.9;" xml:space="preserve">
<style type="text/css">
	.st0 {
		fill:rgba(255, 255, 255, 0);
		stroke:#41121F;
		stroke-width: 7px;
		opacity: 0;
		}

	#m, #a, #i, #n, #p, #a2, #g, #e {
		stroke-dasharray: 2000;
		stroke-dashoffset: 0;
		animation: dash 3s linear forwards;
	}

	#a {
	 animation-delay: 0.5s;
	}
	#i {
	 animation-delay: 1s;
	}
	#n {
	 animation-delay: 1.5s;
	}
	#p {
	 animation-delay: 2s;
	}
	#a2 {
	 animation-delay: 2.5s;
	}
	#g {
	 animation-delay: 3s;
	}
	#e {
	 animation-delay: 3.5s;
	}

	@keyframes dash {
			0% {
				stroke-dashoffset: 2000;
			}
			50% {
				opacity: 1;
				stroke-dashoffset: 0;
				fill:rgba(255, 255, 255, 0);
			}
			100% {
			opacity: 1;
			stroke: rbga(66, 17, 31, 1);
			fill: rgba(0, 0, 0, 0);
			}
	}
</style>
<g>
	<path id="m" class="st0" d="M103.7,274.5c-0.3,0.6-1.6,0.6-1.6,1.9c0.6-0.3,1-1.3,1.6-1c0.3,1.3,0.3,1.6-0.3,3.6c-0.3,0.3-0.6,0-0.6-0.3
		c-0.6-1-1.3-1.3-2.3-1.6c-1-0.3-1.9-1-2.6-2.3c-0.3-0.6-1.3-1-1.3-2.3c-0.6,0.3-1.3,0-1.6-0.6c-0.6,1.3-1.6,2.3-3.2,1.9
		c-1.3,0-2.3-0.6-2.9-1.9c-0.3-1.3-1-2.3-1-3.6c0-0.6-0.3-1-0.6-1.3c0.3-1,1-1,1.6-1c-0.3,1,0.3,1.6,0.6,2.6c0.3,0,0.3,0.3,0.6,0.3
		c0.3,0.6-0.6,0.6-0.3,1.3c0.3,0,0.6,0,1.3,0.3c0-0.6,0.3-1.3,0.3-1.6c0.3-0.6,0.6-0.6,1-1.3c-0.3-0.6-1,0.3-1.6-0.3
		c-1-1,0-2.9-1.6-3.9c1-0.3,1.9-0.3,1.9-1.6c0.3-0.3,0.6-0.3,1-0.6c0.6,0.3,0.6,0.6,1.3,0.6c1-1,0-1.3-0.3-1.6c-1,0-1.9,0-2.6-0.3
		c-0.3-0.3-0.3-0.6-0.6-1.3c-0.6-0.3-1,0-1.3,0c-0.3,0.6,0,1-0.3,1.3c-0.3,0-0.6-0.3-1-0.3c0-1.6-1.3-3.6,0.3-4.8
		c0.3-0.6-0.3-0.6-0.6-1c-0.3-5.5-0.6-10.7-0.6-16.2c0-1.3,0-2.6-0.3-3.9c0-1.6,0.3-3.2,0.3-4.8c0-3.6,0-6.8,0-10.3
		c0-2.6,0.3-5.2,0.6-7.8c0-1-0.6-1.6-1-2.6c0-0.3,0-0.6,0.3-0.6c0-0.3,0-0.3-0.3-0.3c-0.6-0.6-0.6-1.3-0.6-2.3c0-1.3,0-2.9,0.6-4.2
		c1-1.6,0.6-3.2,1-4.8c0.3-4.2,1-8.7,1.3-12.9c0.3-2.6,0.6-5.5,1-8.4s0-5.8,0.6-8.7c0.3-0.6,0.3-1.3,0.3-1.9c0-3.9,0.3-8.1,0.3-12.3
		c-0.3-1.3,0-2.6-0.3-3.9c0-0.3,0-0.6,0.3-1c0.3-1.3,0.3-2.3,0-3.6c-0.3-1.6,0-3.2,0-4.8c-0.3-4.8-0.3-9.7-0.6-14.2
		c-0.3-1.9,0-3.6,0-5.5c-0.3-4.2-0.6-8.4-1-12.9c-0.3-2.6-1-5.5-1.6-8.1c-1-4.5-2.3-9-3.6-13.6c-1.3-3.2-2.3-6.1-3.9-9
		c-1.3-3.2-2.9-6.1-4.8-8.7c-1.3,0.6-2.3,1.3-3.6,0.6c0,0.3,0,0.6-0.3,0.6c-1.6,0.6-2.9,2.3-4.5,3.2c-0.6,0.3-1.3,1-1.9,1.6
		c-2.6,1.9-4.5,3.9-5.8,7.1c-0.6,1-1.6,1.6-2.3,2.6c-0.6,1.3-1.9,2.3-2.9,3.6C53,87.2,52,88.2,51,89.5s-1.9,2.9-3.6,3.9
		c-1.3,2.9-2.3,5.8-3.6,8.4c-0.6,1.3-0.6,2.6-1.9,3.2c0,1.3-0.6,1.9-1,2.9c-1,1.6-1.6,3.6-2.3,5.2c-1,1.6-1.6,2.9-2.3,4.2
		c-0.6,0.6-0.6,1.3-0.6,2.3c0,3.6,0.6,7.1,0.6,10.7c0,1-0.3,1.6,0.3,2.6c0,0.3,0,0.6,0,1c-0.6,5.2,0.3,10,0.3,15.2
		c0,1-0.3,1.9,0,2.9c-0.3,0.6-0.3,1-0.6,1.6c0.6,1.6,0.6,3.2,0.6,4.8c0,2.3-0.3,4.5,0,6.8c0,1,0,1.6,0,2.3c-0.3,1.3-0.6,2.3,0,3.2
		c0,0.6,0,1.3,0,2.3c-0.6,1.3-0.3,2.9,0,4.5c0,2.9,0.3,5.8,0.3,8.7c-0.3,1.3,0.3,2.6-0.3,3.6c0.3,1,0.6,2.3,0,3.2
		c-0.3,0.6,0,1.6-0.3,2.3c0,1.6,0,2.9-0.3,4.2c-0.6,2.3-0.6,4.5-1,6.8c0,1-0.6,1.9,0,2.9c-0.3,0.6-0.3,1-0.6,1c-0.3,1.3,0,2.6,0,3.6
		c0.3,1.6,0,3.2-0.3,4.8c-0.3,1.6-0.6,3.6-0.3,5.5c-0.3,1.3-0.6,2.6-0.6,3.6c0,1.6,0,3.2-0.6,4.5c-0.3,1,0,1.9,0,2.9
		c0.3,1.6,0.3,3.2,0,4.8c0,1.3-0.3,2.9-0.3,4.2c-0.3,1.6,0,2.9,0,4.2c0,0.6,0,1.3-0.3,1.6c-1,1.6-1,3.2-1,4.8c0,0.6,0,1.3-0.3,1.9
		c-0.3,0.6-0.6,1.3-0.3,1.9c0.3,1.3-0.6,2.6-0.6,4.2c0,1.9,0,3.9-0.3,5.5c-0.3,1.9-0.3,4.2-2.3,5.8c-0.3,0.3-0.6,1-0.6,1.6
		c-1.6,0-3.2,0-4.8,1.3c-0.3-0.6-0.3-1.3-0.3-1.6c-1.3,0-1,1.9-2.3,1.9c0,0.6,1,0.3,1,1.3c-1.6,0-2.9-1-4.5-1c0-0.6,0-1.3-1-1.3
		c0.6-0.6,0.6-1,0.3-1.6c-0.6-0.3-1.3-0.6-1.9-1.3c-0.6,0.3-0.3,0.6-0.6,1c-0.6,0-0.6-0.3-1-0.6c-0.3,0.6-0.6,1.3-1,1.9
		c-3.9,0.6-5.5,0-6.5-2.6c0.3-0.3,0.6,0.3,1,0c0.6,0,1-1,1-1.6c-0.6-0.6-0.6-0.6-1.9-0.3c-0.6-1,0.6-1.9,0.3-2.9
		c0.6-0.3,1-0.6,1.3-0.3c0,0.3-0.6,0.6-0.6,1c0.3,1.3,1.3,1.9,1.9,2.9c0.6,0.3,1.3-1,1.9-0.6c0.3-0.6,0.6-1.6,1-1.9
		c0.3-0.6-0.6-1.3,0-1.9c-0.3-0.3-0.6-0.6-1-0.6c-0.6,0.6,0,1-0.6,1.6c-1,0-1.9-0.6-2.9-1.3c-0.3-0.6,0-1.3,0-2.3
		c-1,0.3-1.3,1-1.3,1.9c-0.6-1.3-0.6-1.9,0.3-3.2c0.3-0.3,0.6,0.3,1,0c0.3-0.6,0.3-0.6,1.3-0.6c0.3-0.6,0.3-1,0.3-1.6
		c-0.6-1-1.6,0-2.3-0.3c0,0.6,0.3,1.3-1,1.3c0-0.6,0-1.3,0-1.9s1-0.6,1.3-1.3c0,0,0.3,0.3,0.6,0.3c-0.3-0.6,1.3-0.6,1.3-1.9
		c-1.3,0-1.6,1-1.9,1.6c-0.6-0.3-1,0.3-1.3,0c-0.3-1-0.3-2.3,0-3.6c0.3-1,0.3-1.6,0-2.6c0-0.6,0-1.3,0-1.9c0-0.3,0.6-0.3,1-1
		c0,0,0-0.3,0-1c-0.3,0-0.6,0.6-1,0.3c0.3-1.6-0.6-3.2,0.6-4.5c0-0.3,0-0.6,0-0.6c0.3-0.6,0.6-1.3,0.6-1.6c0-0.6-0.3-0.3-0.6-0.6
		c0-2.9,0.3-5.5,0.3-7.8c0.3-3.6,0-6.8,0.6-9.7c0.3-1.9,0-3.9,0.3-5.8c0.3-1.9,0.3-3.9,0.3-5.8c0.3-1.6,0.3-1.6,1.3-2.9
		c0-0.6-0.6,0-1,0c0-2.6,0.3-4.8,0.6-7.1c0.3,0,0.6,0.3,1,0v-0.3c-1.3-1.3-1-3.2-1-4.8c0-2.3,0.3-4.5,0.3-6.8c0-3.2-0.3-6.8-0.3-10
		c0-1.3,0-2.3,0-2.9c0-0.6,0-1.3,0.3-1.6c-0.3-3.2-0.6-6.8-0.3-10c0.3-0.3,1-0.3,1.3-0.3c0-0.3-0.3-0.6-1.3-1.3
		c-0.3-4.2-1-8.7,0-13.6c-0.3-1.3-0.3-2.9-0.3-4.8c0-3.9,0-7.8,0-12c0-6.1,0.6-12.6,0.3-18.7c0-1.9,0.3-3.9,0-5.8
		c0-3.9,0-7.8-0.3-11.3c0-2.9,0-5.8,0-8.7c0.3-1.6,0.3-3.6,0.3-5.2c0-3.6,0.6-7.4,0.6-11c0.3-2.9,1-5.8,1-8.7c0-2.3,0.6-4.2,0.3-6.5
		c0-0.6,0.3-1.6,1-1.9c-0.6-1.3-0.3-2.6,0-3.9c0-1.9,0.3-3.6,0.6-5.5c0.3-0.3,1,0.3,1.3,0c0-1-1.6-1-0.6-2.3c1.9,0,4.5-0.3,7.1,0.6
		c1-1.3,2.6-1,4.5-0.3c0.6,0.3,1.9-0.3,2.9,0c2.6,1.3,4.5,2.6,5.2,5.8c0,1.9,0.3,3.9,0.6,5.8c0.3,0.6,0,1,0,1.3
		c0.6,1.6,1.3,3.6,1,5.2c-0.3,1.9,0.3,3.6,0.6,5.2c0,0.6,0.3,1.3,1.3,1.3c1,0,1.6-1,2.6-1.6c3.6-3.6,7.8-6.5,12.3-8.7
		c2.6-1.3,5.5-2.3,8.1-3.2c2.6-0.6,4.8-1,7.1-1c2.3-0.3,4.5-0.6,6.8-1.3c1.9-0.3,4.2-0.3,6.1-0.3c1.3,0,2.6,0,3.9,0
		c1,0.3,2.3,0.6,3.6,1c1.3,0.3,2.9,0,4.5,1.3c0,0-0.6,0.6,0,1c0.3,0.3,0.6-0.6,1-0.3c2.3,0.3,3.6,1.9,4.8,3.6c1,1,1.6,1.9,2.6,2.9
		c1,0.6,1.6,1.6,1.3,2.9c2.6,1,3.2,3.6,4.5,5.5c1.6,2.3,2.9,4.5,4.2,7.1c0.3,0.3,0.6,0.6,1,1c0.3,0.6,0,1.3,1,1.6
		c0.6,0.3,1,0,1.3-0.6c1.6-2.6,2.9-4.8,4.2-7.4c2.3-3.2,4.5-6.5,7.4-9.4c2.9-2.9,6.1-4.8,9.7-6.8c3.9-1.9,7.8-2.6,11.6-3.6
		c3.9-0.6,7.8-1,11.6-1.3c1.6,0,2.9-0.3,4.2,0.6c0,0,0.3-0.3,0.6-0.3c0.3-0.3-0.6-0.6-0.3-1h0.3c2.6,0,5.2,0,7.8,0
		c1.3,0,2.6,0.6,3.9,0.6c1.3,0.3,2.6,0.6,3.9,1.3c2.3,1,4.2,2.3,6.5,3.6c2.3,1.3,4.5,3.2,6.5,5.2c1.9,2.3,3.9,4.5,5.2,7.4
		c0.3,0.3,0.6,1,1,1.6c0.6,1,1.3,1.6,1.3,2.9c0.3,1,0.6,1.9,1,2.6c1,1.9,0.3,3.6,1,5.8c0.6,1.3,1,2.9,1.3,4.8
		c0.6,1.9,0.6,4.2,0.6,6.5c0,0,0,0,0,0.3c1,2.3,1,4.8,1.3,7.1c0.3,2.3,1,4.5,1.3,6.8c0,1,0.3,2.3,0.6,3.6c0.3,0.3,0.3,0.6,0.3,1
		c0.6,3.2,1.6,6.1,1.9,9.7c0,0.3,0,1,0,1.6c0.3,0.6,0.6,1.3,0.6,1.9c0,1.3,0.3,2.3,0.6,3.6c1,2.9,0.3,5.8,1,8.7
		c0,0.6,0.3,1.3,0.3,1.6c0,0.6-0.6,0.6-0.6,1.3c0.6,1.3,1.3,2.6,0.6,3.9c-0.3,0.3-1,0-1.3,0.6c0.3,0.6,1,0,1.6,0.3
		c0.3,2.6,0.6,5.2,0.3,7.8c0,0.3,0,0.6,0,1.3c0.3,2.9,0,5.8,0.6,9c-0.6,0.6-0.6,1.6-0.3,2.9c0.6,2.3,0.3,4.8,0.3,7.1
		c0,1,0.3,1.6,0.3,2.6c0,3.2,0.6,6.5,0.3,9.7c-0.3,0.6-0.6,0-1,0c-0.3,0.3-0.3,0.6-0.3,1c0.3,0.3,1,0,1.3,0.3c0,1,0.6,1.9,0.3,2.6
		c0,1-0.6,1.3-0.3,2.3c0,0,0,0.3,0.3,1c-0.3,1.9,0.3,3.9-0.3,6.1c0,1.3-0.6,2.6-0.6,4.2c0,1.9,0,3.6,0,5.5c0,1.6,0,3.2-0.3,5.2
		c0,0.6,0,1.3,0,1.9c0.3,2.9,0,5.8,0.3,8.4c0.3,1.6,0,2.9,0,4.5c-1,0.6-1,1.6-0.6,2.6c0,1-0.3,1.6,0,2.6c0.3,3.6-0.3,7.1,0,11
		c0.3,1.6,0.6,3.2,1,4.8c-0.3,0.6-1,1-1.3,1.3c-0.3,1-0.6,1.9-0.6,2.9c-2.6,0.3-4.5,1.3-6.1,3.2c-3.2,0.6-6.1,2.6-8.7,4.8
		c0.3,1,1.3,0.6,1.3,1.6h-0.3c-3.9,0.3-7.1-1-9.7-4.2c-2.3-3.2-3.9-6.8-5.2-10.7c-0.3-0.3-0.3-0.6-0.6-1.3c0.3-0.6,0.6-1,1-1.6
		c0-0.6-0.6-0.6-1-1.3c-0.3-1.9,0.3-3.9,0.3-6.1c1.9-1,1-2.9,1.3-3.9c-0.3-1-1-0.6-1-0.6c-0.3-1,0.6-1,0.6-1.3c0-0.6-0.6-0.6-0.6-1
		s0.3-0.6,0.3-1c0-0.3-0.3-0.6-0.3-1c0.3-1.3,0-2.6,0.6-3.9c-0.3-0.3-0.6-0.6-0.6-1.3c0.3-2.3,0.3-4.8,0.6-7.4c0-1.3,0-2.6,0-4.2
		c0.3-0.6,0.3-1,0.6-1.3c-0.3-2.9,0.3-5.5,0-8.1c0.3-0.6,0.6-1,1-1.6c0-0.3-0.6-0.3-0.6-0.6c0-7.8,0.3-15.2,0.3-22.6
		c0.3,0,0.3,0,0.3,0c-0.6-1.3-0.3-2.9-0.3-4.2c0-4.5,0-9.4-0.3-14.2c0-2.9,0.3-5.8,0-9c-0.3-1.9-0.3-3.9,0-5.8c0-1-0.3-1.6-0.3-2.3
		c-0.3-4.8-0.6-9.7-0.6-14.9c0-2.6-0.3-5.5-0.6-8.1c0-2.6,0-4.8-0.3-7.1c-1-4.5-1.3-9-2.3-13.2c-0.6-4.8-1.6-9.4-2.3-14.2
		c-0.6-3.9-1.6-7.4-1.9-11.3c0-0.3,0.3,0.3,0.6,0c-0.3-0.6-1-0.6-1.3-1c-1-3.2-2.3-6.5-4.2-9c-0.6-1-1.6-1.6-2.9-2.3
		c-0.3-0.6-1.3-0.6-1.9-0.6c-3.9,0-7.4,0.6-11.3,1c-1,1.3-2.6,1.6-3.9,2.3c-1.6,0.6-2.9,1.9-4.5,2.6c-0.6,0-1.3,0.6-1.9,1.3
		c-0.3,0.6-0.6,1.3-1.3,1.3c-0.6,0.3-1,0.3-1,1c-0.6,1.3-1.6,1.9-2.3,2.6c-1.3,3.2-2.9,5.8-3.9,8.7c-1.3,2.6-4.2,4.5-5.2,7.1
		c-1.6,1.9-2.6,4.2-3.6,7.1c-0.3,1.3-0.6,3.6-1.3,5.5c0,0.6-0.3,1.6,0.3,2.3c-1,1.3-0.6,2.6-0.6,3.9c0,2.3-0.3,4.5-1,6.5
		c0,0.6-0.3,1.3-0.6,1.3c-1,9.4-1,18.4-1.3,27.8c-0.3,0.6-0.6,1-1,1.9c0.3,1,0.6,2.3,0.3,3.6c-0.3,1-0.3,2.3,0,3.2
		c0,0.6,0,1.3-0.3,1.9c-0.6,1-0.3,2.3-0.3,3.2c-0.3,1.9-0.6,3.6-1,5.2c-0.3,2.3-1,4.5,0,6.5c0,0.6-0.6,1-0.6,1.3c0,1.3,0,2.6,0,3.9
		c0.3,1.3,0,2.6-0.3,3.9c1,2.6,0,5.5,0,8.4c-0.3,2.9-0.3,5.8-1,8.7c0,0.6,0,1.6,0.3,1.9c-1,2.9-0.3,6.1-1.6,8.7
		c0.3,1.3,0.6,1.9,1,2.9c-1,1.9-1,3.2,0.6,4.2c-0.3,0.6-1,0.3-1.3,1c0,0.6,0,1.6,0,2.3c0.3,1.6,0,3.2,0.3,4.8c0.3,2.9,0,5.8,0.3,8.7
		c0.3,1.9,0,3.9,0,5.8c0,0,0,0.3,0,0.6c0.6,2.9,0.3,5.8,0.6,8.7c0.3,3.9,0.6,7.8,0.3,11.6c-0.3,1.9-0.3,3.9,0,5.8
		c0,1-0.6,1.9-0.6,2.9c-0.3,3.2,0,6.5,0,9.7c0,0.6,0,1.3-0.3,1.6c-1.3-0.3-1-1.9-2.3-1.9c-0.6,0-1,0.6-1.6,1c-1,0.3-1.9,0-2.9,0
		c-1.3-1.9-2.9-2.9-4.8-1.9c0-1.3-0.6-1.6-1.6-2.3c-1,0.3-1.9-0.6-2.9,0c0.3,1,1,1.6,1.6,2.3c1,0.3,1.9,0.3,2.9,0
		C103.4,273.9,104,273.9,103.7,274.5z M11,83c0-0.3,0.3-0.6,0.3-1.3c-0.3-0.3-0.3-0.6-1-0.3C10,82,10.3,82.7,10,83
		C10.3,83.3,10.7,83.3,11,83z M11.6,72.4c1-0.6,0-1.9,0.6-2.9c-1.6,0.3-1.3,1.6-1.9,2.3C10.7,72.4,11,72.7,11.6,72.4z M14.9,270.7
		c0,0.3,0.3,1,1,1c0.3-0.3,0.6-0.3,0.6-1c-0.6-0.3-1-0.6-1-1.3C14.5,269.7,14.5,270.4,14.9,270.7z M17.8,94.6c0.3-0.3,0.3-0.6,0.3-1
		C17.8,93,17.4,93,16.8,93c-0.3,0.3-0.3,1-0.3,1.3C16.8,95,17.1,95,17.8,94.6z M21.3,261.6c0-0.3-0.3-0.3-0.6-0.6
		c-0.3,0.3-1,0.3-1.3,0.6c0.3,0.3,0.3,0.3,0.3,0.6s0,0.3,0.3,0.6c0.3,0,0.6,0,1,0c-0.3,0.6-0.3,1.3,0,1.6c1,1.9,2.6,3.9,2.6,6.1
		c0.3,0.6,0.6,0.3,1,0.6c-1,0.3-0.3,1-0.6,1.6c0.3,0,0.6,0,1.3,0c0-0.6,0.6-1,1-1.6c-0.3-0.6-1-1-0.6-1.6c0.3-0.3,0.6,0.3,1.3,0
		c0-0.6,1-0.3,1.3-0.6c-0.3-1.3-0.6-2.3-1.6-2.9c-1,0.3-1.3-0.3-1.6-1c-0.3,0.6-1,0.6-1.3,0.3c0-1.9-1.6-1.9-2.9-2.6
		C21,262.6,21.3,262,21.3,261.6z M91.7,260.7c-0.6,0.6-1.3,1-1.6,1.9c-0.3,0-0.6,0.3-1.3,0.3c0,1-0.6,1.6-1,2.6
		c-0.6-2.3-0.6-2.3-0.3-4.2c0.6,0.3,0.6-0.6,1.3-0.6c0.6,0.3,0,0.6,0.3,1c1,0.3,1-0.6,1.3-1.3C90.8,260.3,91.1,260.7,91.7,260.7z
		 M100.1,119.5c-1-0.6-1.6,0-2.3,0.3c0,0.3-0.3,0.6,0,0.6c0.3,0.3,0.6,0.3,1,0.3C99.5,120.5,99.8,120.2,100.1,119.5z M105.9,201.9
		c0.6-1,1-1.9,0.3-2.9c-1,0.6,0,1.6-0.6,2.6c-0.3-0.3-1,0.6-1.6,0c0-0.6,0-1.6-1-2.3c-0.3,1.3,0.3,2.3,0.6,3.2
		C104.7,202.8,105.3,202.5,105.9,201.9z M110.5,274.9c0.3,0,0.3-0.3,0.6-0.6c-0.3-0.3-0.3-1-1-1c-0.6-0.3-1.3,0.6-2.3,0.6
		C108.9,274.5,109.5,274.9,110.5,274.9z M136,70.1c0-1-0.6-1.3-1.6-1.6c-0.6,0.3-1.3,1-1.6,1.6c0.6,0.6,0.3,1.3,0.3,1.9
		c1-0.6,0.3-1.3,0.3-1.6c0.3-0.6,0.6-1.3,1.3-1.3C135.3,69.1,135,70.4,136,70.1z M163.1,53.3c0.6,0,1.6,1,2.3-0.6
		c-0.6-1-1.6-0.3-2.6-0.6C162.5,52.3,162.8,52.6,163.1,53.3z M181.8,242.2c-0.3,0.3-1,0.3-1,1c1,0.3,1.9,1.3,2.3,2.3
		c0.6,0,1-0.3,1.6-0.6c-0.3-0.6-0.6-1.3-1.3-1.9c0-0.3,0.6-0.3,0.3-1c0-0.6-0.6-0.6-0.6-1.3s-0.3-1.3-0.6-1.6
		c-0.3-0.3-0.6-0.3-1.3-0.6c0,1-1,1.3-1.3,1.6c0,0.6,0.3,1.3,0,1.6c0.3,0,0.3,0,0.3-0.3c0.3,0,0.3-0.3,0.3-0.3
		C181.5,241,181.5,241.9,181.8,242.2z M183.1,229.7c-0.6-0.6-0.6-0.6-1.6-0.3c-0.3,1.3-1,2.6-1,3.9c0.3,0.3,0.3,0.6,0.6,1
		c0.3,0.3,1-0.3,1,0.3c0,0.3,0,0.6-0.3,0.6c-0.3,0-0.3-0.6-1,0c0.6,0.3,0.6,1,1.3,1.3c0.3,0,0.6,0,1,0c0-0.6,0.3-1.3,0.3-1.6
		c0-1.3-1.9-0.6-1.6-2.3c1,0.3,1-1,1.6-1.3c-0.3-1.3-0.6,0-1.3-0.3C181.8,230,182.8,230,183.1,229.7z M180.9,228.4
		c0.6,0.3,1.3,0.3,1.6-0.6c0-0.3,0-0.6-0.3-0.6C181.5,227.1,180.9,227.4,180.9,228.4z M181.5,218.7c0.6,0.6,1,1,1.3,1.6
		c1-1.3,0.6-2.3,0.3-3.6C182.8,217.4,182.5,218.3,181.5,218.7z M181.8,204.8c0.6,1,1.9,1,2.6,1.6c-0.6-0.6-0.3-1.6-0.6-2.3
		C182.8,203.5,182.5,204.5,181.8,204.8z M183.1,209.9c-0.6,0.6-0.6,1.6-1.3,2.3c0.6-0.3,1.6,1,2.6,0c-0.6-0.3-1-0.6-1.3-1.3
		C182.5,210.6,183.8,210.3,183.1,209.9z M183.8,64.3c-1,0-1.6,0.3-1.6,1.3c0.3,0.3,1,0.6,1.3,0.6C184.1,65.2,184.1,65.2,183.8,64.3z
		 M185.7,193.8c-0.6-0.3-1.3-0.3-1.6-0.6c-0.6,0.3-0.6,0.6-1,1c0.3,0.3,0.3,1,0.3,1.3c0.3,0.3,0.6,0.6,1,0.6
		C185.4,195.4,185.4,194.8,185.7,193.8z M184.8,202.5c0-0.3,0.3-0.6,0-1.3c-0.3-0.3-1-0.3-1.3-0.6c0,0.6-0.3,1.3-0.3,2.3
		C183.8,202.8,184.1,203.2,184.8,202.5z M184.1,192.8c0.6,0,1-0.3,1.3-1.3c-1-1-0.3-1.9-0.3-2.9c-0.6-0.3-0.6-1.3-1.6-1.3
		C184.1,189.3,183.1,191.2,184.1,192.8z M186,242.2c0.3-0.3,0.6-0.6,1.3-0.3c0,1,0,1.9-0.3,2.6c0.3,0.3,0.3,0.6,1,0.6
		c1-1,0.3-2.3,0.3-3.2c-0.6-1.6-1.9-1.3-2.9-2.3c-0.3,0.3-1,0.3-1.3,0.6C185.1,241,185.4,241.6,186,242.2z M187,230
		c0-0.3-0.6-0.3-0.6-0.6c0-1,0.3-1.9-0.3-2.9C185.4,229.3,185.7,229.7,187,230z M186.7,236.8c0.6,1,0.6,1,1.9,0.3
		C188,236.1,187.7,235.8,186.7,236.8z M189.9,241.3c0.3,0.3,0.6,0.6,1.3,1.3c0-0.3,0.6,0,1-0.3c-0.3-0.3-0.3-0.6-0.3-1.3
		C191.2,241,190.6,240.6,189.9,241.3z M194.4,257.8c-0.6-0.3-1,0-1.6,0c-0.3-0.3,0-1-0.6-1c0-0.3-0.3,0-1,0c-0.3,0.3-0.6,1-1,1.6
		c1.3,0,1.9,1.3,3.2,1.6C194.8,259.4,194.8,258.7,194.4,257.8z M196.7,241.3c-0.3,0.3-1.3,0.3-1.3,1.3c0.6,0,0.6,0.3,1,0.3
		c0.3-0.3,0-0.6,0.3-1c0.6,0,1.6,1.3,2.6,0C198.3,241.6,197.7,241.3,196.7,241.3z M203.8,244.8c0,0.3-0.6,0.6-0.3,1
		c0.6,0.3,1.3,0.6,1.9,0.6c0.6-0.6,1.3-0.3,1.9-0.3c0.3-1.3,0-1.6-1.9-1.9c0.3-1.3-0.6-1-1.3-1c-0.3-0.3-0.3-1-1-1.3
		c-0.6,0.6-1-0.3-1.6-0.3c-1,1.6-0.6,2.6,0.6,2.9c0.6-0.3,0.3-1,1.3-1C203.8,243.9,203.8,244.2,203.8,244.8z"/>


	<path id="a" class="st0" d="M336.6,254.2c-0.6,1-0.6,2.3-1.3,3.2c-2.6,1-4.2,3.2-6.1,4.8c-0.6,0.3-1.3,0.3-1.6,0.3c-0.6,0.3-1.3,0.6-1.9,1
		c-1.6,0.3-3.2-0.6-4.8-0.3c-2.6,1.3-4.8,0.6-7.4-0.6c-1-0.6-1.9-1.6-2.6-2.9c-1.6-3.6-2.9-7.1-4.2-10.7c-1.9-6.1-3.6-12.3-5.2-18.1
		c-1-2.9-1.6-6.1-2.3-9c-1.6-6.8-2.9-13.2-4.2-20c-0.3-1-0.3-1.9-0.6-2.6c-0.6-0.3-1.3-0.3-1.9-0.3c-2.9,0.6-5.8,0.6-8.7,0
		c-1.9-0.6-4.2-1-6.1-1c-1.3,0-2.3,0-3.2-0.3c-1.3-0.3-2.6-0.6-3.9-0.3c-1,0-1.9-0.3-2.9-0.6c-2.3-0.6-4.5-0.3-7.1,0
		c0,0-0.3,0-0.6,0.3c-0.3,0.6-0.6,1.6-0.6,2.3c-0.3,3.2-1.3,6.5-2.3,9.4c0,0.6,0,1,0,1.3c0,1.6-0.3,3.2-0.6,4.8
		c-1.3,3.9-1.6,7.8-2.6,11.6c-0.3,1.9-1,3.6-1.3,5.2c-0.3,0.6-0.3,1.3-0.6,1.6c-1,4.8-2.9,9.7-4.5,14.2c-0.3,1.3-0.6,2.9-1,4.2
		s-1,2.3-1.6,3.6c-1,1.3-1.9,2.6-3.6,3.2c-2.9,1.3-6.1,1.6-9.4,1c-1.6-0.3-2.9-0.6-3.9-1c-2.3-1.3-3.9-2.9-5.8-3.6
		c-1.3-0.6-1.6-1.9-1.6-3.2s0.3-2.6,0.3-3.6c2.3-7.8,3.9-15.5,5.2-23.6c0.6-5.8,1.9-11.6,2.9-17.1c1-4.5,1.6-8.7,1.9-13.2
		c0.6-4.8,1.9-9.4,2.6-14.2c1-4.5,1.9-9,2.9-13.2c0.6-3.6,1.3-7.4,1.9-11c1-4.8,1.9-9.7,3.2-14.5v-0.3c0.3-3.6,1.3-7.1,1.9-10.7
		c0-0.6,0.3-1,0.3-1.6c0.6-2.3,1.3-4.5,1.6-7.1c0.3-2.6,1-5.2,1.9-8.1c0-1,0.3-1.9,0.6-2.9c0.3-3.2,1.3-6.5,2.3-9.7
		c0.3-1.3,0.6-2.6,1-3.9c0-1.6,0.3-3.2,1-4.5c1.3-3.9,2.3-8.1,3.2-12c0.6-1.9,1.3-4.2,1.9-6.1c0.3-1,0.6-1.9,0.6-2.9
		c0-1.6,0.6-3.2,1.3-4.8c1-1.9,2.3-4.2,3.2-6.1c1-1.3,1.9-2.6,2.9-4.2c0.6-1.3,1.6-2.3,3.6-2.3c2.9,1.6,6.1,1.3,9,2.6
		c4.2-1,7.4,0.3,10.3,2.9c1.9,1.6,2.9,3.6,4.2,5.5c0.6,1.6,1.3,3.6,1.9,5.2c1,2.3,1.6,4.5,2.6,6.8c1.6,4.2,2.6,8.4,3.6,12.9
		c0.3,2.9,1.3,5.5,2.3,8.4c0.6,3.2,1.6,6.5,2.9,9.4c1.6,4.2,2.3,8.4,3.6,12.6c1.3,2.6,2.3,5.2,3.2,7.8c0.6,1.6,1.3,2.9,1.6,4.2
		c1,3.9,1.9,7.4,2.9,11.3c1,3.9,1.9,7.8,2.9,11.6c0,1.3,0.3,2.9,0.6,4.5c0.6,3.2,1.9,6.8,2.3,10c0.3,1.9,0.6,3.6,0.6,5.5
		c0.3,1.3,0.6,2.6,1,3.9c1,4.2,1.9,8.7,2.6,12.9c0.6,2.9,1.6,5.8,2.3,9c0.3,1,0.6,1.6,0.6,2.6c-0.3,1.3,0.3,2.3,0.3,3.6
		c1,4.2,1.6,8.7,2.3,12.9c0.3,1.9,1,3.9,1.3,5.8c0.6,3.2,1.3,6.5,1.9,9.4c0.3,1.6,0.3,2.9,0.3,4.2c-0.3,2.3,0.3,4.5,0.6,6.5
		c0.6,2.3,0.6,4.2,0.6,6.5C337.2,252.9,337.2,253.9,336.6,254.2z M285.9,155.7c-0.3-0.3-0.3-0.6-0.3-1.3c-1-5.2-2.3-10.7-3.2-16.2
		c-0.6-3.9-1.6-7.4-2.9-11c-1-3.6-2.3-6.8-2.6-10.7c-0.3-1.3-0.6-2.6-1.6-3.9c-1,0.3-1,1-1,1.6c-0.3,1.6-1,3.2-1.3,4.5
		c-0.3,2.3-1,4.2-1.3,6.1c-0.3,2.3-0.6,4.5-1.6,6.8c0,1.3,0.3,2.9-0.3,4.2c-0.3,1.6-0.3,3.2-0.6,4.5c0,2.3-0.6,4.2-1.3,6.1
		c-0.3,0.3-0.6,1-0.6,1.6c-0.6,2.9-0.3,5.5-0.6,8.4c0,0,0,0.3,0.3,0.3c0.3,0.6,0.6,0.6,1.3,0.6c0.6-0.3,1.6-0.3,2.6-1
		c3.9-1.6,7.8-1.9,12-0.6c0.6,0,1,0.3,1.6,0.3C284.6,156.3,285.2,156.3,285.9,155.7z"/>

	<path id="i" class="st0" d="M379.2,251.6c-1,1.6-2.6,2.3-3.9,3.6c-0.6,0-1.6-0.3-2.3,0.3c-0.6,0.3-0.3,1.3-0.6,1.6
		c-0.6,0.3-1.3-0.3-1.9,0.3c-0.3,0.3-0.3,0.6-0.3,1.3c-0.6,0.3-1.6,0.6-2.3,1.3c-0.3,0.6,0,1-0.3,1.6c-0.6,1-1.6,0.6-2.3,0.6
		c-1.3,0-1.9,0.3-2.3,1.3c-0.6,1.3-1.3,1.6-2.6,1.9c-1.3-2.9-3.2-5.2-4.8-7.8c-1.9-3.9-3.6-7.4-4.5-11.6c-1.3-5.2-1.6-10.3-1.6-15.8
		c0-7.8,0-15.2-0.3-22.9c0-2.9-0.3-5.5-0.3-8.4c-0.3-4.5-0.3-9.4,0.3-14.2c0.3-1.3,0.3-2.9,0.3-4.2c0-7.8,0-15.5,0-23.3
		c0-6.1,0-12,0-18.1c0-4.5,0.3-8.7,0.6-13.2c0.3-4.5,0.3-9.4,0.3-13.9c0-3.6-0.3-7.4-0.3-11c0-1.9,0-3.9,0.3-5.8
		c0.3-2.6,0-5.5,0-8.4c0-1,0-2.3,0-3.9c0-1,0.3-2.3,0.6-3.6c0.6-1.9,0.6-4.5,0.6-6.8c-0.3-2.3-0.3-4.8,0-7.1c0-1.6-0.3-3.2-1.3-4.5
		c-0.3-1-0.6-1.9-1-2.9c0.6-0.6,1-0.3,1.6-0.3c2.6,0,5.2-1,7.4-1.9c1-0.3,1.9-0.6,2.9-0.3c2.9,0.3,5.8,0,8.7,1.9
		c1.3,1.3,3.2,2.3,4.8,3.2c2.3,1.3,2.3,3.6,2.6,5.5c0,0.3,0,0.6,0,1c2.9,2.3,2.6,5.8,3.6,9.4c1.3,1,1.3,2.9,1.6,4.2
		c0.6,2.3,1.3,3.9,1.6,5.8c0,2.3,0.6,4.2,1,6.1c0.3,1.9,1,3.9,1.6,5.5c1,2.9,1.3,6.1,1.6,9c0.3,4.5,0,8.7,0.3,13.2
		c0.3,3.2,0,6.5,0,10c0,4.2-0.6,8.7-0.6,13.2c-0.3,1.9,0,3.9,0,5.8c0.3,1.3-0.3,2.9-0.3,4.2c0,1,0,1.9,0.3,2.9
		c0.6,3.2-0.3,6.8-0.3,10c0,1.3,0,2.3,0,3.6c0.3,1-0.3,1.9,0,2.9c0,1-0.3,1.9,0,3.2c-0.6,9,0.3,18.1,0.3,26.8c0,4.5-1,9-0.3,13.6
		c0,0.3,0,0.6,0,1c0,1.3-0.3,2.3,0,3.6c0,1-0.3,1.6-0.6,2.3c0.3,1.6,0.3,3.2,0.6,4.5c0,1-0.6,1.3-1,1.9c0.6,2.6,0,5.2,0.3,7.8
		c0,0.3-0.3,0.6-0.6,1c0.6,1.9-1,3.6-0.3,5.5c-0.3,0.3-0.6,1-1,1.3c-0.3,0-0.6,0.3-1,0.6c0,2.3-2.3,3.2-2.6,4.8
		C380.8,251.9,379.8,251.6,379.2,251.6z M368.9,251.6c-0.6,0-1.3,0.3-1.6,0.3c-0.3-0.6,0.3-1-0.3-1.3c-0.6,0-1.3,0-2.3,0
		c0.6,0.3,0.6,0.6,1,1.3c-0.6,0.3-1,0.3-1.3,0.3c-1.3-0.3-1.3-1.9-1.9-2.6c-0.6,0.3-1,1-1,1.6c0,0.6,1,0,1,1c0,0.3-0.6,1-0.3,1.3
		c-0.3,1-1.3,0.6-1.6,1.3c0.3,0.6,0,1.3,0.3,1.6c0.3,0.3,0.6,0.3,1,0.6c0.6,0.6,0.3,1.6,1.6,1.6c0.3-0.3,0-1,0-1.6
		c0.6-0.3,1-0.3,1.6-0.3c0.3-0.3,0.3-0.6,0.3-1.3c-0.3-0.3-0.6-0.3-1-1c0.3-0.3,0.3-1,0.6-1.3c1,0.3,1.6,0.6,2.6,0
		C367.9,252.9,368.2,252.3,368.9,251.6z M369.8,252.6c-1,1,0.3,2.6-0.6,3.2c-1,0.3-1.3-1-2.3-0.6c0.6,1.9,2.6,2.3,3.6,0.6
		C370.2,254.8,370.8,253.6,369.8,252.6z M371.4,248.7c0-0.3,0.6-0.6,0.6-1.3c-0.6-0.3-1-0.6-1.3-1.3c-0.6,0.3-1.3,0.6-1.9,0.6
		c-0.3,0.6,0.6,0.6,0.6,1.3c-0.3,0-0.3,0.3-0.3,0.6c1.3,2.3,1.6,2.3,2.9,1.6C372.4,249.7,371.4,249.4,371.4,248.7z M373.7,250.3
		c1,0,1.6-0.3,2.3-1c-0.3-0.6-1.3-1.3,0-2.3c-1.6,0.3-1-1.3-2.3-1C373.4,247.4,373.1,249,373.7,250.3z M382.1,168
		c0,1-0.3,1.9,0.6,2.9c1-1,0.3-2.3,0.3-2.9c-0.3-0.6-1-1-1.9-1C381.5,167.3,382.1,167.3,382.1,168z"/>


	<path id="n" class="st0" d="M532.9,186.7c0.3,0.3,0.3,1,0,1.6c-0.6,1.9-1,3.9-1,6.1c0,1-0.3,1.9-0.6,2.9c1,1.6,0.3,2.9,0,4.2
		c0,1.3,0,2.9,0,4.2c0,2.3,0,4.2-0.6,6.1c-0.3,1,0,1.6,0,2.6c-0.3,2.6,0,4.8,0,7.8c0,1.6-0.3,3.6-0.3,5.2c0.3,1.6,0.6,2.9,0.6,4.5
		c-0.6,2.6,0,5.2,0,8.1c-0.3,0.6,0,1.3,0,1.9c0.6,1.6,0,2.9,0.3,4.2c0.3,1.6,0.6,2.9,0,4.2c0,0.3,0,1,0.3,1c1,3.6,0,6.5-1.6,9
		c-2.6,1.9-5.2,2.3-8.1,3.6c-1.3-0.3-2.9,1.3-4.2,0.3c-0.6,0.3-0.3,0.6-0.3,1.3c-0.6,0-1.3-0.3-1.6-0.3c-1-0.6-0.3-1.3-0.6-1.9
		c-0.6,0.6-0.6,0.6-0.6,1.6c-1.9,0.3-3.9,0.6-5.8-0.3c-1.3-0.6-2.3-1.9-3.2-2.9c-2.3-3.6-4.2-7.4-5.2-11.6c0-1,0-2.3,0-3.2
		c0-1.6,0-3.2-0.3-4.8c-0.6-5.2-0.3-10.3-0.3-15.5c0-1-0.3-2.3,0.3-3.2c-1.3-1.6,0.3-3.6-0.3-5.2c0.3-1,0.6-1.9,0-2.9
		c-0.3-1.3,0-2.6,0-3.9c-0.3-3.6,0-7.1,0-10.3c0-0.6,0-1.3,0.3-1.6c-0.3-1.9-0.3-3.9,0-6.5c-0.3-1.9,0-4.2,0.6-6.8
		c-1-2.9-0.3-5.8,0-8.7c0-5.2,0-10.3,0-15.5c0.3-3.2-0.3-6.5,0.3-9.7c0.3-0.6-0.3-1.6-0.3-2.3c0-1.6,0.3-3.2,0-4.8
		c0-3.2-0.3-6.1-0.3-9.4c0-2.3-0.3-4.2,0-6.1c0-1-0.3-1.6-0.3-2.6c0.3-2.6,0-4.8,0-7.8c0.6,0.3,0.3,1,1,1c0.3-0.3,0.3-0.6,0-1
		c-1.3-1.6-1.3-3.2-1.3-4.8c-0.3-9-1-17.8-2.6-26.8c-0.6-4.5-1.9-8.7-3.9-12.9c-1.3-2.9-2.9-5.8-5.2-8.1c-1-1.3-2.6-1.6-4.2-1.9
		c-1.6-0.6-3.2-0.6-5.2-0.6c0,0,0,0,0-0.3c-0.3,0.3-0.3,0.6-0.3,0.6c-1.6,0.3-2.9,1.3-4.5,1.3c-1.3,0-2.6,0.6-3.9,1.3
		s-2.6,1-3.9,1.6c-1,0.6-1.9,1.3-2.6,2.3c-1,0.6-1.6,1.3-2.6,1.9c-0.3,0.6-0.3,1.3-0.6,1.6c-0.6,1-1.3,1.6-1.9,1.9
		c-1.3,1.9-1.6,3.9-3.2,5.5c0.3,0.6-0.3,1-0.6,1.3c-0.6,1-1.3,1.9-1.6,3.2c-0.3,1-1,1.9-1.3,2.9c-0.6,0.3-0.6,1-0.6,1.6
		c0,2.6-1,4.5-1.3,6.8c0,0.6-0.6,1-0.6,1.6c0,0.3,0.3,1,0.3,1.6c-1,1.3-0.3,2.9-0.3,4.5c0.3,1.9-0.3,3.9-0.3,5.8
		c0,2.3-0.6,4.5-1.3,6.8c0,0.3,0.3,0.6,0,1.3c-1.3,2.9-0.6,5.8-1,8.7c-0.3,1.9-0.3,3.9,0,6.1c0,1,0,2.3-0.3,3.6
		c-0.6,2.9-0.6,6.1-1.3,9c-0.3,2.3-0.3,4.5-0.3,6.8c-0.3,1.9,0,4.2,0,6.1c-0.3,4.2,0.3,8.4,0,12.3c-0.3,1.3-0.3,2.6,0,3.9
		c0.3,1,0,2.3,0,3.2c0,4.2,0,8.4,0,12.6c-0.3,2.6,0,5.2,0,7.8s0,5.2,0,7.8c-0.3,1.6,0,2.9,0,4.2c-0.3,2.3,0.3,4.2,0,6.5
		c-1,0.3-1.6,0.6-1.9,1.6c0.3,1.9-0.3,3.9,0,6.1c-1.6,4.5-0.3,9.4-0.3,13.9c0,0.6-0.3,1-0.3,1.6c0.3,1.9,0,4.2,0,6.5
		c0,2.3,0,4.5,0,6.8c0,1,0,1.9-0.6,2.9c-0.3,1.9,0,3.6-0.3,5.5c-1,0.3-1.9,1-2.3,1.9c-1.6,0.3-2.9,0.3-3.9,0.6c-0.6,0.3-0.6,1-1,1.3
		c-0.6,0-0.3-1-1-1c-0.6,0.3-0.3,1-0.3,1.3c-1.6,0-2.6,1.6-4.2,1.6c0-0.3-0.3-0.3-0.3-0.3c-1.9,0.6-3.9,1.6-5.8,2.3
		c-0.3,0.3-1,0.3-1.3,0c-2.6-0.6-4.5-2.3-6.1-4.2c-0.6-0.6-1.3-1.9-2.3-2.6c-1-0.3-1.6,0.3-2.3,0.3c-1-0.6-0.6-2.3-1.3-2.9
		c0.6-0.3,0.6,0.3,1.3,0.3c0.6-0.6,0-1.3-0.6-1.6c0.3-1.3-0.3-2.6,0.3-3.9c-0.6-0.3-1-0.6-0.6-1.3c-0.3-0.3-1,0.6-1.3,0
		c-0.6-1-0.3-1.9-0.6-2.6c0.6-0.6,1.6-1,1.9-1.9c-0.6-1-1.3-0.3-1.9-0.3c0.3-0.6,1-0.6,1.3-1.3c0-1.3-1-2.6-0.3-3.6c0-1-1-1-0.3-1.9
		c0.3-0.3-0.3-0.6-0.6-0.3c-0.6-1.3-0.6-2.3,0-3.6c-1.6-2.3-3.6-40.7-1.9-43.3c-0.6-0.6-0.3-1.3-0.3-1.9c-0.3-0.3-0.6-0.3-1-0.6
		c0.3-0.3,1-0.3,1-0.3c0.6-2.6,0-5.2,0.6-7.8c-0.6-1.9,0-3.6-0.3-5.8c-0.3-0.3-1-1.3-1.3-1.9c-0.6-1.3,0.6-1.6,1-2.6
		c-0.6-0.6-0.6,0-1,0c-0.3-0.3,0.3-0.6,0.6-1.3c0-0.3-0.3-0.6-0.6-1.3c0-0.3,0.3-0.3,0.3-0.6c-0.3-1-0.3-2.3-0.3-3.6
		c0.3-1.6,0.3-2.9,0.3-4.5c0-1.6,0.3-3.6,0-5.2c0-2.6,0-5.2,0.3-7.8c0.3-1.6,0.3-3.6,0.6-5.2c0.3-1.9,0.3-3.6,0.3-5.2
		c0-1.9,0.3-3.9,0.3-5.5c0-1.3,0-2.3,0-3.2c0-0.6,0.3-1.3,1-1.6c1,0,1.9,0.6,2.9,0.3c-0.3-0.6-0.3-1.3-1-1.6
		c1.6-0.3,0.3-2.3,1.3-2.9c-0.6-0.6-0.3-1.6-1-2.3c-1-0.6-1.6,0.3-2.6,0.3c0.3,1,0.6,1.9,0.6,3.2c0,0-0.3,0-0.6,0.3
		c-0.3,0-0.6-3.6,0-4.8c0-0.6-0.3-1-0.3-1.6c0.3-0.3,0.6-0.6,1-1c0-0.6-0.3-1,0-1.3c0.3-1,1.6-0.6,1.6-1.6c0.3-0.3,0.3-0.3,0-0.6
		c-0.6-0.3-1,0.6-1.6,1c-0.6-0.3-0.6-0.6-0.3-1.3c0.6,0,1.9,0,1.3-1.3c-0.6,0-1,0.3-1.6,0.6c0-1.3,0.3-2.9,0.3-4.2
		c0-0.3,0.3-0.3,0.6-0.3c0.6,0.3,0.3,1,0.6,1.6c0.3-0.6,0.3-1.6,0.3-2.3c-0.6-0.6-1-1-1.6-0.3c0-1-0.6-1.9,0.6-2.6
		c-1-0.6-1-0.6,0-2.3c0-0.3-0.6-0.3-0.6-0.6s0-0.6,0-1c0.3-0.6,0.6,0,1-0.3c0-0.6-0.6-0.3-1-1c0.3-0.6-0.3-1.6,0-2.6
		c0.3-0.3,0.6-0.6,1-0.6c0-0.3-0.6-0.3-0.6-1c0-0.3,0.6,0,0.6-0.3c0.3-0.3,0.3-1,0.3-1.6c0-0.3-0.3-0.3-0.3-0.3
		c0-9.7,2.9-18.7,4.5-27.8c0.6-0.3,1-1,1.3-1.3c0.3-0.3,1-0.6,1.3-0.6c2.6,0,5.2-0.6,7.8,0.3c0.3,0.3,1,0.6,1.6,0.6
		c0.6,0.3,1.3,0.6,1.6,1.6c1.3,0.3,1.9-0.3,2.9-1c3.2-3.2,6.8-5.8,10.7-8.1c3.9-1.9,7.8-3.6,12-4.8c1.3-0.6,2.9-0.6,4.5-1
		c4.5-1,9-1,13.2-1c3.6,0,6.8-0.3,10,0.3c0.3,0,0.6,0,1,0.3c0.3,0,0.3,0.6,0.6,0.6c0.6,0.3,1,0,1-0.6c1.6,0.3,3.2,0.3,4.5,0.6
		c1.9,0.3,3.9,0.6,5.8,1.3c3.9,1.3,7.8,2.6,11.3,4.5c1.3,0.6,2.3,1.6,3.6,1.9c0.3,0.3,0.3,1,0.6,1.3c2.3,1,3.9,2.9,5.8,4.2
		c2.6,2.3,4.2,5.2,5.8,7.8c1,1,1.3,2.3,1.9,3.6c1.3,2.6,2.3,5.5,3.6,8.1c0.3,0.6,0.3,1.3,0.6,1.9c0.6,2.6,1.6,4.8,1.6,7.4
		c0,1,0.6,1.9,0.6,2.9c1.6,6.1,2.3,12.3,2.6,18.4c0.3,2.9,0.6,5.8,0.6,8.4c0,0.6,0,1.3,0,1.9c-0.6,1.9-0.6,4.2-0.3,6.1
		c0.3,1,0.3,1.9-0.3,2.6c0,0.6,0.6,1,0.6,1.6s-0.6,0.6-0.6,1.6c0.3,0.3,0.6,1.3,0.6,2.3c-0.6,1-0.3,1.9,0,3.2c0.6,1.3,1,2.6,0.6,4.2
		c0,1.6-1,3.2,0,4.5c-0.6,2.6,0,4.8,0,7.1c0,0.6,0,1,0,1.3c0,0.3,0.3,0.6,0.3,1c0,0.6-0.3,0.6-0.3,1c1.6,3.2,2.3,6.5,2.3,10
		c-1,1.6-1.3,3.2-1,4.2c0,0.6-0.6,0.6-0.6,1.3c1,1.6,0.3,3.6,0.3,5.5C532.6,185.4,532.6,186,532.9,186.7z M410.2,164.7
		c-0.3,1-1,1.6-2.3,1.6c1,1,1.9,0.3,2.6-0.3C410.8,165.7,410.8,165.4,410.2,164.7z M409.9,119.5c-0.3-0.6-0.3-1-1-1.3
		c0,0.6-1,1-0.6,1.6C408.9,119.8,409.6,119.8,409.9,119.5z M411.5,105.3c0-0.6-0.6-0.6-1.3-0.6c-0.3,0.3-1,0.3-1,1
		C409.9,105.6,410.8,105.6,411.5,105.3z M425.1,256.8c0.3-1,0.3-1.6,0-2.3c-0.3,0-0.6,0-1,0.3C425.1,255.2,424.1,256.5,425.1,256.8z
		 M427.6,264.5c-1,0-1.6,0-2.3,0.6c-0.3,0.6,0.3,0.6,0.3,1.3c0,0.3-0.6,0-0.3,0.6c0.6,0,0.6-0.6,1-1c0.6,0.3,1,0,1.6-0.3
		C428.3,265.2,428.3,264.9,427.6,264.5z M430.9,262.9c-0.3-0.3-0.6-0.3-1-0.6c-0.3-0.3,0-0.6-0.3-1.3c-1.3,0-1.6-1.6-3.2-1.6
		c1,1.3,0.3,2.9,1.3,3.9C428.6,263.2,429.9,263.9,430.9,262.9z M439.6,258.1c-0.6-0.3-1.3,0-1.6,0.3c-1-0.6-1.6-1.3-2.6-1.6
		c0.3,0,0.3-0.3,0-0.6c-0.6,0.3-1-0.6-1.6-0.6c-0.3,0.3-0.6,0.3-1.3,0.6c-0.3-0.3,0-1-0.6-1c-0.6,0-1.6-0.3-2.3,0.6
		c0.3,1,1,1.9,1,2.9c0,0.6-0.6,0-0.6,0.6c0,0.3,0.3,0.6,0.6,0.6c0.6,0.3,1,0.3,1.6,0.3c0.3,1,1,1,1.9,0.6c1-1-0.3-1.3,0-2.3
		c0.6,0.3,1,0.6,1.9,0.6c-1.3,1-0.3,1.3-0.3,2.3c0.3,0-0.3,0.3,0,0.6c1-0.6,1.9-0.6,2.9-1.9c-0.6,0-1,0.3-1.3,0
		C437.7,259,439,258.7,439.6,258.1z M434.1,77.5c0.3,0.6,0.6,1,1,1.3c0.6-0.3,1-0.3,1-1.3C435.4,77.8,435.1,76.9,434.1,77.5z
		 M440.6,248.7c-0.3-0.6-0.6-1-0.6-1.6c-0.3-0.3,0.3-0.3,0-0.6c0-0.3-0.3-0.3-0.6,0c0,0.6,0,1.3,0,1.9
		C439.6,248.7,439.9,248.7,440.6,248.7z M472.5,62.7c-0.6-0.3-1.3,0.3-1.9,0.3c0,0.3,0,0.6,0,0.6c0.6,0.3,1.3,0,1.9,0
		C472.9,63.3,472.9,63,472.5,62.7z M503.2,211.6c-0.3-0.3-0.3-0.6-1-0.6c-0.6,0.6-1.3,1.3-0.6,2.6
		C502.6,212.9,502.6,212.2,503.2,211.6z M501.6,199.9c0.3,0.6,0.3,0.6,0.6,1.3c0.6-0.6,1-0.6,1.6-0.6c0-0.6-0.6-0.6-1-1
		c0-0.6,0.6-0.6,0.3-1.3c-0.3,0-1-0.3-1.6,0.3C502.3,199,501.3,199.6,501.6,199.9z M502.6,143.7c1.3-1.6,1.3-1.9,0.3-2.3
		C502.3,142.1,501.9,142.8,502.6,143.7z M502.9,235.5c0.6,0,1-0.3,1.3-1.3c-0.3-0.6-1-0.6-1.6-0.6
		C502.3,234.5,501.9,235.1,502.9,235.5z M507.1,247.4c-0.6,0-1-0.6-1.6-1c-0.3,0-1,0-1.3,0.3c-0.3,0.3,0,1-0.3,1.3
		c0,0.6-0.6,0.6-0.6,1.3c0.3,0.6,1,0.3,1.3,0.3c0.3-0.3,0.6-0.6,0.3-1.3c0.6-0.6,1.3,0,1.6,0.3C506.8,248.1,507.1,248.1,507.1,247.4
		z M510,105.3c-1.3,0-2.3,0.3-3.2,0.3c-0.6,0-1,0.6-0.6,1.3c0.6,0,1-1,1.6-1.3C508.4,105.9,509.4,105.9,510,105.3z M513.2,110.8
		c-0.3-0.6-0.6,0-1,0c-0.6-0.3-0.3-1-1-1c-0.6,0.6-0.3,1.6,0,2.6C511.9,111.8,513.2,111.8,513.2,110.8z M521,257.8
		c-0.6-0.6-1.6-1-2.6-1.6c-0.3,1,0.6,1.6,0.3,2.6c-0.3-0.3-1-0.3-1.3-0.3c-1-0.6-0.3-1.9-1.6-1.9c-0.3,0.3-1,1-0.3,1.6
		c0,0,0.3,0,0.6,0.3c-0.6,1.3-1.3,0-1.9,0c-0.3,0.6-0.6,1.3,0,1.9c0.6,0,1,0.3,1.6,0.3c0.3-0.3-0.3-1,0.3-1.3c1,0,1.9,0.6,2.9,1
		C519.4,259,521.3,259.4,521,257.8z"/>


	<path id="p" class="st0" d="M754.5,114.3c-0.6,1.6-0.6,3.2-0.6,4.8c-0.3,1.6-0.3,3.2-0.3,4.8c0,1.3-0.3,2.6-0.3,3.9
		c-0.6,2.3-1.3,4.2-1.6,6.5c0,0.6-0.3,1.6-0.6,2.3c-0.3,0.3-0.6,0.6-1,1.3c-0.6,2.9-1.9,5.2-3.2,7.8c0,0.3-0.3,0.6-0.6,1
		c-1,1.3-1.6,2.9-1.9,4.5c-0.3,1-1,1.9-1.6,2.3c-2.3,1.6-3.9,3.9-6.1,5.2c-0.6,0.6-1.3,1.3-2.3,1.6c-1,0.6-2.3,1.6-2.9,2.6
		c-0.3,0.3-0.6,0.3-1,0.6c-2.9,1.6-6.1,2.6-9.7,3.2c-1.3,0.3-2.9,0.6-4.2,1.3c-2.3-0.3-4.5,0-6.5,0c-2.3,0.3-4.5,0-6.8-0.3
		c-1.9-0.3-3.9-0.3-6.1,0.6c-1.6-1-3.9-0.6-5.8-1.3c-1.9-0.6-4.2-0.6-5.8-1.3c-1.9-0.6-3.9-1.3-5.8-2.3c-1.6-0.6-3.2-2.3-5.2-2.9
		c-1,2.3-0.6,4.2-0.6,6.1c-0.3,1.9-0.3,3.9,0,5.8c0,1.3,0,2.6-0.3,3.9c0,1.3,0,2.6,0.3,3.9c0,0.6,0,1.3,0,1.9c0,1.6,0,2.9,0.3,4.5
		c0.3,1.9,0,3.9,0,5.8c-0.3,3.2-0.6,6.8-0.3,10.3c0,1.6,0,3.2,0,4.8c0,5.5,0,11-0.3,16.8c0,3.9,0,7.4,0.3,11.3
		c0.3,4.5,0.3,9.4,1,13.9c0,1.3-1,2.3-0.3,3.2c-1,1.3-1.3,2.3-2.6,2.9c-1.6-0.3-3.2,0-4.8,0.6c-0.3,0-0.6,0-1,0
		c-1.3,1.3-2.6,1.3-4.2,1.9c-1-0.3-1.9-0.3-2.9-1c-0.6,0.3-1.3,0.6-1.9,1c-0.6,0.6-0.3,1.9-1.6,1.9s-1.9-0.6-3.2-1.3
		c-1-0.3-1.9-0.6-3.2-1c-2.3,0-3.2-1.6-4.2-3.2c-1-1.9-1.3-3.9-1.3-5.8c-0.3-6.1-0.3-12-0.3-18.1c0-4.5-0.3-9.7-0.3-14.5
		c-0.3-3.6-0.3-6.8-0.3-10.3c-0.3-4.5-0.3-8.7-0.3-12.9c-0.3-3.2-0.3-6.8-0.3-10c0-2.6-0.3-4.8-0.3-7.4c0-4.8,0.3-9.7,0-14.5
		c0-3.9,0.3-7.4,0.6-11.3c0-0.6,0-1.6,0-2.6c0-4.2,0.6-8.4,0.3-12.9c0-0.6,0.3-1.3,0.3-1.9c0-0.3,0.3-1,0-1.6
		c-0.3-4.2,0-8.7-0.3-13.2c0-3.9,0-7.4-0.3-11.3c-0.3-1.6,0-2.9,0-4.2c0.3-3.6,0-6.8,0.3-10c0-5.5-0.3-11,0-16.5c0.3-1,0-2.3,0-3.9
		c1-1.3,1-2.9,1-4.5c-0.3-2.3-0.3-4.5,0-6.8c0-1.6,0-2.9-0.6-4.5c3.6-1.3,7.1-1.3,10.7-1.3c3.6,0,7.1,0.3,10.7,1.6
		c1.9-0.3,4.2-1,6.1-1.6c3.6-0.3,6.8-0.6,10.3-1c5.2-0.3,10,0.3,15.2,1.3c3.6,0.6,7.1,1.3,10.3,2.3c4.8,1.3,9.7,2.6,14.2,4.8
		c2.3,1,4.5,1.9,6.5,3.6c1,0.6,2.3,1.3,3.2,1.9c2.9,1.9,5.2,4.2,8.1,6.1c1.3,1.3,2.6,2.3,3.6,3.6c4.8,4.2,8.1,9.4,10,15.5
		c1,2.6,1.6,5.5,1.9,8.4c0.6,3.2,1,6.5,1.3,9.4C754.8,111.8,754.8,113.1,754.5,114.3z M724.8,109.2c-0.3-1.6-0.3-3.6-0.6-5.2
		c-0.6-1.9-0.6-3.9-1.3-5.8c-1.3-5.2-3.6-9.4-6.5-13.9c-1.9-2.9-4.2-5.5-7.1-7.8c-2.3-1.9-4.8-3.6-7.4-4.5c-2.9-1.6-6.5-1.6-9.7-1.3
		c-3.2,0.3-6.8,1-10,1.3c-3.6,0.6-6.8,1.6-10.7,2.3c-0.6,0-1.3,0.3-1.6,1.3c0,1.6,0,3.2,0.6,4.8c0.3,1,0.3,1.9,0.3,2.9
		c0,2.6,1,5.5,1.6,8.1c0.6,2.3,1.3,4.5,1,7.1c-0.3,1-0.3,2.3-0.3,3.6c0.3,2.9,1,6.1,1,9c0,2.6,0.3,5.2,0.3,7.8s0,5.2,0.3,7.8
		c0,3.9,0,8.1-0.3,12c0,0.6,0,1.6,0,2.6c1,1,1.6,0.6,2.6,0.6c1.9,0.3,3.9,0.3,5.8,0.3c3.9,0.3,7.4-0.3,11-1.3c1.6-0.3,3.2-0.3,4.5-1
		c1.6-0.6,3.2-1,4.5-1.6c2.9-1,5.8-1.9,8.7-3.2c2.9-1.3,5.5-3.6,7.4-6.5c2.3-3.6,3.6-7.4,4.8-11.6
		C724.8,114.3,725.1,111.8,724.8,109.2z"/>


	<path id="a2" class="st0" d="M877.6,254.2c-0.6,1-0.6,2.3-1.3,3.2c-2.6,1-4.2,3.2-6.1,4.8c-0.6,0.3-1.3,0.3-1.6,0.3c-0.6,0.3-1.3,0.6-1.9,1
		c-1.6,0.3-3.2-0.6-4.8-0.3c-2.6,1.3-4.8,0.6-7.4-0.6c-1-0.6-1.9-1.6-2.6-2.9c-1.6-3.6-2.9-7.1-4.2-10.7c-1.9-6.1-3.6-12.3-5.2-18.1
		c-1-2.9-1.6-6.1-2.3-9c-1.6-6.8-2.9-13.2-4.2-20c-0.3-1-0.3-1.9-0.6-2.6c-0.6-0.3-1.3-0.3-1.9-0.3c-2.9,0.6-5.8,0.6-8.7,0
		c-1.9-0.6-4.2-1-6.1-1c-1.3,0-2.3,0-3.2-0.3c-1.3-0.3-2.6-0.6-3.9-0.3c-1,0-1.9-0.3-2.9-0.6c-2.3-0.6-4.5-0.3-7.1,0
		c0,0-0.3,0-0.6,0.3c-0.3,0.6-0.6,1.6-0.6,2.3c-0.3,3.2-1.3,6.5-2.3,9.4c0,0.6,0,1,0,1.3c0,1.6-0.3,3.2-0.6,4.8
		c-1.3,3.9-1.6,7.8-2.6,11.6c-0.3,1.9-1,3.6-1.3,5.2c-0.3,0.6-0.3,1.3-0.6,1.6c-1,4.8-2.9,9.7-4.5,14.2c-0.3,1.3-0.6,2.9-1,4.2
		c-0.3,1.3-1,2.3-1.6,3.6c-1,1.3-1.9,2.6-3.6,3.2c-2.9,1.3-6.1,1.6-9.4,1c-1.6-0.3-2.9-0.6-3.9-1c-2.3-1.3-3.9-2.9-5.8-3.6
		c-1.3-0.6-1.6-1.9-1.6-3.2s0.3-2.6,0.3-3.6c2.3-7.8,3.9-15.5,5.2-23.6c0.6-5.8,1.9-11.6,2.9-17.1c1-4.5,1.6-8.7,1.9-13.2
		c0.6-4.8,1.9-9.4,2.6-14.2c1-4.5,1.9-9,2.9-13.2c0.6-3.6,1.3-7.4,1.9-11c1-4.8,1.9-9.7,3.2-14.5v-0.3c0.3-3.6,1.3-7.1,1.9-10.7
		c0-0.6,0.3-1,0.3-1.6c0.6-2.3,1.3-4.5,1.6-7.1c0.3-2.6,1-5.2,1.9-8.1c0-1,0.3-1.9,0.6-2.9c0.3-3.2,1.3-6.5,2.3-9.7
		c0.3-1.3,0.6-2.6,1-3.9c0-1.6,0.3-3.2,1-4.5c1.3-3.9,2.3-8.1,3.2-12c0.6-1.9,1.3-4.2,1.9-6.1c0.3-1,0.6-1.9,0.6-2.9
		c0-1.6,0.6-3.2,1.3-4.8c1-1.9,2.3-4.2,3.2-6.1c1-1.3,1.9-2.6,2.9-4.2c0.6-1.3,1.6-2.3,3.6-2.3c2.9,1.6,6.1,1.3,9,2.6
		c4.2-1,7.4,0.3,10.3,2.9c1.9,1.6,2.9,3.6,4.2,5.5c0.6,1.6,1.3,3.6,1.9,5.2c1,2.3,1.6,4.5,2.6,6.8c1.6,4.2,2.6,8.4,3.6,12.9
		c0.3,2.9,1.3,5.5,2.3,8.4c0.6,3.2,1.6,6.5,2.9,9.4c1.6,4.2,2.3,8.4,3.6,12.6c1.3,2.6,2.3,5.2,3.2,7.8c0.6,1.6,1.3,2.9,1.6,4.2
		c1,3.9,1.9,7.4,2.9,11.3c1,3.9,1.9,7.8,2.9,11.6c0,1.3,0.3,2.9,0.6,4.5c0.6,3.2,1.9,6.8,2.3,10c0.3,1.9,0.6,3.6,0.6,5.5
		c0.3,1.3,0.6,2.6,1,3.9c1,4.2,1.9,8.7,2.6,12.9c0.6,2.9,1.6,5.8,2.3,9c0.3,1,0.6,1.6,0.6,2.6c-0.3,1.3,0.3,2.3,0.3,3.6
		c1,4.2,1.6,8.7,2.3,12.9c0.3,1.9,1,3.9,1.3,5.8c0.6,3.2,1.3,6.5,1.9,9.4c0.3,1.6,0.3,2.9,0.3,4.2c-0.3,2.3,0.3,4.5,0.6,6.5
		c0.6,2.3,0.6,4.2,0.6,6.5C878.2,252.9,878.2,253.9,877.6,254.2z M826.9,155.7c-0.3-0.3-0.3-0.6-0.3-1.3c-1-5.2-2.3-10.7-3.2-16.2
		c-0.6-3.9-1.6-7.4-2.9-11c-1-3.6-2.3-6.8-2.6-10.7c-0.3-1.3-0.6-2.6-1.6-3.9c-1,0.3-1,1-1,1.6c-0.3,1.6-1,3.2-1.3,4.5
		c-0.3,2.3-1,4.2-1.3,6.1c-0.3,2.3-0.6,4.5-1.6,6.8c0,1.3,0.3,2.9-0.3,4.2c-0.3,1.6-0.3,3.2-0.6,4.5c0,2.3-0.6,4.2-1.3,6.1
		c-0.3,0.3-0.6,1-0.6,1.6c-0.6,2.9-0.3,5.5-0.6,8.4c0,0,0,0.3,0.3,0.3c0.3,0.6,0.6,0.6,1.3,0.6c0.6-0.3,1.6-0.3,2.6-1
		c3.9-1.6,7.8-1.9,12-0.6c0.6,0,1,0.3,1.6,0.3C825.6,156.3,826.2,156.3,826.9,155.7z"/>

	<path id="g" class="st0" d="M974.5,257.8c0.3,1,0.6,1.9,1,2.6c-0.6,0.3-1-0.3-1.6-0.3c-0.3,0-0.6,0.6-1.3,0.3c-0.6-0.3,0-1-0.6-1.3
		c-1-0.3-1.9-0.3-2.9,0c0,0.6,0.6,0.3,0.6,1c-0.3,0.6-0.6,0.3-1,0.3c-0.6-0.3-0.3-0.6-1-1c-1.9-0.3-2.6-1-2.6-2.3
		c-0.3,0-0.3,0-0.6,0.3v0.3c-1.3-0.3,0-1.3-0.3-1.9c-0.6,0-0.6,1-1.3,1.3c-0.3-0.3,0-0.6-0.3-1c-0.3,0.3-0.6,0.6-0.6,0.6
		c-0.3,0.6,0,0.6,0,1.3c-0.3,0-0.6,0.3-1.3,1c0-1-0.3-1.6-0.6-2.3c-0.3,0-0.6,0.3-1,0c0-0.3,0.3-0.6,0-1c-0.6,0-0.3,1-1,1
		c-0.3,0.3-0.6-0.3-1.3,0.3c0.6,1,2.3,0,2.9,1c-1.6,0.6-8.4-0.6-10.3-1.9c-0.3-0.3-1.3,0.3-1.9-0.6c0-0.6,1-0.3,1-1
		c-1-0.6-1.6,0.6-2.6,0.6c-0.6-0.6-1.6-1-2.3-1.3c0.3-1,1-1,1.6-1.3c0-1.3-1.6,0-1.9-1.3c-1,1-1,1-0.6,1.9c-1.9,0-3.2-1.3-5.2-1.9
		c-0.3-0.3,0.3-0.6,0-1c0-0.3-0.3-0.6-0.6-0.6s-0.6,0.3-1,0.3c-1.6-0.3-3.2-1-3.9-2.6c-0.6-0.3-1,0.3-1.3,0
		c-1.3-0.6-2.3-1.6-3.2-2.6c-1.3,0-1.9-0.6-2.9-1.3c-1.6-1-2.6-2.3-4.2-3.2c-1-0.3-1.6-1.3-2.3-1.9c-1.3-1-2.6-1.9-3.9-3.2
		c-0.6-1-1.6-1.6-2.6-2.6c-1-1-1.9-2.6-3.2-3.9c-0.6-0.3-0.6-1.3-1-1.9c-1.9-1-2.9-2.6-3.9-4.2c-2.3-2.9-4.5-5.8-6.5-8.7
		c-1.3-2.6-2.6-5.2-3.9-7.8c-2.3-4.8-3.2-9.7-4.5-14.9c-0.3-1.9-0.6-4.5-1.3-6.5c-0.3-2.6-0.6-5.5-1-8.1c-0.6-2.6-0.6-5.5-1-8.4
		c-0.3-3.6-0.6-7.4-0.6-11c0.3-2.3,0.3-4.5,0.3-6.5c0-3.2,0.3-6.5,0.6-9.7c0-1.6,0.6-3.6,1-5.5c0.3-2.9,1.6-5.8,1.9-9
		c0.6-0.3,0.6-1.3,1-1.9c1-4.8,3.6-8.7,5.8-12.6c1.3-1.9,1.9-3.9,3.2-5.5c1.6-1.9,2.6-4.5,4.2-6.5c0.6-1,0.6-2.3,2.3-2.6
		c1-1.9,2.6-3.2,3.9-4.8c1.6-2.3,3.9-3.9,5.8-5.8c0.6-0.6,1.3-1.6,2.6-1.3c0.3-0.3,0.3-0.6,0.6-1c1.9-1.6,4.2-2.6,5.8-4.2
		c0.6-0.3,0.3,0.3,1,0.3c0-0.3,0-1,0.3-1.3c0.6-0.3,1-1.3,2.3-1.6c2.6-2.3,5.8-4.2,9-6.1c1.3-1,2.6-1.9,4.2-1.6c0-0.3,0-0.6,0-1
		c0.6-0.3,1.3-1,1.9-0.6c3.6-1.6,6.8-3.6,10-4.8c1.3-1,2.6-1.9,4.5-1.9c1.3-1.3,2.6-2.6,4.8-2.6c2.3-1.6,5.2-2.3,8.4-3.2
		c0.3-1,1.9-0.6,2.6-1.6c1.9-1,4.2,0,5.8-1.9c1-0.6,2.6,0.3,3.2-1c5.8,0,10.7-2.9,16.2-4.5c2.3,1.9,4.8,3.2,7.4,4.5
		c1.3,0.3,2.6,1,3.2,1.9c1.6,1.9,3.9,2.9,5.2,5.2c0,0.3,0.3,0.3,0.6,0.6c1.9,1.6,3.6,3.6,4.2,6.1c0.6,1.6,0.6,3.2,0.3,4.8
		c0,0.6,0,1,0,1.6c-0.6,1.3-1.9,2.3-2.9,3.6c-1.9,0.3-2.9,1.6-4.5,2.3c-1.9,1.3-3.9,2.9-5.5,4.2c-0.6,0.6-1.6,1-2.3,1.3
		c-1.6,1.3-2.9,2.6-4.2,3.9c-1,1-2.3,2.3-3.9,2.3c-1,0.3-1.6,1.3-2.6,1.9c-3.6,2.9-7.1,6.1-11.3,8.4c-1.6,1-3.6,2.3-5.2,3.6
		c-0.3,0.3-1,0.6-1.3,0.6c-0.6,0.3-1.3,0.3-1.6,0.6c-1,1.9-3.2,2.9-4.5,4.5c-0.6,0.6-1.6,1-2.3,1.6c-2.3,1.3-4.8,1.9-6.1,3.9
		c-1,0.3-1.6,0-2.3,0.3c-1,1.9-2.3,3.6-4.2,4.5c-0.3,0.3-0.6,0.6-1,1c-1.6,1.6-3.2,3.6-5.5,4.8c-0.3,0.3-0.3,1-0.3,1.3
		c-1.6,0.3-1.9,1.6-2.9,2.6c-3.2,3.2-6.1,6.5-8.4,10.7c-1,1.9-2.6,3.6-3.6,5.2c-0.3,1-1,1.3-1.6,1.6c-2.3,5.5-4.5,10.7-6.8,16.1
		c-0.3,0.3,0,0.6,0,1.3c-0.6,0.3-0.3,1.6-1.3,2.3c0.6,1.9,0.3,3.9-0.3,5.8c-0.6,2.9-0.3,5.8-0.6,8.7c-0.3,1.6-0.3,2.6,0,4.2
		c0,0.3,0,1-0.3,1.3c0,0.3,0,1,0,1.3c0.3,2.9,0.3,5.8,0.6,8.7c0,0.3,0,0.6,0.3,1c0.3,1,0.3,1-0.6,1.9c0.3,0,0.6,0.3,0.6,0.3
		s0,0,0-0.3c0.3,2.3,0.3,4.2,0.6,5.8c0.6,2.9,0.6,5.8,1.6,8.7s1.6,6.5,3.2,9c1,1.6,1.6,3.6,3.2,4.8c1.6,1.6,2.9,3.2,4.8,4.2
		c1.3,0.6,2.3,1.6,3.2,2.3c3.6,2.3,7.1,2.6,11,2.3c3.2,0,6.5-0.3,9.7-1c1.9-0.6,4.2-1.3,6.1-1.9c5.8-1.6,10.7-4.5,15.5-7.4
		c5.8-3.6,10.7-7.4,16.2-11.3c0.6-0.6,1-1,1.6-1.6c1.3-1,1.3-1.3,2.9-1.6c0.3-1.6,1.6-2.3,3.6-2.3c1.6,0,3.9-0.3,5.2-1.9
		c-1.9,1.3-3.9,1-5.8,1c1.3-1,2.3-2.6,4.2-3.6c0.3-1,1.3-1.6,1.9-2.6c3.6-3.2,6.8-6.8,9.7-10.3c0.3-0.3,0.6,0,1,0
		c-0.3-1.9,1.6-2.9,2.3-4.2c1.3-1.6,1.9-3.6,3.9-4.8c0,0,0-0.6,0-1c0,0,0.3,0,0.6,0c0.3-0.6,0-1,0.3-1.6c0-0.3,0.6,0,1-0.3
		c0.3-0.3,0.6-1,1-1.3c-0.6-0.3-1,0.3-1.3,0c-0.6-0.6-0.6-1.3-0.6-1.9c-0.6-1.3-2.3-1.3-3.2-1.3c-2.6,0-5.2-0.6-7.4,0
		c-3.6,0.6-7.1,1-10.3,2.3c-1,0.3-1.6,0.3-2.6,0.6c-3.2,1-6.8,1.6-10.3,2.6c-2.3,0.6-4.2,1-6.5,1.3c-2.6,0-5.2,1-8.4,0.3
		c-0.6,0.6-1.6,1-2.9,1c-1.6-1.6-3.6-0.6-5.2-1c-1.9,0-3.9,0.3-5.5,0c-1.6-0.6-3.2-0.3-4.8,0c-1.9,0.3-3.6,0.3-5.5-0.6
		c-1-0.3-1.9-1-2.9-1c-0.3-2.6-2.9-2.9-4.2-4.2c-0.3-0.3-0.3-1-0.6-1.3c1-2.9,6.5-5.5,9.7-4.8c3.2-0.6,6.8-0.3,10-1.9
		c0.3,0.3,1,0.3,1.3,0.3c3.9-1,7.8-1.3,11.6-2.6c0.3,0.3,0.6,0.3,1.3,0.3c1.3-1.3,2.3-1.3,3.6-0.6c0.6-1,1.9-1.6,3.2-1.3
		c3.6-1.3,7.4-1.6,10.7-2.9c0.6,0,0.3,0.6,1,0.6c1-1.9,2.6-2.3,4.5-2.3c1-0.6,1.9-1.3,2.9-1c0.3-0.3,0.6-0.6,1-0.6
		c2.3-0.3,3.9-1.6,5.8-1.9c1-0.3,1.9-0.6,3.2-1c1.9-0.3,3.2,1,4.5,1.9l0.3,0.3c1.6,0,3.6,0.3,5.2,1c0.3,0.3,0.6,0.6,0.6,1
		c1.3,1.3,3.6,0.6,4.8,1.9c0.6,1,1.9,1,2.9,1.3c0.6,0.3,1.3,0.6,1.9,1c0.3,0.6-0.6,1,0,1.6c0.6,0,0.6-1,1.3-1c1,0.3,1.9,1,1.6,2.3
		c0.6,0.3,1-0.3,1.6-0.6c1,1.9,4.2,1.6,4.5,4.5c0.6-0.3,1-0.3,1.6,0c0.3,0,0.3,0,0.3,0c0.3-0.3,0.3-0.3,0.6-0.3c0.6,0.3,1,1,1.6,1
		c0.3,0.3,0.6,0.3,1,0.3c1,0.6,0.3,1.3,0.3,1.6c0.6,0.3,0.6-0.6,1.3-0.3c0.3,0-0.3,0.3,0,0.6c0,0,0,0.3,0.3,0c1.3-0.3,2.3,1,2.9,1.6
		c1.6,1.6,2.9,3.6,3.9,5.5c-0.3,1.6-0.3,2.9,0,4.5c0.3,0.6,0,1.6-0.3,2.3c-1,1.6-1.3,3.6-1.9,5.2c-0.6,1.6-1.3,3.2-1.9,4.8
		c-0.6,2.3-1.6,4.5-1.9,7.1c0,0.6,0,1.3-0.3,1.9c-0.6,0.6-1.3,1.6-1.3,2.6c-0.3,0.6-0.6,1-1,1.6c-0.6,0.3-1.3,1-1.3,1.9
		c-1.3,0.3-1.6,1.6-1.9,2.6c-0.6,1.3-1.3,2.3-1.9,3.2c0,0.6-0.6,0.6-1,0.3c0,0.6,0,1-0.3,1.3c-1,0.6-1.6,1.9-2.9,2.3
		c-1,0.3-1,1.6-1,2.6c-1,0-1.3,1.6-2.6,1c-0.3,0.6-0.3,1.3-0.3,1.9c-1.6,1.3-2.9,2.6-4.2,3.9c-0.6,1-1.9,1.6-3.2,1.9
		c-1.3,2.3-2.9,3.2-5.2,3.9c-0.3,0-0.3,1-1,1.6c-0.3,0.6-1.3,0.3-1.9,0.6c-0.6,0.6-1.3,1.6-2.3,1.9c-1,1.6-1.6,2.3-3.9,3.2
		c0,0.6-0.3,1.6-0.6,2.3c-0.6,0-1.3-0.3-1.3-1c-1.6,0.3-0.3,1-0.3,1.3c-1,0.3-1.9,0.3-2.9,0.3c-0.6,1.6-1.9,2.9-3.6,4.2
		c-0.6-0.3-1.3,0.3-2.3,0c-0.6-0.6-1.3-0.6-1.9-1.3c-0.6,0.6-0.6,1.3-1.3,1.9c1,0.3,0.6-0.6,1.3-0.3c0.3,0,0.6,0,1,0.3
		c-1.3,1.6-3.2,1-4.2,2.3c-1,0.3-1.6,0.6-2.3-0.3c0-0.6,0.6-0.3,0.6-1c-0.6-1.3-1.9,0-2.6-0.6c0.3,0.6,0.6,1.6,1.3,2.3
		c-1.3,0.3-1.3,0.3-1.6-1.3c-0.3,0-0.3-0.3-1,0c0.3,1-0.6,1.3-0.6,2.3c0.3,0.6,1.3,0,1.3,1c-0.6,0-1,0.3-1.6,0.6c-1-0.3,0-1-0.6-1.3
		c-0.6,0.3-1.3,0-1.6-0.6c-0.3,0.3-0.6,0.6-1,1c-0.3,0.6,0,1.6-1.3,1.3c-0.3-0.6,0.3-1,0.3-1.6c-1.6,0-2.9,1.9-4.5,0.3
		c-0.6,1.3-1.9,0.6-2.9,0.6c-0.6,0.3-0.3,1-0.3,1.6c-0.3,0.3-0.6,0.6-1.3,0.3c-0.6-0.3,0.3-1.3-0.6-1.6c-1,0.6-0.6,1.6-1.3,2.3
		c-1.3,1-1.3,1-1.9-0.3c0.6-0.3,0-1,0.3-1.3c0-0.6,1-0.3,1-1.3c-1,0.6-1.9,0.3-2.3,1.6c0.3,0.3,0.6,0.6,1,1.3
		C977.4,259.4,975.8,259,974.5,257.8z M955.7,253.6c-0.3,1-1,1.3-1.6,1c-0.3,0.6,0,0.6,0,1s-0.6,0.3-0.3,1c0.3,0.3,0.6,0.3,1,0.3
		c0.3-0.3,0-0.6,0.3-1c0.3,0,0.6,0,1.3-0.3C956.4,254.8,956.4,254.2,955.7,253.6z M958,176.7c-0.3-0.6-1-0.6-1.6,0
		c1,0.3,1.9,1.3,3.2,0.3C959,176.7,958.3,177.3,958,176.7z M1014.2,235.1c-0.6,0.3-1.3,0.6-1.9,1c-0.6,1.3-1.9,2.3-1.3,3.9
		C1011.3,237.7,1012.6,236.1,1014.2,235.1z M1014.2,244.2c0.3-1,1.3-1.6,0.6-2.6c-1,0.6-0.6,1.9-1.6,2.3c-0.6,0-1.3-0.6-1.9,0
		C1012.3,244.8,1013.2,243.5,1014.2,244.2z M1018.1,225.5c0.6-1,0-1.6,0-2.6C1016.8,224.2,1016.8,224.2,1018.1,225.5z M1028.4,235.5
		c-0.6-1,0.3-1.9-0.3-2.9c-0.6,1-0.6,1.6-0.6,2.6c0.3,0,0.6,0.3,1,0.6C1028.4,235.5,1028.4,235.5,1028.4,235.5z M1042,182.5
		c0-1,0-1.9-1.3-2.6c0.3,1,0,1.3-0.3,1.9C1040.7,182.2,1041,182.8,1042,182.5z M1046.5,181.8c0,1,1,1,1.3,1.3
		c-0.3,1.3-0.3,1.6,1,2.3c0.3-0.6-0.3-1,0-1.6c1.3,0,1-1,1.3-1.6c0.6,0,0.6,0.3,1,0.6c0,0.6-0.6,1-0.3,1.6c0.3,0.3,1,0.6,1.6,0.6
		c0,0.6,0.3,1.3,0.3,2.3c0.6-0.3,1-1,1-1.6c0-0.3-0.3-0.3-0.3-0.6c0-0.6,0.3-1.3,0.3-1.9c-0.6,0.6-1.3,1-1.9,0
		c0-0.6-0.3-1.6,0.3-2.6c-1,0.3-1.3-0.3-1.9-0.3C1049.4,181.8,1047.8,181.2,1046.5,181.8z M1054.6,187c-0.3,0.6-1.3,1-1.9,1.3
		c1,0.3,2.3,0.3,2.9,1.3c-0.3,0.6-1,0.6-1,1.3c-0.3,0.3,0.3,0.6,0.3,1c-0.3,0.3-0.6,0.6-1,0.6c-0.6-0.6,0.3-1.9-1-2.9
		c-0.3,0.6-1.3,1.3-1.9,1c-0.3,0.3-0.3,0.6-0.3,1c0.3,0.3,0.6-0.3,1,0c0,0,0,0.6,0.3,0.6s0.3-0.3,0.3-0.3c0.3,0,0.3,0,0.3,0.3
		c-0.3,1-1.9,0.3-2.6,1.3c0-0.3,0-0.6-0.3-0.3c-0.3,0.3-0.3,0.6,0,1c0.6-0.3,1.3,0,1.9,0c0.3,0.3,0.3,1,1,1c0.3,0,0.6,0,1-0.6
		c-0.3-0.3-1.3-0.6-0.6-1.3c0.3,0,0.3,0.3,0.6,0.6c0.3-1,1.6-0.6,1.6-1.6c1,0,1.3,0.3,2.3,0.3c0-0.6,1-0.6,1-1
		c-0.6-1-1.3-1.6-2.6-1.9c0.3-1,1.6,0,1.6-1c-0.6-0.3-0.6-1-0.6-1.6C1055.9,186.4,1055.5,186.7,1054.6,187z M1050.7,185.4
		c0,0.3,0,0.3,0,0.6c-0.3,0.3-1,0.3-1,0.6c0,0.6,0.6,1.3,1,1.9c0.3,0,0.6,0,1.3,0c0.3-0.6-0.3-0.6-0.6-1
		C1051.7,186.4,1051.4,185.4,1050.7,185.4z M1054.3,196.7c0.6,0,1.3,0,1.6-0.6c0-0.3,0-1-0.6-1c-0.3,0-0.3,0.6-0.6,0.6
		c-0.3,0.3-0.6-0.3-1.3,0C1053.6,196.1,1053.9,196.7,1054.3,196.7z M1057.2,182.8c-0.6,0.6-1.6,0.3-1.9,1c0,0.6,0.3,1.3,1,1.6
		C1057.2,184.8,1057.2,184.1,1057.2,182.8z M1057.2,195.1c0.3,0,0.6-0.3,0.3-1c-0.3,0-0.6-0.6-1-1.3c-0.6,0-0.6,0.3-0.6,1
		C1056.5,193.8,1056.5,194.8,1057.2,195.1z"/>


	<path id="e" class="st0" d="M1178,254.5c0.3,0,0.3-0.6,0.6-0.6c0.3,0,0,0.6,0.3,0.6c-2.6,2.3-4.8,4.2-8.1,4.8c0.3-0.3,0.3-0.6,0.6-1.3
		c-1-0.3-1.9-0.3-2.6-0.6c0,0.6,0.3,0.6,0.6,1c0,0.3-0.6,0.6-0.3,1c0.6,0,0.3-0.6,0.6-0.3c0.6,0,0.6,0,1,0.3
		c-0.3,0.3-0.6,0.6-1.3,0.6c-1.6,0.3-3.6,0.6-5.2,1.3c-0.3,0.3-1.3,0.3-1.9,0c-1,1-3.2,1.6-4.2,1c-0.3,0.3-0.6,1-1.3,0.6
		c-0.6-1-0.6-1-1.6-1c-0.3,0,0,0.3,0,0.6c0,0,0,0.3,0.3,0.3c-1,1.3-1.9,0-2.6,0.6c-1,0.3-1.6,1-2.3,0c-1-0.3-0.6,0.6-1.3,0.6
		c-1.3-0.3-2.3,0.6-3.6,0.6c-0.3-1.3-0.6-1.6-1.9-1.9c0.3,1,1,1.3,1,1.9c-1.6,0.6-3.2,1.3-4.8,0.6c-1,0.3-1.9,1-2.9,0
		c-1.3,1-2.6,0-3.6-0.3c-0.3-0.3-0.6-0.6-1-1.3c-0.3-0.3-0.6,0-1,0c-0.3,0.3,0.3,0.6,0.3,1.3c-0.3,0.6-0.6,0.6-1,0.6
		c-0.6,0-0.3-0.6-0.6-1c-0.6-1-1.6,0.3-2.6-0.3c-0.6,0.3-0.6,1-1.3,1c-0.3,0-0.6-1-1.3-1c-0.3,0-0.6,0.6-1.6,0c0-0.3-0.3-1.3-1-1.3
		c-0.3,0.6,0,1-0.3,1.3c-2.3,0-4.8-0.3-7.1-1.3c-0.3,0-0.6,0-0.6,0.3c-0.6-0.3-1.6-0.3-2.3-0.3c-0.3-0.6-0.3-1-0.6-1.3
		c-0.6-0.3-1,0.3-1.3,0.3c-1,0-1.6-0.3-1.6-1.6c-0.6,1-1,0.6-1.6,0.3c-2.9-1.3-5.8-2.9-8.7-4.8c-1.6-1.3-3.2-2.9-4.8-4.5
		s-2.9-3.2-4.2-4.8c-1.6-2.3-2.9-4.2-4.2-6.8c-1.6-3.2-2.9-7.1-4.2-11c-1.6-4.5-2.9-9-3.9-13.6c-0.3-2.6-0.6-4.8-1-7.4
		c-0.6-3.9-1-8.1-1.6-12.3c0-2.3-0.3-4.2-0.3-6.5c-0.3-2.6-0.6-5.5-0.6-8.1c-0.3-3.9-1-8.1-1-12.3c0-1,0-1.6,0-2.6s-0.3-1.6,0.3-2.3
		c-1.3-2.6-0.3-5.5-0.6-8.1c0-0.3,0.3-0.6,0.6-1.3c-0.6-1.9-0.6-3.9-0.6-5.8c0-3.2,0.3-6.5,0.6-9.7c0-2.9,0.3-5.8,1-8.7
		c0.3-3.2,1-6.5,1.3-9.7c0.6-4.5,1.6-9,2.3-13.6c0.3-1.9,0.6-3.6,1-5.5c0-1.6,0.6-3.2,1-4.8c1-4.8,1.9-9.7,3.6-14.5
		c1.6-4.8,3.6-9.4,6.5-13.6c1.6-2.6,2.9-4.8,5.2-7.1c1.6-1.3,3.6-1.9,5.8-2.3c2.9,0,6.1-0.3,9,0.6c1.3,0.3,2.9,0.3,4.2,0.3
		c1.9,0.3,3.9,1,5.8,1c1.6,0.3,2.9,1.3,4.2,1.3c0.3,0,0.3,0,0.6,0c2.6,1.6,5.5,1.6,8.1,2.6c0.6,0.3,1.3,0,1.9,0
		c1,0.6,2.3,0.3,3.6,0.3c3.2-0.3,6.8-0.3,10-0.3c2.9,0,5.5,0,8.4,0c2.3,0,4.8,0.6,7.1,1c0.3,0,0.6,0,0.6,0c1.3,1.6,3.2,1,5.2,1.3
		c0.6,0,1.6,0,2.3,0.3c0.3,0.6,0.6,1,0.6,1.6c-0.3,0.6-1,1.3-1,2.3c-0.6,0.3-1,0.3-1.3,1c-0.6,1-1.6,2.3-2.9,1.9
		c0,0.6,0.6,0.3,0.6,1c-0.6,0.3-1.3,0.3-1.9,0.6c-2.3,2.6-7.1,6.8-8.7,6.8c-0.6,0.6-1.3,1-2.3,1.3c-1.6,1.3-3.9,1.6-5.8,1.9
		c-0.3,0-1,0.3-1,0.6c-0.6,0.3-1.3,0.6-1.9,0.6c-1.3,0-2.6,0.6-3.6,1.6c-0.6,0.3-1.3,0.6-1.9,0.6c-2.6,1-5.2,1.9-7.8,3.2
		c-1.6,0.6-3.2,1.6-5.2,2.6c-0.6,0.3-1.6,0.6-2.3,0.6c-1.3,0-2.3,0.6-3.2,1c-0.6,0-1,0.3-1,0.6c-0.3,1-0.6,1.6-1.6,1.9
		c0.3,1,0.3,1.9-0.3,2.9c-0.3,1-0.3,1.9-0.6,3.2c-0.6,2.3-1,4.8-1.3,7.1c-0.3,1.9-0.6,4.2-0.6,6.5c-0.6,0.6-0.6,1.6-0.6,2.6
		c0,1.9,0,3.6-0.3,5.5c0,0.3,0,0.6,0,1c0,1.3,0,2.6-0.6,3.9c0,0.3-0.3,0.6,0,1c0.3,1.3,0,2.6-0.3,3.9c-0.3,1-0.3,1.6,0,2.6
		c-0.3,2.3-0.3,4.8-0.3,7.1c-0.3,0.3-0.3,0.6-0.3,1c-1,1.3-0.6,2.9-0.6,4.5c0,1.3-0.3,2.6-0.3,3.9c0,1.9-0.3,3.6,0,4.8
		c-0.3,0.6-1,0-1.3,0.6c0,0,0,0.3,0.3,0.3c1.6,1.6,3.6,0.6,5.5,0.3c1.6,0,2.9-0.6,4.2-0.3c1.6-1,3.2-1,4.8-1c1.6-0.3,3.2-0.6,4.8-1
		c3.6-0.6,6.8-1.9,10.3-2.6c1.3,0,2.6-0.3,4.2-0.6c1.9-0.6,4.2-1,6.1-1.3c2.6-0.3,5.2-0.6,7.8-1c4.8-0.3,10-0.3,14.9,0
		c3.2,0.3,6.5,0.6,9.7,1c0.6,0,1.6,0,2.6,0c1,0.3,1.3,0.6,1.9,1.3c-0.3,1.3-0.3,2.3-1,3.2c-1.3,0.3-1.9,1.3-2.9,1.9
		c-0.3,0.6,0,1,0,1.6c-0.3,0.3,0,1.3-1,1.6c-0.6,0.3-1.3,0-1.9,0.6c-0.3,0.3,0,1-0.6,1.3c-0.3,0.3-1.3,0.3-1.9,1.3
		c-0.6,3.9-4.5,4.8-8.1,5.8c0,0-0.3,0-0.6,0l-0.3-0.3c-0.6,0.3-0.6,1-1.3,1.3c-1.6-0.3-3.2,1.3-5.2,0.6c-0.6,1.6-1.9,1.6-3.2,1.6
		s-2.3,0.6-3.9,1c-0.3-0.6-1-0.3-1.9-0.3c0.3-1,1.3-0.6,1.9-0.6c0.3-0.6-0.3-1.3-0.6-1.9c-0.3,0.3-0.6,1.3-1.3,1
		c-0.3,0.6-0.3,1.3-0.6,1.9c-1.3-0.3-0.3-1-0.6-1.3c-0.6-0.6-1,0.3-1.6,0.3c-0.3,0,0-0.6-0.3-1c-0.3,0.3-0.6,0.3-1.3,0.3
		c0,1.3-1.6,1.6-2.3,2.6c-1.3,0-2.3,0.3-3.6,0.6c-1.9,0.6-3.6,1-5.2,1.6c-0.6,0.3-1.3,0-1.9-0.6c-2.3,0.6-4.5-0.6-7.1,0
		c-0.3,0.3-1.6-0.3-2.3,0.3c-1,0-1-0.6-1.3-0.6c-0.6,0-0.6,0.6-1.3,0.6c-0.3,0.3-0.6,0-1.3-0.3c-0.6,0.3-1,1-1.9,0.3
		c0,0,0.3-0.3,0-0.6c0-0.3-0.6-0.3-1-0.6c-0.3,0.3-0.6,0.3-0.6,0.6c-1.6-0.3-2.9,0.6-4.5,0c-0.3,0-0.3-0.6-1-0.3c0,0.3-0.6,1-1,1.6
		c-0.6,0.3-1.6,0-1.9,0.6c0.3,0.6,0.6,0.3,1.3,0.6c0.6,1.3-0.3,2.9,0.3,4.2c0.3,0.3,1,0.3,1,1c0,2.6,0.3,4.8,0.6,5.8
		c0,0.6-0.6,1-0.3,1.6c1,1.3,0.6,2.6,0.3,4.2c1.3,1,1,2.3,1.3,3.6c-0.3,0.6-0.6,0.6-1,1.3c0,1.9,1.9,3.6,2.3,5.5
		c-0.6,0.3-1.3,0-1.9,0.3c0.3,0.6,0.6,0,1,0.3c0.3,0.6,1.3,1,1.6,1.6c-1,1.9,0.3,4.2-0.6,6.1c0.3,0.3,1,0.6,1,1.3
		c-1,0.3-0.6,1.3-1.6,1.9c0.3,1.3,1.3,2.6,0.6,3.9c1,0.3,1.9,1,2.9,1.6c-0.3,1,0,2.3-0.6,3.2c-0.3-1,0-2.3-1-2.9c-0.3,0-0.6-0.3-1,0
		c-0.3,0.3-0.3,0.6,0,0.6c1,0.6,1,1.9,1.6,2.6c0.6,0.6,0,1.6,0.3,2.3c0.6,0,0.3-0.6,0.6-1c1,1,1.3,1.9,1.9,3.2c-0.3,0.3-0.3,1,0,1.6
		c-0.6,1-1.3,0-1.9,0.3c0,1,0.6,0.6,0.6,0.6c0.6,1,0.3,1.6,1.3,1.9c0.3,0,0.3-0.6,0.6-1c0.3,0.6,0.6,1.3,1.3,1.6
		c-0.3,1.3,0.6,2.3-0.3,3.2c0.3,0.3,0.6,0,1,0c0.3-0.3,0-1.3,1-1.3c0.3,0,0,0.6,0.3,1c1.3,0.3,2.3,1.6,3.2,2.3c1.6,1,2.9,1,4.5,1
		c5.5,0,10.7-1,15.8-2.3s10.3-3.2,15.5-4.2c3.9-1,7.4-1.9,11-2.9c0.6-0.3,1.3-0.3,1.9-0.6c0.6-0.3,1.6-0.6,2.3,0
		c0.6-0.3,0-0.3,0.3-1c1.9-1,4.2-1.9,6.1-3.2c3.2-2.6,6.5-5.5,9.4-8.4c0.6-1,1-1.9,1.6-3.2c0.6,1,1.3,1.9,1.9,2.6
		c0.3,0.3,0.3,1,0,1.3c-0.6,0.6-0.6,1.3-1,2.3c0,1.6-1,2.9-1.9,3.9c-0.6,0.6-0.6,1.3-0.6,1.9c0.3,1-0.6,1.6-0.3,2.6
		c-0.6,0.6-1.3,1.6-0.3,2.6c-0.6,0.6-1.3,1.6-1.3,2.3c-1,0.3-1.9,0.6-2.6,1.3c0,0.3,0.3,0.6,0.3,1.3c0,0.3-0.6,1-0.6,1.6
		c-2.6,0.6-3.9,2.9-5.5,5.2c-0.6,1-1.9,1.6-2.9,2.3c-0.6,0.6-1,0.6-1.3,1.3c-1.9,0.6-1.9,0.6-2.9,0c1.3-1,1.6-2.6,3.2-2.6
		c0.3-0.6,0.6-1.3,1-1.6c-1.3-0.6-1.6,1-2.6,0.6c-0.3,0.3,0,1-0.3,1.3c-1,0-1.9,0-2.3,1c-0.6,0.3-0.6-0.3-1,0c0,0.6-0.3,1.3-1.3,1.3
		c0,0-0.3-0.3-0.6-0.3c0,1,0,1-0.3,1.3c-1,0-1.6,0-2.3,0.3c0,1,1.3,0.6,1.6,1.3c0.3-0.6,0.3-1.3,0.6-1.6c0,0.6,0,1,0.6,1.3
		c0.3-0.6,0-1.6,0.3-2.3C1177,253.9,1177.3,254.5,1178,254.5z M1077.2,118.9c-0.3-0.6-0.6-0.6-1-0.3c0.3,0.6-0.3,1.3-0.3,1.9
		c0.3,0.3,0.3,0.3,1,0C1076.2,119.8,1077.2,119.2,1077.2,118.9z M1079.4,221.6c0.3,0,1,0,1.6,0c-0.6-0.6-0.3-1-0.6-1.6
		C1079.4,220,1079.4,220.9,1079.4,221.6z M1089.1,161.2c0.6-0.3,1-0.6,1-1.6c-0.3-0.3-0.6-0.3-1-0.3
		C1088.5,159.9,1088.8,160.5,1089.1,161.2z M1100.8,228c-0.3-0.6-0.6-1.3-1.3-1.9c-0.3,0.3-0.6,1-0.3,1.6
		C1099.5,228,1100.1,228,1100.8,228z M1102.4,236.1c0.3,0,1,0.6,1.6,0.3c0-0.3,0-0.6-0.3-1c-0.6,0.3-1.3-0.6-2.3-0.6
		C1101.7,235.1,1102.1,235.5,1102.4,236.1z M1119.8,223.5c-0.3,0-0.6,0-1,0c-0.3-1.3,0-2.3,0.3-3.2
		C1119.2,221.3,1119.5,222.5,1119.8,223.5z M1133.7,263.9c0.3,0.6,0.6,1.3,1.6,0.6c0-0.3,0-0.6-0.3-1.3
		C1134.4,263.2,1134,263.6,1133.7,263.9z M1135.7,178.9c1.3,0.6,2.3,0.6,3.6-0.3C1137.6,177.3,1136.3,177.3,1135.7,178.9z
		 M1141.8,265.2c0.3-0.3,0.6-0.6,1-1c-0.3-0.3-0.3-1-0.6-1.3c-0.6,0.3-0.6,1-1,1.3c-0.3,0-0.3,0-0.6-0.3c0-0.6,0.3-1,0-1.6
		c-0.6,0.6-1.9-0.3-2.6,0.6c0.3,0.6,1,0.3,1,1c0.3,0-0.3,0.3,0,0.6C1139.9,264.9,1140.8,264.9,1141.8,265.2z M1141.8,180.2
		c0.3-0.6,0.6-1.3,1.3-1c0.3-0.3,0-0.6,0.3-0.6c0,0,0.3,0,0.6,0.3c0-1,1-1,1.3-1.6c-1-1.3-1,0.3-1.6,0.3c-0.6,0-0.6-0.3-1.3-0.3
		c-0.3,0-1-0.3-1.3,0.3C1142.1,178,1141.5,178.9,1141.8,180.2z M1148.2,176.7c-0.3,0-1,0-1.6-0.3c-0.3,0-0.6,0.3-0.6,0.6
		c0.6,0,0.3,0.6,0.6,1c0.3,0,0.6,0,1.3,0C1148.2,177.6,1148.6,177.3,1148.2,176.7z M1154.1,260.3c0,1.3,0.3,1.3,1.6,0.6
		C1155.4,259.7,1154.7,260.7,1154.1,260.3z M1176,167.6c0.3,0.3,0.3,0.6,0.3,1.3c0.3,0.3,0.6,0.3,1.3,0.6c0-0.3,0.3-0.3,0.6-0.6
		c-0.3-0.3-0.6-0.3-1-0.6c0,0,0.3-0.3,0-1C1177,167,1176.7,167.3,1176,167.6z"/>
</g>
</svg>
