<?xml version="1.0" encoding="utf-8"?>
<!-- Generator: Adobe Illustrator 19.2.1, SVG Export Plug-In . SVG Version: 6.00 Build 0)  -->
<svg version="1.1" id="second_text" xmlns="http://www.w3.org/2000/svg" xmlns:xlink="http://www.w3.org/1999/xlink" x="0px" y="0px"
	 viewBox="0 0 1109 210.8" style="enable-background:new 0 0 1109 210.8;" xml:space="preserve">
<style type="text/css">
	.st0 {
    fill:rgba(255, 255, 255, 0);
    stroke: #41121F;
    stroke-width: 7px;
    opacity: 0;
  }

  #n, #e, #x, #t, #p, #a, #g, #e2 {
    stroke-dasharray: 2000;
    stroke-dashoffset: 0;
    animation: dash 3s linear forwards;
  }

  #n {
    animation-delay: 0.5s;
  }

  #e {
    animation-delay: 1s;
  }

  #x {
    animation-delay: 1.5s;
  }

  #t {
    animation-delay: 2s;
  }

  #p {
    animation-delay: 2.5s;
  }

  #a {
    animation-delay: 3s;
  }

  #g {
    animation-delay: 3.5s;
  }

  #e2 {
    animation-delay: 4s;
  }

  @keyframes dash {
			0% {
				stroke-dashoffset: 2000;
			}
			50% {
				opacity: 1;
				stroke-dashoffset: 0;
				fill:rgba(255, 255, 255, 0);
			}
			100% {
			opacity: 1;
			stroke: rbga(66, 17, 31, 1);
			fill: rgba(0, 0, 0, 0);
			}
	}

</style>
<g>

	<path id="n" class="st0" d="M131.8,128.2c0.3,0.3,0.3,0.8,0,1.3c-0.5,1.6-0.8,3.2-0.8,5c0,0.8-0.3,1.6-0.5,2.4c0.8,1.3,0.3,2.4,0,3.4
		c0,1.1,0,2.4,0,3.4c0,1.8,0,3.4-0.5,5c-0.3,0.8,0,1.3,0,2.1c-0.3,2.1,0,4,0,6.3c0,1.3-0.3,2.9-0.3,4.2c0.3,1.3,0.5,2.4,0.5,3.7
		c-0.5,2.1,0,4.2,0,6.6c-0.3,0.5,0,1.1,0,1.6c0.5,1.3,0,2.4,0.3,3.4c0.3,1.3,0.5,2.4,0,3.4c0,0.3,0,0.8,0.3,0.8
		c0.8,2.9,0,5.3-1.3,7.4c-2.1,1.6-4.2,1.8-6.6,2.9c-1.1-0.3-2.4,1.1-3.4,0.3c-0.5,0.3-0.3,0.5-0.3,1.1c-0.5,0-1.1-0.3-1.3-0.3
		c-0.8-0.5-0.3-1.1-0.5-1.6c-0.5,0.5-0.5,0.5-0.5,1.3c-1.6,0.3-3.2,0.5-4.8-0.3c-1.1-0.5-1.8-1.6-2.6-2.4c-1.8-2.9-3.4-6.1-4.2-9.5
		c0-0.8,0-1.8,0-2.6c0-1.3,0-2.6-0.3-4c-0.5-4.2-0.3-8.4-0.3-12.7c0-0.8-0.3-1.8,0.3-2.6c-1.1-1.3,0.3-2.9-0.3-4.2
		c0.3-0.8,0.5-1.6,0-2.4c-0.3-1.1,0-2.1,0-3.2c-0.3-2.9,0-5.8,0-8.4c0-0.5,0-1.1,0.3-1.3c-0.3-1.6-0.3-3.2,0-5.3
		c-0.3-1.6,0-3.4,0.5-5.5c-0.8-2.4-0.3-4.8,0-7.1c0-4.2,0-8.4,0-12.7c0.3-2.6-0.3-5.3,0.3-7.9c0.3-0.5-0.3-1.3-0.3-1.8
		c0-1.3,0.3-2.6,0-4c0-2.6-0.3-5-0.3-7.7c0-1.8-0.3-3.4,0-5c0-0.8-0.3-1.3-0.3-2.1c0.3-2.1,0-4,0-6.3c0.5,0.3,0.3,0.8,0.8,0.8
		c0.3-0.3,0.3-0.5,0-0.8c-1.1-1.3-1.1-2.6-1.1-4c-0.3-7.4-0.8-14.5-2.1-21.9c-0.5-3.7-1.6-7.1-3.2-10.6c-1.1-2.4-2.4-4.8-4.2-6.6
		c-0.8-1.1-2.1-1.3-3.4-1.6c-1.3-0.5-2.6-0.5-4.2-0.5c0,0,0,0,0-0.3c-0.3,0.3-0.3,0.5-0.3,0.5c-1.3,0.3-2.4,1.1-3.7,1.1
		c-1.1,0-2.1,0.5-3.2,1.1c-1.1,0.5-2.1,0.8-3.2,1.3c-0.8,0.5-1.6,1.1-2.1,1.8c-0.8,0.5-1.3,1.1-2.1,1.6c-0.3,0.5-0.3,1.1-0.5,1.3
		c-0.5,0.8-1.1,1.3-1.6,1.6c-1.1,1.6-1.3,3.2-2.6,4.5c0.3,0.5-0.3,0.8-0.5,1.1c-0.5,0.8-1.1,1.6-1.3,2.6c-0.3,0.8-0.8,1.6-1.1,2.4
		c-0.5,0.3-0.5,0.8-0.5,1.3c0,2.1-0.8,3.7-1.1,5.5c0,0.5-0.5,0.8-0.5,1.3c0,0.3,0.3,0.8,0.3,1.3c-0.8,1.1-0.3,2.4-0.3,3.7
		c0.3,1.6-0.3,3.2-0.3,4.8c0,1.8-0.5,3.7-1.1,5.5c0,0.3,0.3,0.5,0,1.1c-1.1,2.4-0.5,4.8-0.8,7.1c-0.3,1.6-0.3,3.2,0,5
		c0,0.8,0,1.8-0.3,2.9c-0.5,2.4-0.5,5-1.1,7.4c-0.3,1.8-0.3,3.7-0.3,5.5c-0.3,1.6,0,3.4,0,5c-0.3,3.4,0.3,6.9,0,10
		c-0.3,1.1-0.3,2.1,0,3.2c0.3,0.8,0,1.8,0,2.6c0,3.4,0,6.9,0,10.3c-0.3,2.1,0,4.2,0,6.3s0,4.2,0,6.3c-0.3,1.3,0,2.4,0,3.4
		c-0.3,1.8,0.3,3.4,0,5.3c-0.8,0.3-1.3,0.5-1.6,1.3c0.3,1.6-0.3,3.2,0,5c-1.3,3.7-0.3,7.7-0.3,11.4c0,0.5-0.3,0.8-0.3,1.3
		c0.3,1.6,0,3.4,0,5.3s0,3.7,0,5.5c0,0.8,0,1.6-0.5,2.4c-0.3,1.6,0,2.9-0.3,4.5c-0.8,0.3-1.6,0.8-1.8,1.6c-1.3,0.3-2.4,0.3-3.2,0.5
		c-0.5,0.3-0.5,0.8-0.8,1.1c-0.5,0-0.3-0.8-0.8-0.8c-0.5,0.3-0.3,0.8-0.3,1.1c-1.3,0-2.1,1.3-3.4,1.3c0-0.3-0.3-0.3-0.3-0.3
		c-1.6,0.5-3.2,1.3-4.8,1.8c-0.3,0.3-0.8,0.3-1.1,0c-2.1-0.5-3.7-1.8-5-3.4c-0.5-0.5-1.1-1.6-1.8-2.1c-0.8-0.3-1.3,0.3-1.8,0.3
		c-0.8-0.5-0.5-1.8-1.1-2.4c0.5-0.3,0.5,0.3,1.1,0.3c0.5-0.5,0-1.1-0.5-1.3c0.3-1.1-0.3-2.1,0.3-3.2c-0.5-0.3-0.8-0.5-0.5-1.1
		c-0.3-0.3-0.8,0.5-1.1,0c-0.5-0.8-0.3-1.6-0.5-2.1c0.5-0.5,1.3-0.8,1.6-1.6c-0.5-0.8-1.1-0.3-1.6-0.3c0.3-0.5,0.8-0.5,1.1-1.1
		c0-1.1-0.8-2.1-0.3-2.9c0-0.8-0.8-0.8-0.3-1.6c0.3-0.3-0.3-0.5-0.5-0.3c-0.5-1.1-0.5-1.8,0-2.9c-1.3-1.8-2.9-33.3-1.6-35.4
		c-0.5-0.5-0.3-1.1-0.3-1.6c-0.3-0.3-0.5-0.3-0.8-0.5c0.3-0.3,0.8-0.3,0.8-0.3c0.5-2.1,0-4.2,0.5-6.3c-0.5-1.6,0-2.9-0.3-4.8
		c-0.3-0.3-0.8-1.1-1.1-1.6c-0.5-1.1,0.5-1.3,0.8-2.1c-0.5-0.5-0.5,0-0.8,0c-0.3-0.3,0.3-0.5,0.5-1.1c0-0.3-0.3-0.5-0.5-1.1
		c0-0.3,0.3-0.3,0.3-0.5c-0.3-0.8-0.3-1.8-0.3-2.9c0.3-1.3,0.3-2.4,0.3-3.7c0-1.3,0.3-2.9,0-4.2c0-2.1,0-4.2,0.3-6.3
		c0.3-1.3,0.3-2.9,0.5-4.2c0.3-1.6,0.3-2.9,0.3-4.2c0-1.6,0.3-3.2,0.3-4.5c0-1.1,0-1.8,0-2.6c0-0.5,0.3-1.1,0.8-1.3
		c0.8,0,1.6,0.5,2.4,0.3c-0.3-0.5-0.3-1.1-0.8-1.3c1.3-0.3,0.3-1.8,1.1-2.4c-0.5-0.5-0.3-1.3-0.8-1.8c-0.8-0.5-1.3,0.3-2.1,0.3
		c0.3,0.8,0.5,1.6,0.5,2.6c0,0-0.3,0-0.5,0.3c-0.3,0-0.5-2.9,0-4c0-0.5-0.3-0.8-0.3-1.3c0.3-0.3,0.5-0.5,0.8-0.8
		c0-0.5-0.3-0.8,0-1.1c0.3-0.8,1.3-0.5,1.3-1.3c0.3-0.3,0.3-0.3,0-0.5c-0.5-0.3-0.8,0.5-1.3,0.8c-0.5-0.3-0.5-0.5-0.3-1.1
		c0.5,0,1.6,0,1.1-1.1c-0.5,0-0.8,0.3-1.3,0.5c0-1.1,0.3-2.4,0.3-3.4c0-0.3,0.3-0.3,0.5-0.3c0.5,0.3,0.3,0.8,0.5,1.3
		c0.3-0.5,0.3-1.3,0.3-1.8c-0.5-0.5-0.8-0.8-1.3-0.3c0-0.8-0.5-1.6,0.5-2.1c-0.8-0.5-0.8-0.5,0-1.8c0-0.3-0.5-0.3-0.5-0.5
		s0-0.5,0-0.8c0.3-0.5,0.5,0,0.8-0.3c0-0.5-0.5-0.3-0.8-0.8c0.3-0.5-0.3-1.3,0-2.1c0.3-0.3,0.5-0.5,0.8-0.5c0-0.3-0.5-0.3-0.5-0.8
		c0-0.3,0.5,0,0.5-0.3c0.3-0.3,0.3-0.8,0.3-1.3c0-0.3-0.3-0.3-0.3-0.3c0-7.9,2.4-15.3,3.7-22.7c0.5-0.3,0.8-0.8,1.1-1.1
		c0.3-0.3,0.8-0.5,1.1-0.5c2.1,0,4.2-0.5,6.3,0.3c0.3,0.3,0.8,0.5,1.3,0.5c0.5,0.3,1.1,0.5,1.3,1.3c1.1,0.3,1.6-0.3,2.4-0.8
		c2.6-2.6,5.5-4.8,8.7-6.6c3.2-1.6,6.3-2.9,9.8-4c1.1-0.5,2.4-0.5,3.7-0.8c3.7-0.8,7.4-0.8,10.8-0.8c2.9,0,5.5-0.3,8.2,0.3
		c0.3,0,0.5,0,0.8,0.3c0.3,0,0.3,0.5,0.5,0.5c0.5,0.3,0.8,0,0.8-0.5c1.3,0.3,2.6,0.3,3.7,0.5c1.6,0.3,3.2,0.5,4.8,1.1
		c3.2,1.1,6.3,2.1,9.2,3.7c1.1,0.5,1.8,1.3,2.9,1.6c0.3,0.3,0.3,0.8,0.5,1.1c1.8,0.8,3.2,2.4,4.8,3.4c2.1,1.8,3.4,4.2,4.8,6.3
		c0.8,0.8,1.1,1.8,1.6,2.9c1.1,2.1,1.8,4.5,2.9,6.6c0.3,0.5,0.3,1.1,0.5,1.6c0.5,2.1,1.3,4,1.3,6.1c0,0.8,0.5,1.6,0.5,2.4
		c1.3,5,1.8,10,2.1,15c0.3,2.4,0.5,4.8,0.5,6.9c0,0.5,0,1.1,0,1.6c-0.5,1.6-0.5,3.4-0.3,5c0.3,0.8,0.3,1.6-0.3,2.1
		c0,0.5,0.5,0.8,0.5,1.3c0,0.5-0.5,0.5-0.5,1.3c0.3,0.3,0.5,1.1,0.5,1.8c-0.5,0.8-0.3,1.6,0,2.6c0.5,1.1,0.8,2.1,0.5,3.4
		c0,1.3-0.8,2.6,0,3.7c-0.5,2.1,0,4,0,5.8c0,0.5,0,0.8,0,1.1s0.3,0.5,0.3,0.8c0,0.5-0.3,0.5-0.3,0.8c1.3,2.6,1.8,5.3,1.8,8.2
		c-0.8,1.3-1.1,2.6-0.8,3.4c0,0.5-0.5,0.5-0.5,1.1c0.8,1.3,0.3,2.9,0.3,4.5C131.5,127.2,131.5,127.7,131.8,128.2z M31.4,110.3
		c-0.3,0.8-0.8,1.3-1.8,1.3c0.8,0.8,1.6,0.3,2.1-0.3C32,111.1,32,110.8,31.4,110.3z M31.2,73.3c-0.3-0.5-0.3-0.8-0.8-1.1
		c0,0.5-0.8,0.8-0.5,1.3C30.4,73.6,30.9,73.6,31.2,73.3z M32.5,61.7c0-0.5-0.5-0.5-1.1-0.5c-0.3,0.3-0.8,0.3-0.8,0.8
		C31.2,61.9,32,61.9,32.5,61.7z M43.6,185.5c0.3-0.8,0.3-1.3,0-1.8c-0.3,0-0.5,0-0.8,0.3C43.6,184.2,42.8,185.2,43.6,185.5z
		 M45.7,191.8c-0.8,0-1.3,0-1.8,0.5c-0.3,0.5,0.3,0.5,0.3,1.1c0,0.3-0.5,0-0.3,0.5c0.5,0,0.5-0.5,0.8-0.8c0.5,0.3,0.8,0,1.3-0.3
		C46.2,192.4,46.2,192.1,45.7,191.8z M48.3,190.5c-0.3-0.3-0.5-0.3-0.8-0.5c-0.3-0.3,0-0.5-0.3-1.1c-1.1,0-1.3-1.3-2.6-1.3
		c0.8,1.1,0.3,2.4,1.1,3.2C46.5,190.8,47.5,191.3,48.3,190.5z M55.5,186.6c-0.5-0.3-1.1,0-1.3,0.3c-0.8-0.5-1.3-1.1-2.1-1.3
		c0.3,0,0.3-0.3,0-0.5c-0.5,0.3-0.8-0.5-1.3-0.5c-0.3,0.3-0.5,0.3-1.1,0.5c-0.3-0.3,0-0.8-0.5-0.8c-0.5,0-1.3-0.3-1.8,0.5
		c0.3,0.8,0.8,1.6,0.8,2.4c0,0.5-0.5,0-0.5,0.5c0,0.3,0.3,0.5,0.5,0.5c0.5,0.3,0.8,0.3,1.3,0.3c0.3,0.8,0.8,0.8,1.6,0.5
		c0.8-0.8-0.3-1.1,0-1.8c0.5,0.3,0.8,0.5,1.6,0.5c-1.1,0.8-0.3,1.1-0.3,1.8c0.3,0-0.3,0.3,0,0.5c0.8-0.5,1.6-0.5,2.4-1.6
		c-0.5,0-0.8,0.3-1.1,0C53.9,187.4,54.9,187.1,55.5,186.6z M51,39c0.3,0.5,0.5,0.8,0.8,1.1c0.5-0.3,0.8-0.3,0.8-1.1
		C52,39.2,51.8,38.5,51,39z M56.2,178.9c-0.3-0.5-0.5-0.8-0.5-1.3c-0.3-0.3,0.3-0.3,0-0.5c0-0.3-0.3-0.3-0.5,0c0,0.5,0,1.1,0,1.6
		C55.5,178.9,55.7,178.9,56.2,178.9z M82.4,26.8c-0.5-0.3-1.1,0.3-1.6,0.3c0,0.3,0,0.5,0,0.5c0.5,0.3,1.1,0,1.6,0
		C82.6,27.4,82.6,27.1,82.4,26.8z M107.5,148.5c-0.3-0.3-0.3-0.5-0.8-0.5c-0.5,0.5-1.1,1.1-0.5,2.1
		C106.9,149.6,106.9,149.1,107.5,148.5z M106.1,139c0.3,0.5,0.3,0.5,0.5,1.1c0.5-0.5,0.8-0.5,1.3-0.5c0-0.5-0.5-0.5-0.8-0.8
		c0-0.5,0.5-0.5,0.3-1.1c-0.3,0-0.8-0.3-1.3,0.3C106.7,138.2,105.9,138.8,106.1,139z M106.9,93.1c1.1-1.3,1.1-1.6,0.3-1.8
		C106.7,91.8,106.4,92.3,106.9,93.1z M107.2,168.1c0.5,0,0.8-0.3,1.1-1.1c-0.3-0.5-0.8-0.5-1.3-0.5
		C106.7,167.3,106.4,167.8,107.2,168.1z M110.6,177.8c-0.5,0-0.8-0.5-1.3-0.8c-0.3,0-0.8,0-1.1,0.3c-0.3,0.3,0,0.8-0.3,1.1
		c0,0.5-0.5,0.5-0.5,1.1c0.3,0.5,0.8,0.3,1.1,0.3c0.3-0.3,0.5-0.5,0.3-1.1c0.5-0.5,1.1,0,1.3,0.3
		C110.4,178.4,110.6,178.4,110.6,177.8z M113,61.7c-1.1,0-1.8,0.3-2.6,0.3c-0.5,0-0.8,0.5-0.5,1.1c0.5,0,0.8-0.8,1.3-1.1
		C111.7,62.2,112.5,62.2,113,61.7z M115.6,66.2c-0.3-0.5-0.5,0-0.8,0c-0.5-0.3-0.3-0.8-0.8-0.8c-0.5,0.5-0.3,1.3,0,2.1
		C114.6,67,115.6,67,115.6,66.2z M122,186.3c-0.5-0.5-1.3-0.8-2.1-1.3c-0.3,0.8,0.5,1.3,0.3,2.1c-0.3-0.3-0.8-0.3-1.1-0.3
		c-0.8-0.5-0.3-1.6-1.3-1.6c-0.3,0.3-0.8,0.8-0.3,1.3c0,0,0.3,0,0.5,0.3c-0.5,1.1-1.1,0-1.6,0c-0.3,0.5-0.5,1.1,0,1.6
		c0.5,0,0.8,0.3,1.3,0.3c0.3-0.3-0.3-0.8,0.3-1.1c0.8,0,1.6,0.5,2.4,0.8C120.7,187.4,122.2,187.6,122,186.3z"/>

  <path id="e" class="st0" d="M229.7,183.7c0.3,0,0.3-0.5,0.5-0.5c0.3,0,0,0.5,0.3,0.5c-2.1,1.8-4,3.4-6.6,4c0.3-0.3,0.3-0.5,0.5-1.1
		c-0.8-0.3-1.6-0.3-2.1-0.5c0,0.5,0.3,0.5,0.5,0.8c0,0.3-0.5,0.5-0.3,0.8c0.5,0,0.3-0.5,0.5-0.3c0.5,0,0.5,0,0.8,0.3
		c-0.3,0.3-0.5,0.5-1.1,0.5c-1.3,0.3-2.9,0.5-4.2,1.1c-0.3,0.3-1.1,0.3-1.6,0c-0.8,0.8-2.6,1.3-3.4,0.8c-0.3,0.3-0.5,0.8-1.1,0.5
		c-0.5-0.8-0.5-0.8-1.3-0.8c-0.3,0,0,0.3,0,0.5c0,0,0,0.3,0.3,0.3c-0.8,1.1-1.6,0-2.1,0.5c-0.8,0.3-1.3,0.8-1.8,0
		c-0.8-0.3-0.5,0.5-1.1,0.5c-1.1-0.3-1.8,0.5-2.9,0.5c-0.3-1.1-0.5-1.3-1.6-1.6c0.3,0.8,0.8,1.1,0.8,1.6c-1.3,0.5-2.6,1.1-4,0.5
		c-0.8,0.3-1.6,0.8-2.4,0c-1.1,0.8-2.1,0-2.9-0.3c-0.3-0.3-0.5-0.5-0.8-1.1c-0.3-0.3-0.5,0-0.8,0c-0.3,0.3,0.3,0.5,0.3,1.1
		c-0.3,0.5-0.5,0.5-0.8,0.5c-0.5,0-0.3-0.5-0.5-0.8c-0.5-0.8-1.3,0.3-2.1-0.3c-0.5,0.3-0.5,0.8-1.1,0.8c-0.3,0-0.5-0.8-1.1-0.8
		c-0.3,0-0.5,0.5-1.3,0c0-0.3-0.3-1.1-0.8-1.1c-0.3,0.5,0,0.8-0.3,1.1c-1.8,0-4-0.3-5.8-1.1c-0.3,0-0.5,0-0.5,0.3
		c-0.5-0.3-1.3-0.3-1.8-0.3c-0.3-0.5-0.3-0.8-0.5-1.1c-0.5-0.3-0.8,0.3-1.1,0.3c-0.8,0-1.3-0.3-1.3-1.3c-0.5,0.8-0.8,0.5-1.3,0.3
		c-2.4-1.1-4.8-2.4-7.1-4c-1.3-1.1-2.6-2.4-4-3.7c-1.3-1.3-2.4-2.6-3.4-4c-1.3-1.8-2.4-3.4-3.4-5.5c-1.3-2.6-2.4-5.8-3.4-9
		c-1.3-3.7-2.4-7.4-3.2-11.1c-0.3-2.1-0.5-4-0.8-6.1c-0.5-3.2-0.8-6.6-1.3-10c0-1.8-0.3-3.4-0.3-5.3c-0.3-2.1-0.5-4.5-0.5-6.6
		c-0.3-3.2-0.8-6.6-0.8-10c0-0.8,0-1.3,0-2.1s-0.3-1.3,0.3-1.8c-1.1-2.1-0.3-4.5-0.5-6.6c0-0.3,0.3-0.5,0.5-1.1
		c-0.5-1.6-0.5-3.2-0.5-4.8c0-2.6,0.3-5.3,0.5-7.9c0-2.4,0.3-4.8,0.8-7.1c0.3-2.6,0.8-5.3,1.1-7.9c0.5-3.7,1.3-7.4,1.8-11.1
		c0.3-1.6,0.5-2.9,0.8-4.5c0-1.3,0.5-2.6,0.8-4c0.8-4,1.6-7.9,2.9-11.9c1.3-4,2.9-7.7,5.3-11.1c1.3-2.1,2.4-4,4.2-5.8
		c1.3-1.1,2.9-1.6,4.8-1.8c2.4,0,5-0.3,7.4,0.5c1.1,0.3,2.4,0.3,3.4,0.3c1.6,0.3,3.2,0.8,4.8,0.8c1.3,0.3,2.4,1.1,3.4,1.1
		c0.3,0,0.3,0,0.5,0c2.1,1.3,4.5,1.3,6.6,2.1c0.5,0.3,1.1,0,1.6,0c0.8,0.5,1.8,0.3,2.9,0.3c2.6-0.3,5.5-0.3,8.2-0.3
		c2.4,0,4.5,0,6.9,0c1.8,0,4,0.5,5.8,0.8c0.3,0,0.5,0,0.5,0c1.1,1.3,2.6,0.8,4.2,1.1c0.5,0,1.3,0,1.8,0.3c0.3,0.5,0.5,0.8,0.5,1.3
		c-0.3,0.5-0.8,1.1-0.8,1.8c-0.5,0.3-0.8,0.3-1.1,0.8c-0.5,0.8-1.3,1.8-2.4,1.6c0,0.5,0.5,0.3,0.5,0.8c-0.5,0.3-1.1,0.3-1.6,0.5
		c-1.8,2.1-5.8,5.5-7.1,5.5c-0.5,0.5-1.1,0.8-1.8,1.1c-1.3,1.1-3.2,1.3-4.8,1.6c-0.3,0-0.8,0.3-0.8,0.5c-0.5,0.3-1.1,0.5-1.6,0.5
		c-1.1,0-2.1,0.5-2.9,1.3c-0.5,0.3-1.1,0.5-1.6,0.5c-2.1,0.8-4.2,1.6-6.3,2.6c-1.3,0.5-2.6,1.3-4.2,2.1c-0.5,0.3-1.3,0.5-1.8,0.5
		c-1.1,0-1.8,0.5-2.6,0.8c-0.5,0-0.8,0.3-0.8,0.5c-0.3,0.8-0.5,1.3-1.3,1.6c0.3,0.8,0.3,1.6-0.3,2.4c-0.3,0.8-0.3,1.6-0.5,2.6
		c-0.5,1.8-0.8,4-1.1,5.8c-0.3,1.6-0.5,3.4-0.5,5.3c-0.5,0.5-0.5,1.3-0.5,2.1c0,1.6,0,2.9-0.3,4.5c0,0.3,0,0.5,0,0.8
		c0,1.1,0,2.1-0.5,3.2c0,0.3-0.3,0.5,0,0.8c0.3,1.1,0,2.1-0.3,3.2c-0.3,0.8-0.3,1.3,0,2.1c-0.3,1.8-0.3,4-0.3,5.8
		c-0.3,0.3-0.3,0.5-0.3,0.8c-0.8,1.1-0.5,2.4-0.5,3.7c0,1.1-0.3,2.1-0.3,3.2c0,1.6-0.3,2.9,0,4c-0.3,0.5-0.8,0-1.1,0.5
		c0,0,0,0.3,0.3,0.3c1.3,1.3,2.9,0.5,4.5,0.3c1.3,0,2.4-0.5,3.4-0.3c1.3-0.8,2.6-0.8,4-0.8c1.3-0.3,2.6-0.5,4-0.8
		c2.9-0.5,5.5-1.6,8.4-2.1c1.1,0,2.1-0.3,3.4-0.5c1.6-0.5,3.4-0.8,5-1.1c2.1-0.3,4.2-0.5,6.3-0.8c4-0.3,8.2-0.3,12.1,0
		c2.6,0.3,5.3,0.5,7.9,0.8c0.5,0,1.3,0,2.1,0c0.8,0.3,1.1,0.5,1.6,1.1c-0.3,1.1-0.3,1.8-0.8,2.6c-1.1,0.3-1.6,1.1-2.4,1.6
		c-0.3,0.5,0,0.8,0,1.3c-0.3,0.3,0,1.1-0.8,1.3c-0.5,0.3-1.1,0-1.6,0.5c-0.3,0.3,0,0.8-0.5,1.1c-0.3,0.3-1.1,0.3-1.6,1.1
		c-0.5,3.2-3.7,4-6.6,4.8c0,0-0.3,0-0.5,0l-0.3-0.3c-0.5,0.3-0.5,0.8-1.1,1.1c-1.3-0.3-2.6,1.1-4.2,0.5c-0.5,1.3-1.6,1.3-2.6,1.3
		s-1.8,0.5-3.2,0.8c-0.3-0.5-0.8-0.3-1.6-0.3c0.3-0.8,1.1-0.5,1.6-0.5c0.3-0.5-0.3-1.1-0.5-1.6c-0.3,0.3-0.5,1.1-1.1,0.8
		c-0.3,0.5-0.3,1.1-0.5,1.6c-1.1-0.3-0.3-0.8-0.5-1.1c-0.5-0.5-0.8,0.3-1.3,0.3c-0.3,0,0-0.5-0.3-0.8c-0.3,0.3-0.5,0.3-1.1,0.3
		c0,1.1-1.3,1.3-1.8,2.1c-1.1,0-1.8,0.3-2.9,0.5c-1.6,0.5-2.9,0.8-4.2,1.3c-0.5,0.3-1.1,0-1.6-0.5c-1.8,0.5-3.7-0.5-5.8,0
		c-0.3,0.3-1.3-0.3-1.8,0.3c-0.8,0-0.8-0.5-1.1-0.5c-0.5,0-0.5,0.5-1.1,0.5c-0.3,0.3-0.5,0-1.1-0.3c-0.5,0.3-0.8,0.8-1.6,0.3
		c0,0,0.3-0.3,0-0.5c0-0.3-0.5-0.3-0.8-0.5c-0.3,0.3-0.5,0.3-0.5,0.5c-1.3-0.3-2.4,0.5-3.7,0c-0.3,0-0.3-0.5-0.8-0.3
		c0,0.3-0.5,0.8-0.8,1.3c-0.5,0.3-1.3,0-1.6,0.5c0.3,0.5,0.5,0.3,1.1,0.5c0.5,1.1-0.3,2.4,0.3,3.4c0.3,0.3,0.8,0.3,0.8,0.8
		c0,2.1,0.3,4,0.5,4.8c0,0.5-0.5,0.8-0.3,1.3c0.8,1.1,0.5,2.1,0.3,3.4c1.1,0.8,0.8,1.8,1.1,2.9c-0.3,0.5-0.5,0.5-0.8,1.1
		c0,1.6,1.6,2.9,1.8,4.5c-0.5,0.3-1.1,0-1.6,0.3c0.3,0.5,0.5,0,0.8,0.3c0.3,0.5,1.1,0.8,1.3,1.3c-0.8,1.6,0.3,3.4-0.5,5
		c0.3,0.3,0.8,0.5,0.8,1.1c-0.8,0.3-0.5,1.1-1.3,1.6c0.3,1.1,1.1,2.1,0.5,3.2c0.8,0.3,1.6,0.8,2.4,1.3c-0.3,0.8,0,1.8-0.5,2.6
		c-0.3-0.8,0-1.8-0.8-2.4c-0.3,0-0.5-0.3-0.8,0c-0.3,0.3-0.3,0.5,0,0.5c0.8,0.5,0.8,1.6,1.3,2.1c0.5,0.5,0,1.3,0.3,1.8
		c0.5,0,0.3-0.5,0.5-0.8c0.8,0.8,1.1,1.6,1.6,2.6c-0.3,0.3-0.3,0.8,0,1.3c-0.5,0.8-1.1,0-1.6,0.3c0,0.8,0.5,0.5,0.5,0.5
		c0.5,0.8,0.3,1.3,1.1,1.6c0.3,0,0.3-0.5,0.5-0.8c0.3,0.5,0.5,1.1,1.1,1.3c-0.3,1.1,0.5,1.8-0.3,2.6c0.3,0.3,0.5,0,0.8,0
		c0.3-0.3,0-1.1,0.8-1.1c0.3,0,0,0.5,0.3,0.8c1.1,0.3,1.8,1.3,2.6,1.8c1.3,0.8,2.4,0.8,3.7,0.8c4.5,0,8.7-0.8,12.9-1.8
		c4.2-1.1,8.4-2.6,12.7-3.4c3.2-0.8,6.1-1.6,9-2.4c0.5-0.3,1.1-0.3,1.6-0.5c0.5-0.3,1.3-0.5,1.8,0c0.5-0.3,0-0.3,0.3-0.8
		c1.6-0.8,3.4-1.6,5-2.6c2.6-2.1,5.3-4.5,7.7-6.9c0.5-0.8,0.8-1.6,1.3-2.6c0.5,0.8,1.1,1.6,1.6,2.1c0.3,0.3,0.3,0.8,0,1.1
		c-0.5,0.5-0.5,1.1-0.8,1.8c0,1.3-0.8,2.4-1.6,3.2c-0.5,0.5-0.5,1.1-0.5,1.6c0.3,0.8-0.5,1.3-0.3,2.1c-0.5,0.5-1.1,1.3-0.3,2.1
		c-0.5,0.5-1.1,1.3-1.1,1.8c-0.8,0.3-1.6,0.5-2.1,1.1c0,0.3,0.3,0.5,0.3,1.1c0,0.3-0.5,0.8-0.5,1.3c-2.1,0.5-3.2,2.4-4.5,4.2
		c-0.5,0.8-1.6,1.3-2.4,1.8c-0.5,0.5-0.8,0.5-1.1,1.1c-1.6,0.5-1.6,0.5-2.4,0c1.1-0.8,1.3-2.1,2.6-2.1c0.3-0.5,0.5-1.1,0.8-1.3
		c-1.1-0.5-1.3,0.8-2.1,0.5c-0.3,0.3,0,0.8-0.3,1.1c-0.8,0-1.6,0-1.8,0.8c-0.5,0.3-0.5-0.3-0.8,0c0,0.5-0.3,1.1-1.1,1.1
		c0,0-0.3-0.3-0.5-0.3c0,0.8,0,0.8-0.3,1.1c-0.8,0-1.3,0-1.8,0.3c0,0.8,1.1,0.5,1.3,1.1c0.3-0.5,0.3-1.1,0.5-1.3
		c0,0.5,0,0.8,0.5,1.1c0.3-0.5,0-1.3,0.3-1.8C228.9,183.1,229.2,183.7,229.7,183.7z M147.3,72.8c-0.3-0.5-0.5-0.5-0.8-0.3
		c0.3,0.5-0.3,1.1-0.3,1.6c0.3,0.3,0.3,0.3,0.8,0C146.5,73.6,147.3,73,147.3,72.8z M149.2,156.7c0.3,0,0.8,0,1.3,0
		c-0.5-0.5-0.3-0.8-0.5-1.3C149.2,155.4,149.2,156.2,149.2,156.7z M157.1,107.4c0.5-0.3,0.8-0.5,0.8-1.3c-0.3-0.3-0.5-0.3-0.8-0.3
		C156.6,106.3,156.8,106.8,157.1,107.4z M166.6,162c-0.3-0.5-0.5-1.1-1.1-1.6c-0.3,0.3-0.5,0.8-0.3,1.3
		C165.5,162,166.1,162,166.6,162z M167.9,168.6c0.3,0,0.8,0.5,1.3,0.3c0-0.3,0-0.5-0.3-0.8c-0.5,0.3-1.1-0.5-1.8-0.5
		C167.4,167.8,167.7,168.1,167.9,168.6z M182.2,158.3c-0.3,0-0.5,0-0.8,0c-0.3-1.1,0-1.8,0.3-2.6
		C181.6,156.5,181.9,157.5,182.2,158.3z M193.5,191.3c0.3,0.5,0.5,1.1,1.3,0.5c0-0.3,0-0.5-0.3-1.1
		C194.1,190.8,193.8,191,193.5,191.3z M195.1,121.9c1.1,0.5,1.8,0.5,2.9-0.3C196.7,120.6,195.6,120.6,195.1,121.9z M200.1,192.4
		c0.3-0.3,0.5-0.5,0.8-0.8c-0.3-0.3-0.3-0.8-0.5-1.1c-0.5,0.3-0.5,0.8-0.8,1.1c-0.3,0-0.3,0-0.5-0.3c0-0.5,0.3-0.8,0-1.3
		c-0.5,0.5-1.6-0.3-2.1,0.5c0.3,0.5,0.8,0.3,0.8,0.8c0.3,0-0.3,0.3,0,0.5C198.5,192.1,199.3,192.1,200.1,192.4z M200.1,122.9
		c0.3-0.5,0.5-1.1,1.1-0.8c0.3-0.3,0-0.5,0.3-0.5c0,0,0.3,0,0.5,0.3c0-0.8,0.8-0.8,1.1-1.3c-0.8-1.1-0.8,0.3-1.3,0.3
		c-0.5,0-0.5-0.3-1.1-0.3c-0.3,0-0.8-0.3-1.1,0.3C200.4,121.1,199.9,121.9,200.1,122.9z M205.4,120c-0.3,0-0.8,0-1.3-0.3
		c-0.3,0-0.5,0.3-0.5,0.5c0.5,0,0.3,0.5,0.5,0.8c0.3,0,0.5,0,1.1,0C205.4,120.8,205.7,120.6,205.4,120z M210.2,188.4
		c0,1.1,0.3,1.1,1.3,0.5C211.2,187.9,210.7,188.7,210.2,188.4z M228.1,112.6c0.3,0.3,0.3,0.5,0.3,1.1c0.3,0.3,0.5,0.3,1.1,0.5
		c0-0.3,0.3-0.3,0.5-0.5c-0.3-0.3-0.5-0.3-0.8-0.5c0,0,0.3-0.3,0-0.8C228.9,112.1,228.6,112.4,228.1,112.6z"/>

  <path id="x" class="st0" d="M399.2,190.5c-4-1.3-8.2-1.6-11.6-4c0-0.5,0.8-0.5,0.5-1.1c0-0.5-1.1,0.3-0.8-0.8c-0.5,0.3-0.3,0.8-0.5,1.3
		c-2.1-1.1-3.4-2.4-5.3-3.7c0.5-0.3,0.8,0.3,1.1,0c0.3,0,0.3-0.3,0-0.5c-0.3-0.5-0.8-0.3-1.1-0.5c-0.3,0-0.5,0.5-0.8,0.3
		c-1.6-0.8-3.2-2.4-4.8-3.7c-2.1-1.8-4-3.7-6.1-5.5c-2.6-2.4-4.8-5.3-7.1-7.7c-3.4-3.4-6.6-6.9-9.8-10.3c-1.6-1.6-2.9-3.2-4.2-4.8
		c-0.8-1.1-2.1-2.1-3.2-3.4c-2.6-3.2-5.8-5.8-7.9-9.2c-0.3-0.5,0-0.8,0-1.1c-0.3-0.5-0.5,0.3-0.8,0c-0.8-0.8-1.8-1.8-2.9-2.9
		c0-0.3,0.5-0.3,0.5-0.5c0.3-0.3,0-0.5-0.3-0.8c-0.5,0.3-1.1,0.5-1.6,0.3c-0.5,0.3-0.8,0.5-1.1,1.1c-0.5,1.8-1.8,2.9-2.9,4.2
		c-0.5,0.5-0.5,1.1-0.8,1.6c-0.8,1.3-1.8,1.8-2.6,2.9c-1.1,1.3-2.1,2.9-3.2,4.5c-0.8,0.8-1.6,1.8-2.4,2.6c-1.1,1.1-1.6,2.4-2.6,3.7
		c-0.3,0.3-0.5,0.8-1.1,1.1c-1.3,0.8-2.4,1.8-2.6,3.4c-0.5,1.1-1.3,2.1-2.1,2.9c-1.3,1.6-2.4,3.2-3.7,4.8c-0.5,0.3-0.8,0-1.3,0.5
		c-0.5,0.5-0.8,1.3-1.1,1.8c-1.6,1.3-2.9,2.9-4,4.5c-0.5,0-0.8,0.3-1.3,0.3c-1.6,2.4-4.2,3.4-6.1,5.5c-1.1,0.3-1.6,1.3-2.1,2.4
		c-1.8,0.3-2.9,1.8-4.8,2.6c-0.5,0-1.3,0.5-2.1,0.3c-0.5,0.5,0,1.1-0.3,1.6c0,0.5-0.5,0.5-0.8,1.1c-0.3-0.8-0.3-1.6-0.5-2.4
		c-0.5,0.5-1.1,0.8-1.8,1.3c-0.8,0.8-1.8,0.8-2.6,0c-1.1,0.8-2.4,0.8-2.6,2.4c-0.5-0.5-0.8-1.3-1.6-1.8c-0.5,0.8-1.6,0.8-2.4,0.8
		c-0.5,0-1.1,0-1.6,0c-1.1,0.5-1.8,1.8-3.4,2.1c0,0-0.3-0.3-0.5-0.5c-1.1,0.3-2.1,0.8-3.2,0c-0.5-0.5-1.3-0.5-1.8-0.5
		c-0.3-0.3-0.8,0.3-1.1,0c-0.5-0.3-1.3,0-1.6-0.5c-0.5,0-0.8,0.5-1.3,0.3c0.3-1.6,1.3-3.2,1.6-5c0.8-0.3,1.1-1.1,1.3-1.6
		c0.3-1.1,0.5-2.1,1.8-2.4c0.3-0.5-0.3-0.5-0.3-1.1c0.8-1.1,1.3-2.4,2.1-3.2l0.3-0.3c0.5-1.6,1.6-2.1,2.9-2.4c0.3-0.8,0-1.3,0-1.8
		c0.8-0.5,0.5-1.6,1.1-2.1c1.1-2.4,2.6-4.5,4.5-6.3c0.3-0.5,0-1.3,0.8-1.3c0.5-0.3,0.5,1.1,1.3,0.3c0-0.5-1.1,0-0.5-1.1
		c0.3-2.1,1.8-4,3.4-6.1c1.6-2.4,3.2-5.3,5.8-7.7c0.3-0.5,0.8-1.3,1.6-1.8c0.5-0.5,0.8-1.3,1.3-1.8c0.3-0.8,0.5-1.3,1.3-1.6
		c0.3,0,0.5-0.5,0.5-0.8c1.3-2.1,2.6-4,4.2-5.8c0.3-0.3,0.5-0.5,0.8-0.8c1.3-2.1,2.9-4,4.8-6.6c0.3-1.1,1.8-1.8,2.6-3.4
		c1.1-1.8,2.9-3.2,3.7-5.3c0.3-0.5,0.5-1.1,1.1-1.3c0.8-0.8,1.3-1.3,1.6-2.1c0.3-0.8,1.1-0.8,1.3-1.3c0.8-0.5,1.1-1.3,1.6-1.8
		c0.5-0.8,1.1-1.6,2.1-1.6c-0.3-0.8-0.3-1.6,0.8-1.6c0-1.1-0.5-2.1,0.3-3.2c0-0.5-0.3-0.8-0.5-1.1c-0.3,0-0.5,0-0.5,0
		c-0.3,0.5,0.3,0.8,0,1.1c-1.6-1.1-3.4-3.7-3.7-5.3c0-0.3,0.5,0,0.5-0.5c-0.3-0.3-0.5-0.8-0.8-1.3c-0.3,0.3,0,0.8-0.3,1.1
		c-0.8-0.5-2.1-2.1-2.4-3.7c-0.5,0-0.8-0.3-0.8-0.5c-2.1-2.4-4-5-5.8-7.7c-1.1-2.1-2.6-4-4.2-5.8c-0.3-0.3,0-0.8-0.3-1.3
		c-0.3-0.3-0.5,0-0.8-0.3c-0.3-0.3,0-0.8-0.5-1.1c-0.8-0.5-1.1-1.3-1.1-2.1c-0.3-0.8-0.8-1.6-1.8-1.6c-1.1-0.8-1.6-1.8-2.1-2.9
		c-2.1-2.6-4-5.3-5.8-7.9c-2.9-3.7-5.5-7.7-8.2-11.6c-1.8-2.9-4-5.8-5.8-8.7c-1.6-2.9-3.4-5.8-4.8-9c-0.5-0.8-1.6-1.6-0.8-2.9
		c4.2-1.3,8.2-3.7,12.7-4.8h0.3c1.6-0.3,2.9,0,4.2,1.1h0.3c1.6,0.3,2.9,0.8,4.2,1.3c0.3,0,0.3,0.5,0.3,0.5c0.8-0.3,1.3,0.5,2.1,0.5
		c0.5,0.5,1.3,1.1,1.6,1.6c1.3,1.6,2.4,2.9,3.4,4.5c1.1,1.3,2.4,2.4,3.7,3.7c1.8,2.1,4.2,3.7,5.8,5.8c1.1,1.3,2.1,2.6,3.4,4
		c0.5,0.5,1.1,1.3,1.1,1.8c2.4,3.7,5.3,6.6,8.4,10.3c0.5,1.1,2.4,1.8,2.4,3.7c3.2,4,7.1,7.4,9.8,11.9c0.5,1.8,2.4,3.2,3.7,5
		c1.6,0.3,2.6-0.8,3.4-1.8c1.6-2.1,3.2-4,4.8-6.1c1.6-2.1,3.2-4,5-6.1c0.3-0.5,0.3-0.8,1.1-0.8c0.3-1.8,1.8-2.6,2.6-4
		c1.3-0.3,2.4-0.5,3.4-0.3c-0.8-1.1-1.8-0.3-3.2-0.5c1.1-1.1,1.6-2.1,2.4-2.9c2.4-3.2,4.8-6.3,7.4-9.2c1.8-2.4,4-4.8,5.5-7.1
		c1.1-1.3,1.8-2.9,3.2-4.2c1.3-1.1,2.4-2.1,3.4-3.4c4-4.2,8.2-7.9,11.6-12.4c0.8-1.1,1.1-2.4,1.8-3.4c0.8,0.8,1.8,1.6,2.9,2.4
		c0.8,0.8,1.8,1.8,2.9,2.4c1.1,0.3,1.3,1.3,2.1,1.8c1.3,0.8,2.4,1.8,3.2,3.2c1.3,1.3,1.6,2.9,1.6,4.8c0,2.4-0.5,4.5-1.8,6.6
		c-1.1,1.3-1.8,3.2-2.9,4.5c-1.8,2.6-3.2,5.3-5.3,7.9c-1.3,1.6-1.8,3.7-3.2,5.5c-0.5,1.1-1.3,1.6-1.8,2.6c-0.8,1.3-2.1,2.6-2.9,4.2
		c0,0.3-0.5,0.3-1.1,0.5c-0.3,1.8-1.3,3.7-2.4,5.3c-1.1,2.1-2.1,4-3.4,5.5c-1.3,1.8-2.4,3.4-3.4,5c-1.8,2.6-3.4,5.3-5.3,7.9
		c-0.8,1.1-1.8,1.8-1.8,3.2c-1.3,1.3-1.8,2.6-2.9,4c-0.8,1.1-1.8,2.1-2.4,3.4c-1.1,1.8-2.9,3.4-3.7,5.5c0,0.5-0.3,0.8,0,1.3
		c0.8,1.3,1.6,2.6,2.4,4.2c0.3,0.5,0.8,0.8,1.3,1.6c0.3,0.5,0.5,1.1,0.8,1.6c1.1,1.6,1.8,3.2,2.9,4.8c0.8,0.8,1.6,1.6,2.1,2.9
		c0,0.8,0.8,1.1,1.3,1.6c0.5,0.3,0.8,0.5,0.8,1.1c0.3,1.1,0.8,1.8,1.8,2.4c0.8,0.8,1.3,1.8,1.8,2.6c0.5,0.5,0.8,1.1,1.6,1.3
		c0.8,1.8,2.9,2.9,3.2,4.8c0.5,0.3,0.8,0.5,1.1,0.8c0,0.8,0,1.6,0.5,1.8c0.3,0.5-0.3,0.8,0,1.1c1.8,1.8,3.7,4,4.5,6.6
		c0.3,0.5,0.5,0,1.1,0.3c0.5,0.3,1.1,1.3,2.1,1.6c0,1.3,1.1,2.1,2.1,2.4c1.1,1.8,2.1,3.4,2.4,5.8l-0.3-0.3c0.3,0.5,0.3,1.1-0.3,0.8
		c-0.5-0.3,0.3-0.8-0.5-1.1c-0.3,0.5,0,1.1,0,1.6c0.5,0.5,1.3,0,1.8,0.5c0.5-0.3,0.5-0.5,0.5-1.1c0.5,0,0.8,0.8,1.3,0.8
		c0.3,1.3,1.1,2.1,1.6,3.2c0,0.3,0,0.3-0.3,0.3l-0.3,0.3c0,0.3,0,0.3,0.3,0.5c0.3,0.3,0.5-0.5,1.1-0.3c0.5,1.6,1.8,2.9,3.2,3.7
		c0.5,1.6,1.1,2.9,1.3,4.5c1.1,0.5,1.1,2.1,2.1,2.9c-1.8,1.3-1.6,3.2-0.8,4.8c0.3,0.8,0,1.6,0.3,2.6c1.3,0.5,2.1,1.6,2.6,2.9
		c0,1.3-0.8,2.4-0.8,3.7c0.8-0.3,0.8-1.1,1.1-1.8c0.5,1.3-0.3,2.1,0,3.2C399.4,188.4,398.7,189.5,399.2,190.5z M269,185.8
		c-0.5-0.8-1.3-1.6-2.1-0.8c-0.8-0.8,0-1.1,0-1.6c-0.5-0.5-1.1,0-1.6,0c0,0.8,0,1.6,0.3,2.4c0.3,0,0.3,0.5,0.5,0.3
		c0.5-0.5-0.5-0.8,0-1.1c0.5,0,0.5,0.8,1.1,1.1C267.7,185.8,268.5,186.6,269,185.8z M270.9,165.2c-0.3-0.3-0.5-0.3-0.5,0
		c-0.8,0.3-1.1,1.1-1.8,1.3C269.6,167,270.3,166.2,270.9,165.2z M274.6,181.3c0.8,1.1-0.3,1.1-0.5,1.6c-0.3,0.8,0.3,1.3,0.5,1.8
		C275.6,182.9,275.6,182.1,274.6,181.3z M279.3,156.5c-0.3-0.3-0.5,0-0.8,0c-0.3-0.3,0-0.8-0.5-0.8c-0.5,0.8,0,1.3,0.3,1.8
		C279.3,157.3,279.6,157,279.3,156.5z M285.4,146.4c-0.3-0.3-0.3-0.8-1.1-1.3c0,1.1,0,1.8,0,2.6c-0.3,0.3-0.8,0.3-1.1,0.8
		c0.3,0.3,0.8,0.8,1.3,0.8C284.9,148.3,284.9,147.5,285.4,146.4z M290.7,68.3c0-0.3-0.3-0.3-0.3-0.5c-1.3-0.3-1.3-0.3-1.6,1.1
		c0.5,0,1.1,0,1.3,0C290.4,68.5,290.7,68.5,290.7,68.3z M297,132.7c-0.3,0.3-0.5,0.5-1.1,0.3c0,0.5-0.3,1.1,0.3,1.3
		c0.3-0.3,0.3-0.5,0.8-0.5c0,0.5-0.3,1.1,0.3,1.3C297.8,134,297.3,133.5,297,132.7z M300.4,83.1c-0.5,0.3-1.3,0.8-0.5,1.8
		c0-0.5,0.8-0.8,1.1-1.1C301,83.3,301,83.1,300.4,83.1z M314.7,102.1c-0.5-0.3,0-1.3-0.8-1.6c-0.3,0-0.5,0.3-1.1,0
		c-0.3-1.1-0.5-2.4-1.3-3.4c-0.3,0.3-0.5,0.5-0.5,0.8c-0.8-1.1-0.8-2.4-1.1-3.7c-0.5-0.3-0.8,0.5-1.1,0.5c-0.5-0.3,0-0.8-0.5-0.8
		c-0.5,0.3-0.3,0.8-0.3,1.1c1.6,0.8,2.1,2.4,2.1,4.2c0.5-0.3,0.5-0.8,0.5-1.3c0.5,0.8,0.5,1.8,1.6,2.1c0,0.8,0.3,1.6,0.5,2.4
		c0.5,0.3,0.5-0.3,1.1,0c0.3,0-0.3,0.5,0.3,0.5C314.2,102.6,314.7,102.3,314.7,102.1z M310.7,91c0.5,0,0.8-0.5,0.8-1.1
		c-0.5-0.3-0.8-0.5-1.1-0.5C309.9,90.2,310.5,90.5,310.7,91z M337.1,132.4c-0.3-0.3-0.5,0-0.8-0.3c0-0.5,0-0.5-0.3-1.1
		c-1.3,1.8-1.3,1.8-0.3,2.9C336.1,133.2,337.1,133.5,337.1,132.4z M342.2,133.5c0.3,0,0.8,0.3,0.8,0c-1.3-0.8-2.4-2.1-3.7-3.2
		C339.5,131.4,341.4,133.2,342.2,133.5z M343.5,139.6c-0.5-0.3-1.1-0.3-1.6-0.3c0.3,0.5,0.3,0.8,0.3,1.1c0,0,0.8,0.5,1.3,0.8
		C344,140.6,343.7,140.1,343.5,139.6z M347.4,131.4c-1.1,0.5-2.1,1.6-3.4,2.1c1.6-0.3,2.6-1.1,4-1.6
		C348,131.6,347.7,131.4,347.4,131.4z M356.1,153.8c-0.8-0.3-0.8-1.3-1.8-1.1c0,0.8-0.8,1.1-0.5,1.8c0.8-0.3,1.6-0.3,2.4-0.5V153.8z
		 M369.9,168.6c-0.5,0.3-1.1,0.3-1.3,1.3c0.8-0.8,1.1,0,1.6,0C370.4,169.7,370.7,169.1,369.9,168.6z M371.7,166.2
		c-0.8,0.3-1.1,1.1-1.6,1.3c0.5,0.3,1.1-0.3,1.6,0C371.7,167,372,166.5,371.7,166.2z M386.2,174.4c-0.8,0.3-1.3,0-1.8,0.5
		c0,1.3,0.5,1.6,1.8,1.1C386.2,175.5,386.5,174.9,386.2,174.4z M385.2,156.2c0-0.3-0.3-0.5-0.3-0.5c0-0.3,0-0.8,0.5-1.1
		c0.3,0.5,0.5,1.1,0.5,1.6C385.7,156.2,385.5,156.2,385.2,156.2z M386,156.2c0.3,0,0.3,0,0.3,0S386.2,156.2,386,156.2z M392.6,170.2
		c-0.3,0.3,0.3,0.5-0.3,0.8c-0.3,0.3-0.5,0.3-0.8,0.5c0,0.3-0.5,0.5,0,1.1c0.5,0,0.8-0.5,1.3-0.5
		C393.1,171.2,393.1,170.7,392.6,170.2z"/>

  <path id="t" class="st0" d="M479.7,181.8c-0.3,0.8-0.8,1.3-1.3,1.6c-0.8,0.5-1.3,1.3-1.8,2.1c-1.3,2.4-3.4,3.2-6.1,3.2
		c-1.6,0-3.2,0.5-4.2,1.6c-1.3,0.8-2.6,1.6-4.2,1.3c-1.3,0-2.6,0.5-3.7,1.3c-0.3,0.3-0.3,0.3-0.5,0.3c0-0.3-0.3-0.3-0.3-0.5
		c-0.8-5.5-1.6-11.4-1.3-16.9c0.3-4.8,0-9.2,0.3-13.7c0-3.4-0.3-7.1,0-10.6c0.8-7.1,0.5-14,0.8-21.1c0.3-4.8,0.3-9.8,0.8-14.5
		c0.3-3.7,0.5-7.1,0.5-10.8c0-5.3,0.5-10.6,0.3-15.8c0-2.1,0-4.2,0.3-6.3c0.8-4.8,0.3-9.8,0.5-14.5c0.3-4.8,0.8-9.5,0.8-14.3
		c0-0.5,0-1.3-0.5-1.8c-0.8,0-1.8,0.3-2.9,0.3c-2.1,0.3-4.2-0.5-6.3-1.1c-0.5-0.3-1.3-0.5-1.8-0.3c-0.8,0-1.1-0.5-1.8-0.8
		c-1.3,0.5-3.2,0-4.8,0.3c-1.6,0-3.4-0.3-5-0.8c-1.3-0.3-2.6,0-4,0c-0.5-0.3-0.8-0.3-1.3-0.3c-0.3,0-0.5-0.3-0.8-0.5
		c-0.8,1.1-1.8,0.5-2.6,0.3c-1.3-0.5-2.9-0.5-4.2-1.1c-1.6-0.3-3.4-0.8-5-1.3c-0.5-0.3-0.8-0.8-1.3-1.1c-1.3-0.3-2.4-1.3-3.7-1.8
		c-1.6-1.1-2.9-2.4-4.2-4c-1.3-1.8-2.6-3.7-3.4-5.8c-0.5-1.1-0.8-2.1-2.1-2.9c4.5-1.1,9-1.8,13.2-2.4c1.3-0.3,2.6-0.5,4.2-0.8
		c0.3,0,0.5,0,0.8-0.3c3.2-0.3,6.3-0.8,9.8-1.1c1.8-0.5,4-0.5,5.8-0.3c2.6,0,4.8-0.5,7.4-0.8c2.9,0,6.1,0,9,0c1.8,0,3.4-0.3,5.3-0.5
		c3.2-0.5,6.3,0,9.8,0c2.6,0,5.5-0.3,8.4-0.5c1.6-0.3,3.4-0.3,5.3-0.3c3.2-0.3,6.3-0.5,9.5-0.8c3.4-0.3,6.9-0.8,10-0.8
		c4.8-0.3,9.2-0.5,14-0.3c3.4,0.3,6.9,0.3,10.3,0.8c2.4,0.3,4.5,0.8,6.9,1.1c1.3,0.3,2.9,0.5,4.2,0.5c0.5,0,1.1,0,1.8,0.3
		c-0.3,1.1-0.3,2.4,0,3.4c0.3,0.8,0.5,1.6,0.5,2.4c0,1.3-0.3,2.4-0.5,3.4c-0.3,0.8-0.3,1.6,0.3,2.4c0.3,0.8,0.3,1.6,0,2.4
		c-0.5,0.5-0.5,1.1-0.5,1.8c0.3,1.1,0,1.8,0,2.6c-0.5,1.3-1.1,2.6-1.3,4c0,1.6-0.8,2.4-1.8,3.7c-1.3-0.3-2.6,1.1-4.2,1.3
		c-1.8,0.5-3.4,1.3-5.5,0.5c-0.8-0.3-1.6-0.3-2.1-0.3c-2.4,0.3-4.5-0.3-6.9,0.3c-1.8,0.3-3.7-0.3-5.8,0c-2.9,0.3-6.1,0.3-9.2,0.5
		c-2.6,0.3-5.3,1.1-7.9,1.1c-1.6,0-3.4-0.3-5,0c-1.8,0.5-2.9,1.6-2.9,3.4c0,1.6,0.3,3.2,0.3,4.8c-0.3,2.6,0.3,5.3,0.3,7.9
		c-0.3,2.4,0,4.5,0.3,6.9c0.3,1.6,0.5,2.9,0.3,4.5c-0.3,1.1-0.3,2.4-0.3,3.4c0,1.8-0.5,3.7-0.5,5.8c0,0.5,0,1.1,0,1.8
		c0.5,1.6-0.3,3.2-0.5,4.8c0,0.8,0,1.8,0.3,2.9c0.3,1.6-0.5,3.2-0.3,4.8c0,2.1-0.3,4,0,5.8c0.3,1.1,0.3,1.8,0,2.6
		c0,2.4,0,4.5,0.3,6.6c0.3,0.5,0.3,1.3,0.3,1.8c-0.5,2.1-0.3,4.5,0,6.6c0,0.3,0.3,0.5,0.3,0.5c-1.1,2.6-0.3,5-0.3,7.7
		c-0.3,1.6-0.3,3.4-0.3,5.3c0,0.3,0,0.3,0,0.5c-0.8,2.4-0.8,4.8-1.1,7.1c0,2.9,0.3,5.8-0.5,8.7c-0.5,2.1-0.8,4.5-0.5,6.6
		c0,1.6,0,2.9-0.5,4.5c-0.8,1.6-0.8,3.7-1.3,5.5c-0.3,1.1-0.5,2.1-0.8,3.2C481,179.4,480.5,180.8,479.7,181.8z M426.4,44
		c-0.5,0.3-0.5,0.8-0.5,1.3c0.3,0.3,0.3,0.8,0.8,0.8c0.3-0.5,0.5-0.8,0.5-1.3S426.9,44,426.4,44z"/>

  <path id="p" class="st0" d="M717,69.1c-0.5,1.3-0.5,2.6-0.5,4c-0.3,1.3-0.3,2.6-0.3,4c0,1.1-0.3,2.1-0.3,3.2c-0.5,1.8-1.1,3.4-1.3,5.3
		c0,0.5-0.3,1.3-0.5,1.8c-0.3,0.3-0.5,0.5-0.8,1.1c-0.5,2.4-1.6,4.2-2.6,6.3c0,0.3-0.3,0.5-0.5,0.8c-0.8,1.1-1.3,2.4-1.6,3.7
		c-0.3,0.8-0.8,1.6-1.3,1.8c-1.8,1.3-3.2,3.2-5,4.2c-0.5,0.5-1.1,1.1-1.8,1.3c-0.8,0.5-1.8,1.3-2.4,2.1c-0.3,0.3-0.5,0.3-0.8,0.5
		c-2.4,1.3-5,2.1-7.9,2.6c-1.1,0.3-2.4,0.5-3.4,1.1c-1.8-0.3-3.7,0-5.3,0c-1.8,0.3-3.7,0-5.5-0.3c-1.6-0.3-3.2-0.3-5,0.5
		c-1.3-0.8-3.2-0.5-4.8-1.1c-1.6-0.5-3.4-0.5-4.8-1.1c-1.6-0.5-3.2-1.1-4.8-1.8c-1.3-0.5-2.6-1.8-4.2-2.4c-0.8,1.8-0.5,3.4-0.5,5
		c-0.3,1.6-0.3,3.2,0,4.8c0,1.1,0,2.1-0.3,3.2c0,1.1,0,2.1,0.3,3.2c0,0.5,0,1.1,0,1.6c0,1.3,0,2.4,0.3,3.7c0.3,1.6,0,3.2,0,4.8
		c-0.3,2.6-0.5,5.5-0.3,8.4c0,1.3,0,2.6,0,4c0,4.5,0,9-0.3,13.7c0,3.2,0,6.1,0.3,9.2c0.3,3.7,0.3,7.7,0.8,11.4
		c0,1.1-0.8,1.8-0.3,2.6c-0.8,1.1-1.1,1.8-2.1,2.4c-1.3-0.3-2.6,0-4,0.5c-0.3,0-0.5,0-0.8,0c-1.1,1.1-2.1,1.1-3.4,1.6
		c-0.8-0.3-1.6-0.3-2.4-0.8c-0.5,0.3-1.1,0.5-1.6,0.8c-0.5,0.5-0.3,1.6-1.3,1.6c-1.1,0-1.6-0.5-2.6-1.1c-0.8-0.3-1.6-0.5-2.6-0.8
		c-1.8,0-2.6-1.3-3.4-2.6c-0.8-1.6-1.1-3.2-1.1-4.8c-0.3-5-0.3-9.8-0.3-14.8c0-3.7-0.3-7.9-0.3-11.9c-0.3-2.9-0.3-5.5-0.3-8.4
		c-0.3-3.7-0.3-7.1-0.3-10.6c-0.3-2.6-0.3-5.5-0.3-8.2c0-2.1-0.3-4-0.3-6.1c0-4,0.3-7.9,0-11.9c0-3.2,0.3-6.1,0.5-9.2
		c0-0.5,0-1.3,0-2.1c0-3.4,0.5-6.9,0.3-10.6c0-0.5,0.3-1.1,0.3-1.6c0-0.3,0.3-0.8,0-1.3c-0.3-3.4,0-7.1-0.3-10.8
		c0-3.2,0-6.1-0.3-9.2c-0.3-1.3,0-2.4,0-3.4c0.3-2.9,0-5.5,0.3-8.2c0-4.5-0.3-9,0-13.5c0.3-0.8,0-1.8,0-3.2c0.8-1.1,0.8-2.4,0.8-3.7
		c-0.3-1.8-0.3-3.7,0-5.5c0-1.3,0-2.4-0.5-3.7c2.9-1.1,5.8-1.1,8.7-1.1c2.9,0,5.8,0.3,8.7,1.3c1.6-0.3,3.4-0.8,5-1.3
		c2.9-0.3,5.5-0.5,8.4-0.8c4.2-0.3,8.2,0.3,12.4,1.1c2.9,0.5,5.8,1.1,8.4,1.8c4,1.1,7.9,2.1,11.6,4c1.8,0.8,3.7,1.6,5.3,2.9
		c0.8,0.5,1.8,1.1,2.6,1.6c2.4,1.6,4.2,3.4,6.6,5c1.1,1.1,2.1,1.8,2.9,2.9c4,3.4,6.6,7.7,8.2,12.7c0.8,2.1,1.3,4.5,1.6,6.9
		c0.5,2.6,0.8,5.3,1.1,7.7C717.3,67,717.3,68,717,69.1z M692.7,64.9c-0.3-1.3-0.3-2.9-0.5-4.2c-0.5-1.6-0.5-3.2-1.1-4.8
		c-1.1-4.2-2.9-7.7-5.3-11.4c-1.6-2.4-3.4-4.5-5.8-6.3c-1.8-1.6-4-2.9-6.1-3.7c-2.4-1.3-5.3-1.3-7.9-1.1c-2.6,0.3-5.5,0.8-8.2,1.1
		c-2.9,0.5-5.5,1.3-8.7,1.8c-0.5,0-1.1,0.3-1.3,1.1c0,1.3,0,2.6,0.5,4c0.3,0.8,0.3,1.6,0.3,2.4c0,2.1,0.8,4.5,1.3,6.6
		c0.5,1.8,1.1,3.7,0.8,5.8c-0.3,0.8-0.3,1.8-0.3,2.9c0.3,2.4,0.8,5,0.8,7.4c0,2.1,0.3,4.2,0.3,6.3c0,2.1,0,4.2,0.3,6.3
		c0,3.2,0,6.6-0.3,9.8c0,0.5,0,1.3,0,2.1c0.8,0.8,1.3,0.5,2.1,0.5c1.6,0.3,3.2,0.3,4.8,0.3c3.2,0.3,6.1-0.3,9-1.1
		c1.3-0.3,2.6-0.3,3.7-0.8c1.3-0.5,2.6-0.8,3.7-1.3c2.4-0.8,4.8-1.6,7.1-2.6c2.4-1.1,4.5-2.9,6.1-5.3c1.8-2.9,2.9-6.1,4-9.5
		C692.7,69.1,693,67,692.7,64.9z"/>

  <path id="a" class="st0" d="M817.6,183.4c-0.5,0.8-0.5,1.8-1.1,2.6c-2.1,0.8-3.4,2.6-5,4c-0.5,0.3-1.1,0.3-1.3,0.3
		c-0.5,0.3-1.1,0.5-1.6,0.8c-1.3,0.3-2.6-0.5-4-0.3c-2.1,1.1-4,0.5-6.1-0.5c-0.8-0.5-1.6-1.3-2.1-2.4c-1.3-2.9-2.4-5.8-3.4-8.7
		c-1.6-5-2.9-10-4.2-14.8c-0.8-2.4-1.3-5-1.8-7.4c-1.3-5.5-2.4-10.8-3.4-16.4c-0.3-0.8-0.3-1.6-0.5-2.1c-0.5-0.3-1.1-0.3-1.6-0.3
		c-2.4,0.5-4.8,0.5-7.1,0c-1.6-0.5-3.4-0.8-5-0.8c-1.1,0-1.8,0-2.6-0.3c-1.1-0.3-2.1-0.5-3.2-0.3c-0.8,0-1.6-0.3-2.4-0.5
		c-1.8-0.5-3.7-0.3-5.8,0c0,0-0.3,0-0.5,0.3c-0.3,0.5-0.5,1.3-0.5,1.8c-0.3,2.6-1.1,5.3-1.8,7.7c0,0.5,0,0.8,0,1.1
		c0,1.3-0.3,2.6-0.5,4c-1.1,3.2-1.3,6.3-2.1,9.5c-0.3,1.6-0.8,2.9-1.1,4.2c-0.3,0.5-0.3,1.1-0.5,1.3c-0.8,4-2.4,7.9-3.7,11.6
		c-0.3,1.1-0.5,2.4-0.8,3.4c-0.3,1.1-0.8,1.8-1.3,2.9c-0.8,1.1-1.6,2.1-2.9,2.6c-2.4,1.1-5,1.3-7.7,0.8c-1.3-0.3-2.4-0.5-3.2-0.8
		c-1.8-1.1-3.2-2.4-4.8-2.9c-1.1-0.5-1.3-1.6-1.3-2.6c0-1.1,0.3-2.1,0.3-2.9c1.8-6.3,3.2-12.7,4.2-19.3c0.5-4.8,1.6-9.5,2.4-14
		c0.8-3.7,1.3-7.1,1.6-10.8c0.5-4,1.6-7.7,2.1-11.6c0.8-3.7,1.6-7.4,2.4-10.8c0.5-2.9,1.1-6.1,1.6-9c0.8-4,1.6-7.9,2.6-11.9v-0.3
		c0.3-2.9,1.1-5.8,1.6-8.7c0-0.5,0.3-0.8,0.3-1.3c0.5-1.8,1.1-3.7,1.3-5.8c0.3-2.1,0.8-4.2,1.6-6.6c0-0.8,0.3-1.6,0.5-2.4
		c0.3-2.6,1.1-5.3,1.8-7.9c0.3-1.1,0.5-2.1,0.8-3.2c0-1.3,0.3-2.6,0.8-3.7c1.1-3.2,1.8-6.6,2.6-9.8c0.5-1.6,1.1-3.4,1.6-5
		c0.3-0.8,0.5-1.6,0.5-2.4c0-1.3,0.5-2.6,1.1-4c0.8-1.6,1.8-3.4,2.6-5c0.8-1.1,1.6-2.1,2.4-3.4c0.5-1.1,1.3-1.8,2.9-1.8
		c2.4,1.3,5,1.1,7.4,2.1c3.4-0.8,6.1,0.3,8.4,2.4c1.6,1.3,2.4,2.9,3.4,4.5c0.5,1.3,1.1,2.9,1.6,4.2c0.8,1.8,1.3,3.7,2.1,5.5
		c1.3,3.4,2.1,6.9,2.9,10.6c0.3,2.4,1.1,4.5,1.8,6.9c0.5,2.6,1.3,5.3,2.4,7.7c1.3,3.4,1.8,6.9,2.9,10.3c1.1,2.1,1.8,4.2,2.6,6.3
		c0.5,1.3,1.1,2.4,1.3,3.4c0.8,3.2,1.6,6.1,2.4,9.2s1.6,6.3,2.4,9.5c0,1.1,0.3,2.4,0.5,3.7c0.5,2.6,1.6,5.5,1.8,8.2
		c0.3,1.6,0.5,2.9,0.5,4.5c0.3,1.1,0.5,2.1,0.8,3.2c0.8,3.4,1.6,7.1,2.1,10.6c0.5,2.4,1.3,4.8,1.8,7.4c0.3,0.8,0.5,1.3,0.5,2.1
		c-0.3,1.1,0.3,1.8,0.3,2.9c0.8,3.4,1.3,7.1,1.8,10.6c0.3,1.6,0.8,3.2,1.1,4.8c0.5,2.6,1.1,5.3,1.6,7.7c0.3,1.3,0.3,2.4,0.3,3.4
		c-0.3,1.8,0.3,3.7,0.5,5.3c0.5,1.8,0.5,3.4,0.5,5.3C818.1,182.3,818.1,183.1,817.6,183.4z M776.2,102.9c-0.3-0.3-0.3-0.5-0.3-1.1
		c-0.8-4.2-1.8-8.7-2.6-13.2c-0.5-3.2-1.3-6.1-2.4-9c-0.8-2.9-1.8-5.5-2.1-8.7c-0.3-1.1-0.5-2.1-1.3-3.2c-0.8,0.3-0.8,0.8-0.8,1.3
		c-0.3,1.3-0.8,2.6-1.1,3.7c-0.3,1.8-0.8,3.4-1.1,5c-0.3,1.8-0.5,3.7-1.3,5.5c0,1.1,0.3,2.4-0.3,3.4c-0.3,1.3-0.3,2.6-0.5,3.7
		c0,1.8-0.5,3.4-1.1,5c-0.3,0.3-0.5,0.8-0.5,1.3c-0.5,2.4-0.3,4.5-0.5,6.9c0,0,0,0.3,0.3,0.3c0.3,0.5,0.5,0.5,1.1,0.5
		c0.5-0.3,1.3-0.3,2.1-0.8c3.2-1.3,6.3-1.6,9.8-0.5c0.5,0,0.8,0.3,1.3,0.3C775.1,103.4,775.6,103.4,776.2,102.9z"/>

  <path id="g" class="st0" d="M896.8,186.3c0.3,0.8,0.5,1.6,0.8,2.1c-0.5,0.3-0.8-0.3-1.3-0.3c-0.3,0-0.5,0.5-1.1,0.3
		c-0.5-0.3,0-0.8-0.5-1.1c-0.8-0.3-1.6-0.3-2.4,0c0,0.5,0.5,0.3,0.5,0.8c-0.3,0.5-0.5,0.3-0.8,0.3c-0.5-0.3-0.3-0.5-0.8-0.8
		c-1.6-0.3-2.1-0.8-2.1-1.8c-0.3,0-0.3,0-0.5,0.3v0.3c-1.1-0.3,0-1.1-0.3-1.6c-0.5,0-0.5,0.8-1.1,1.1c-0.3-0.3,0-0.5-0.3-0.8
		c-0.3,0.3-0.5,0.5-0.5,0.5c-0.3,0.5,0,0.5,0,1.1c-0.3,0-0.5,0.3-1.1,0.8c0-0.8-0.3-1.3-0.5-1.8c-0.3,0-0.5,0.3-0.8,0
		c0-0.3,0.3-0.5,0-0.8c-0.5,0-0.3,0.8-0.8,0.8c-0.3,0.3-0.5-0.3-1.1,0.3c0.5,0.8,1.8,0,2.4,0.8c-1.3,0.5-6.9-0.5-8.4-1.6
		c-0.3-0.3-1.1,0.3-1.6-0.5c0-0.5,0.8-0.3,0.8-0.8c-0.8-0.5-1.3,0.5-2.1,0.5c-0.5-0.5-1.3-0.8-1.8-1.1c0.3-0.8,0.8-0.8,1.3-1.1
		c0-1.1-1.3,0-1.6-1.1c-0.8,0.8-0.8,0.8-0.5,1.6c-1.6,0-2.6-1.1-4.2-1.6c-0.3-0.3,0.3-0.5,0-0.8c0-0.3-0.3-0.5-0.5-0.5
		c-0.3,0-0.5,0.3-0.8,0.3c-1.3-0.3-2.6-0.8-3.2-2.1c-0.5-0.3-0.8,0.3-1.1,0c-1.1-0.5-1.8-1.3-2.6-2.1c-1.1,0-1.6-0.5-2.4-1.1
		c-1.3-0.8-2.1-1.8-3.4-2.6c-0.8-0.3-1.3-1.1-1.8-1.6c-1.1-0.8-2.1-1.6-3.2-2.6c-0.5-0.8-1.3-1.3-2.1-2.1s-1.6-2.1-2.6-3.2
		c-0.5-0.3-0.5-1.1-0.8-1.6c-1.6-0.8-2.4-2.1-3.2-3.4c-1.8-2.4-3.7-4.8-5.3-7.1c-1.1-2.1-2.1-4.2-3.2-6.3c-1.8-4-2.6-7.9-3.7-12.1
		c-0.3-1.6-0.5-3.7-1.1-5.3c-0.3-2.1-0.5-4.5-0.8-6.6c-0.5-2.1-0.5-4.5-0.8-6.9c-0.3-2.9-0.5-6.1-0.5-9c0.3-1.8,0.3-3.7,0.3-5.3
		c0-2.6,0.3-5.3,0.5-7.9c0-1.3,0.5-2.9,0.8-4.5c0.3-2.4,1.3-4.8,1.6-7.4c0.5-0.3,0.5-1.1,0.8-1.6c0.8-4,2.9-7.1,4.8-10.3
		c1.1-1.6,1.6-3.2,2.6-4.5c1.3-1.6,2.1-3.7,3.4-5.3c0.5-0.8,0.5-1.8,1.8-2.1c0.8-1.6,2.1-2.6,3.2-4c1.3-1.8,3.2-3.2,4.8-4.8
		c0.5-0.5,1.1-1.3,2.1-1.1c0.3-0.3,0.3-0.5,0.5-0.8c1.6-1.3,3.4-2.1,4.8-3.4c0.5-0.3,0.3,0.3,0.8,0.3c0-0.3,0-0.8,0.3-1.1
		c0.5-0.3,0.8-1.1,1.8-1.3c2.1-1.8,4.8-3.4,7.4-5c1.1-0.8,2.1-1.6,3.4-1.3c0-0.3,0-0.5,0-0.8c0.5-0.3,1.1-0.8,1.6-0.5
		c2.9-1.3,5.5-2.9,8.2-4c1.1-0.8,2.1-1.6,3.7-1.6c1.1-1.1,2.1-2.1,4-2.1c1.8-1.3,4.2-1.8,6.9-2.6c0.3-0.8,1.6-0.5,2.1-1.3
		c1.6-0.8,3.4,0,4.8-1.6c0.8-0.5,2.1,0.3,2.6-0.8c4.8,0,8.7-2.4,13.2-3.7c1.8,1.6,4,2.6,6.1,3.7c1.1,0.3,2.1,0.8,2.6,1.6
		c1.3,1.6,3.2,2.4,4.2,4.2c0,0.3,0.3,0.3,0.5,0.5c1.6,1.3,2.9,2.9,3.4,5c0.5,1.3,0.5,2.6,0.3,4c0,0.5,0,0.8,0,1.3
		c-0.5,1.1-1.6,1.8-2.4,2.9c-1.6,0.3-2.4,1.3-3.7,1.8c-1.6,1.1-3.2,2.4-4.5,3.4c-0.5,0.5-1.3,0.8-1.8,1.1c-1.3,1.1-2.4,2.1-3.4,3.2
		c-0.8,0.8-1.8,1.8-3.2,1.8c-0.8,0.3-1.3,1.1-2.1,1.6c-2.9,2.4-5.8,5-9.2,6.9c-1.3,0.8-2.9,1.8-4.2,2.9c-0.3,0.3-0.8,0.5-1.1,0.5
		c-0.5,0.3-1.1,0.3-1.3,0.5c-0.8,1.6-2.6,2.4-3.7,3.7c-0.5,0.5-1.3,0.8-1.8,1.3c-1.8,1.1-4,1.6-5,3.2c-0.8,0.3-1.3,0-1.8,0.3
		c-0.8,1.6-1.8,2.9-3.4,3.7c-0.3,0.3-0.5,0.5-0.8,0.8c-1.3,1.3-2.6,2.9-4.5,4c-0.3,0.3-0.3,0.8-0.3,1.1c-1.3,0.3-1.6,1.3-2.4,2.1
		c-2.6,2.6-5,5.3-6.9,8.7c-0.8,1.6-2.1,2.9-2.9,4.2c-0.3,0.8-0.8,1.1-1.3,1.3c-1.8,4.5-3.7,8.7-5.5,13.2c-0.3,0.3,0,0.5,0,1.1
		c-0.5,0.3-0.3,1.3-1.1,1.8c0.5,1.6,0.3,3.2-0.3,4.8c-0.5,2.4-0.3,4.8-0.5,7.1c-0.3,1.3-0.3,2.1,0,3.4c0,0.3,0,0.8-0.3,1.1
		c0,0.3,0,0.8,0,1.1c0.3,2.4,0.3,4.8,0.5,7.1c0,0.3,0,0.5,0.3,0.8c0.3,0.8,0.3,0.8-0.5,1.6c0.3,0,0.5,0.3,0.5,0.3s0,0,0-0.3
		c0.3,1.8,0.3,3.4,0.5,4.8c0.5,2.4,0.5,4.8,1.3,7.1s1.3,5.3,2.6,7.4c0.8,1.3,1.3,2.9,2.6,4c1.3,1.3,2.4,2.6,4,3.4
		c1.1,0.5,1.8,1.3,2.6,1.8c2.9,1.8,5.8,2.1,9,1.8c2.6,0,5.3-0.3,7.9-0.8c1.6-0.5,3.4-1.1,5-1.6c4.8-1.3,8.7-3.7,12.7-6.1
		c4.8-2.9,8.7-6.1,13.2-9.2c0.5-0.5,0.8-0.8,1.3-1.3c1.1-0.8,1.1-1.1,2.4-1.3c0.3-1.3,1.3-1.8,2.9-1.8c1.3,0,3.2-0.3,4.2-1.6
		c-1.6,1.1-3.2,0.8-4.8,0.8c1.1-0.8,1.8-2.1,3.4-2.9c0.3-0.8,1.1-1.3,1.6-2.1c2.9-2.6,5.5-5.5,7.9-8.4c0.3-0.3,0.5,0,0.8,0
		c-0.3-1.6,1.3-2.4,1.8-3.4c1.1-1.3,1.6-2.9,3.2-4c0,0,0-0.5,0-0.8c0,0,0.3,0,0.5,0c0.3-0.5,0-0.8,0.3-1.3c0-0.3,0.5,0,0.8-0.3
		c0.3-0.3,0.5-0.8,0.8-1.1c-0.5-0.3-0.8,0.3-1.1,0c-0.5-0.5-0.5-1.1-0.5-1.6c-0.5-1.1-1.8-1.1-2.6-1.1c-2.1,0-4.2-0.5-6.1,0
		c-2.9,0.5-5.8,0.8-8.4,1.8c-0.8,0.3-1.3,0.3-2.1,0.5c-2.6,0.8-5.5,1.3-8.4,2.1c-1.8,0.5-3.4,0.8-5.3,1.1c-2.1,0-4.2,0.8-6.9,0.3
		c-0.5,0.5-1.3,0.8-2.4,0.8c-1.3-1.3-2.9-0.5-4.2-0.8c-1.6,0-3.2,0.3-4.5,0c-1.3-0.5-2.6-0.3-4,0c-1.6,0.3-2.9,0.3-4.5-0.5
		c-0.8-0.3-1.6-0.8-2.4-0.8c-0.3-2.1-2.4-2.4-3.4-3.4c-0.3-0.3-0.3-0.8-0.5-1.1c0.8-2.4,5.3-4.5,7.9-4c2.6-0.5,5.5-0.3,8.2-1.6
		c0.3,0.3,0.8,0.3,1.1,0.3c3.2-0.8,6.3-1.1,9.5-2.1c0.3,0.3,0.5,0.3,1.1,0.3c1.1-1.1,1.8-1.1,2.9-0.5c0.5-0.8,1.6-1.3,2.6-1.1
		c2.9-1.1,6.1-1.3,8.7-2.4c0.5,0,0.3,0.5,0.8,0.5c0.8-1.6,2.1-1.8,3.7-1.8c0.8-0.5,1.6-1.1,2.4-0.8c0.3-0.3,0.5-0.5,0.8-0.5
		c1.8-0.3,3.2-1.3,4.8-1.6c0.8-0.3,1.6-0.5,2.6-0.8c1.6-0.3,2.6,0.8,3.7,1.6l0.3,0.3c1.3,0,2.9,0.3,4.2,0.8c0.3,0.3,0.5,0.5,0.5,0.8
		c1.1,1.1,2.9,0.5,4,1.6c0.5,0.8,1.6,0.8,2.4,1.1c0.5,0.3,1.1,0.5,1.6,0.8c0.3,0.5-0.5,0.8,0,1.3c0.5,0,0.5-0.8,1.1-0.8
		c0.8,0.3,1.6,0.8,1.3,1.8c0.5,0.3,0.8-0.3,1.3-0.5c0.8,1.6,3.4,1.3,3.7,3.7c0.5-0.3,0.8-0.3,1.3,0c0.3,0,0.3,0,0.3,0
		c0.3-0.3,0.3-0.3,0.5-0.3c0.5,0.3,0.8,0.8,1.3,0.8c0.3,0.3,0.5,0.3,0.8,0.3c0.8,0.5,0.3,1.1,0.3,1.3c0.5,0.3,0.5-0.5,1.1-0.3
		c0.3,0-0.3,0.3,0,0.5c0,0,0,0.3,0.3,0c1.1-0.3,1.8,0.8,2.4,1.3c1.3,1.3,2.4,2.9,3.2,4.5c-0.3,1.3-0.3,2.4,0,3.7
		c0.3,0.5,0,1.3-0.3,1.8c-0.8,1.3-1.1,2.9-1.6,4.2c-0.5,1.3-1.1,2.6-1.6,4c-0.5,1.8-1.3,3.7-1.6,5.8c0,0.5,0,1.1-0.3,1.6
		c-0.5,0.5-1.1,1.3-1.1,2.1c-0.3,0.5-0.5,0.8-0.8,1.3c-0.5,0.3-1.1,0.8-1.1,1.6c-1.1,0.3-1.3,1.3-1.6,2.1c-0.5,1.1-1.1,1.8-1.6,2.6
		c0,0.5-0.5,0.5-0.8,0.3c0,0.5,0,0.8-0.3,1.1c-0.8,0.5-1.3,1.6-2.4,1.8c-0.8,0.3-0.8,1.3-0.8,2.1c-0.8,0-1.1,1.3-2.1,0.8
		c-0.3,0.5-0.3,1.1-0.3,1.6c-1.3,1.1-2.4,2.1-3.4,3.2c-0.5,0.8-1.6,1.3-2.6,1.6c-1.1,1.8-2.4,2.6-4.2,3.2c-0.3,0-0.3,0.8-0.8,1.3
		c-0.3,0.5-1.1,0.3-1.6,0.5c-0.5,0.5-1.1,1.3-1.8,1.6c-0.8,1.3-1.3,1.8-3.2,2.6c0,0.5-0.3,1.3-0.5,1.8c-0.5,0-1.1-0.3-1.1-0.8
		c-1.3,0.3-0.3,0.8-0.3,1.1c-0.8,0.3-1.6,0.3-2.4,0.3c-0.5,1.3-1.6,2.4-2.9,3.4c-0.5-0.3-1.1,0.3-1.8,0c-0.5-0.5-1.1-0.5-1.6-1.1
		c-0.5,0.5-0.5,1.1-1.1,1.6c0.8,0.3,0.5-0.5,1.1-0.3c0.3,0,0.5,0,0.8,0.3c-1.1,1.3-2.6,0.8-3.4,1.8c-0.8,0.3-1.3,0.5-1.8-0.3
		c0-0.5,0.5-0.3,0.5-0.8c-0.5-1.1-1.6,0-2.1-0.5c0.3,0.5,0.5,1.3,1.1,1.8c-1.1,0.3-1.1,0.3-1.3-1.1c-0.3,0-0.3-0.3-0.8,0
		c0.3,0.8-0.5,1.1-0.5,1.8c0.3,0.5,1.1,0,1.1,0.8c-0.5,0-0.8,0.3-1.3,0.5c-0.8-0.3,0-0.8-0.5-1.1c-0.5,0.3-1.1,0-1.3-0.5
		c-0.3,0.3-0.5,0.5-0.8,0.8c-0.3,0.5,0,1.3-1.1,1.1c-0.3-0.5,0.3-0.8,0.3-1.3c-1.3,0-2.4,1.6-3.7,0.3c-0.5,1.1-1.6,0.5-2.4,0.5
		c-0.5,0.3-0.3,0.8-0.3,1.3c-0.3,0.3-0.5,0.5-1.1,0.3c-0.5-0.3,0.3-1.1-0.5-1.3c-0.8,0.5-0.5,1.3-1.1,1.8c-1.1,0.8-1.1,0.8-1.6-0.3
		c0.5-0.3,0-0.8,0.3-1.1c0-0.5,0.8-0.3,0.8-1.1c-0.8,0.5-1.6,0.3-1.8,1.3c0.3,0.3,0.5,0.5,0.8,1.1
		C899.2,187.6,897.9,187.4,896.8,186.3z M881.5,182.9c-0.3,0.8-0.8,1.1-1.3,0.8c-0.3,0.5,0,0.5,0,0.8c0,0.3-0.5,0.3-0.3,0.8
		c0.3,0.3,0.5,0.3,0.8,0.3c0.3-0.3,0-0.5,0.3-0.8c0.3,0,0.5,0,1.1-0.3C882,183.9,882,183.4,881.5,182.9z M883.3,120
		c-0.3-0.5-0.8-0.5-1.3,0c0.8,0.3,1.6,1.1,2.6,0.3C884.1,120,883.6,120.6,883.3,120z M929.3,167.8c-0.5,0.3-1.1,0.5-1.6,0.8
		c-0.5,1.1-1.6,1.8-1.1,3.2C926.9,169.9,928,168.6,929.3,167.8z M929.3,175.2c0.3-0.8,1.1-1.3,0.5-2.1c-0.8,0.5-0.5,1.6-1.3,1.8
		c-0.5,0-1.1-0.5-1.6,0C927.7,175.7,928.5,174.7,929.3,175.2z M932.4,159.9c0.5-0.8,0-1.3,0-2.1
		C931.4,158.8,931.4,158.8,932.4,159.9z M940.9,168.1c-0.5-0.8,0.3-1.6-0.3-2.4c-0.5,0.8-0.5,1.3-0.5,2.1c0.3,0,0.5,0.3,0.8,0.5
		C940.9,168.1,940.9,168.1,940.9,168.1z M952,124.8c0-0.8,0-1.6-1.1-2.1c0.3,0.8,0,1.1-0.3,1.6C950.9,124.5,951.2,125,952,124.8z
		 M955.7,124.3c0,0.8,0.8,0.8,1.1,1.1c-0.3,1.1-0.3,1.3,0.8,1.8c0.3-0.5-0.3-0.8,0-1.3c1.1,0,0.8-0.8,1.1-1.3c0.5,0,0.5,0.3,0.8,0.5
		c0,0.5-0.5,0.8-0.3,1.3c0.3,0.3,0.8,0.5,1.3,0.5c0,0.5,0.3,1.1,0.3,1.8c0.5-0.3,0.8-0.8,0.8-1.3c0-0.3-0.3-0.3-0.3-0.5
		c0-0.5,0.3-1.1,0.3-1.6c-0.5,0.5-1.1,0.8-1.6,0c0-0.5-0.3-1.3,0.3-2.1c-0.8,0.3-1.1-0.3-1.6-0.3
		C958.1,124.3,956.7,123.7,955.7,124.3z M962.3,128.5c-0.3,0.5-1.1,0.8-1.6,1.1c0.8,0.3,1.8,0.3,2.4,1.1c-0.3,0.5-0.8,0.5-0.8,1.1
		c-0.3,0.3,0.3,0.5,0.3,0.8c-0.3,0.3-0.5,0.5-0.8,0.5c-0.5-0.5,0.3-1.6-0.8-2.4c-0.3,0.5-1.1,1.1-1.6,0.8c-0.3,0.3-0.3,0.5-0.3,0.8
		c0.3,0.3,0.5-0.3,0.8,0c0,0,0,0.5,0.3,0.5c0.3,0,0.3-0.3,0.3-0.3c0.3,0,0.3,0,0.3,0.3c-0.3,0.8-1.6,0.3-2.1,1.1
		c0-0.3,0-0.5-0.3-0.3c-0.3,0.3-0.3,0.5,0,0.8c0.5-0.3,1.1,0,1.6,0c0.3,0.3,0.3,0.8,0.8,0.8c0.3,0,0.5,0,0.8-0.5
		c-0.3-0.3-1.1-0.5-0.5-1.1c0.3,0,0.3,0.3,0.5,0.5c0.3-0.8,1.3-0.5,1.3-1.3c0.8,0,1.1,0.3,1.8,0.3c0-0.5,0.8-0.5,0.8-0.8
		c-0.5-0.8-1.1-1.3-2.1-1.6c0.3-0.8,1.3,0,1.3-0.8c-0.5-0.3-0.5-0.8-0.5-1.3C963.3,128,963.1,128.2,962.3,128.5z M959.1,127.2
		c0,0.3,0,0.3,0,0.5c-0.3,0.3-0.8,0.3-0.8,0.5c0,0.5,0.5,1.1,0.8,1.6c0.3,0,0.5,0,1.1,0c0.3-0.5-0.3-0.5-0.5-0.8
		C959.9,128,959.6,127.2,959.1,127.2z M962,136.4c0.5,0,1.1,0,1.3-0.5c0-0.3,0-0.8-0.5-0.8c-0.3,0-0.3,0.5-0.5,0.5
		c-0.3,0.3-0.5-0.3-1.1,0C961.5,135.9,961.8,136.4,962,136.4z M964.4,125c-0.5,0.5-1.3,0.3-1.6,0.8c0,0.5,0.3,1.1,0.8,1.3
		C964.4,126.6,964.4,126.1,964.4,125z M964.4,135.1c0.3,0,0.5-0.3,0.3-0.8c-0.3,0-0.5-0.5-0.8-1.1c-0.5,0-0.5,0.3-0.5,0.8
		C963.9,134,963.9,134.8,964.4,135.1z"/>

  <path id="e2" class="st0" d="M1063.1,183.7c0.3,0,0.3-0.5,0.5-0.5c0.3,0,0,0.5,0.3,0.5c-2.1,1.8-4,3.4-6.6,4c0.3-0.3,0.3-0.5,0.5-1.1
		c-0.8-0.3-1.6-0.3-2.1-0.5c0,0.5,0.3,0.5,0.5,0.8c0,0.3-0.5,0.5-0.3,0.8c0.5,0,0.3-0.5,0.5-0.3c0.5,0,0.5,0,0.8,0.3
		c-0.3,0.3-0.5,0.5-1.1,0.5c-1.3,0.3-2.9,0.5-4.2,1.1c-0.3,0.3-1.1,0.3-1.6,0c-0.8,0.8-2.6,1.3-3.4,0.8c-0.3,0.3-0.5,0.8-1.1,0.5
		c-0.5-0.8-0.5-0.8-1.3-0.8c-0.3,0,0,0.3,0,0.5c0,0,0,0.3,0.3,0.3c-0.8,1.1-1.6,0-2.1,0.5c-0.8,0.3-1.3,0.8-1.8,0
		c-0.8-0.3-0.5,0.5-1.1,0.5c-1.1-0.3-1.8,0.5-2.9,0.5c-0.3-1.1-0.5-1.3-1.6-1.6c0.3,0.8,0.8,1.1,0.8,1.6c-1.3,0.5-2.6,1.1-4,0.5
		c-0.8,0.3-1.6,0.8-2.4,0c-1.1,0.8-2.1,0-2.9-0.3c-0.3-0.3-0.5-0.5-0.8-1.1c-0.3-0.3-0.5,0-0.8,0c-0.3,0.3,0.3,0.5,0.3,1.1
		c-0.3,0.5-0.5,0.5-0.8,0.5c-0.5,0-0.3-0.5-0.5-0.8c-0.5-0.8-1.3,0.3-2.1-0.3c-0.5,0.3-0.5,0.8-1.1,0.8c-0.3,0-0.5-0.8-1.1-0.8
		c-0.3,0-0.5,0.5-1.3,0c0-0.3-0.3-1.1-0.8-1.1c-0.3,0.5,0,0.8-0.3,1.1c-1.8,0-4-0.3-5.8-1.1c-0.3,0-0.5,0-0.5,0.3
		c-0.5-0.3-1.3-0.3-1.8-0.3c-0.3-0.5-0.3-0.8-0.5-1.1c-0.5-0.3-0.8,0.3-1.1,0.3c-0.8,0-1.3-0.3-1.3-1.3c-0.5,0.8-0.8,0.5-1.3,0.3
		c-2.4-1.1-4.8-2.4-7.1-4c-1.3-1.1-2.6-2.4-4-3.7c-1.3-1.3-2.4-2.6-3.4-4c-1.3-1.8-2.4-3.4-3.4-5.5c-1.3-2.6-2.4-5.8-3.4-9
		c-1.3-3.7-2.4-7.4-3.2-11.1c-0.3-2.1-0.5-4-0.8-6.1c-0.5-3.2-0.8-6.6-1.3-10c0-1.8-0.3-3.4-0.3-5.3c-0.3-2.1-0.5-4.5-0.5-6.6
		c-0.3-3.2-0.8-6.6-0.8-10c0-0.8,0-1.3,0-2.1s-0.3-1.3,0.3-1.8c-1.1-2.1-0.3-4.5-0.5-6.6c0-0.3,0.3-0.5,0.5-1.1
		c-0.5-1.6-0.5-3.2-0.5-4.8c0-2.6,0.3-5.3,0.5-7.9c0-2.4,0.3-4.8,0.8-7.1c0.3-2.6,0.8-5.3,1.1-7.9c0.5-3.7,1.3-7.4,1.8-11.1
		c0.3-1.6,0.5-2.9,0.8-4.5c0-1.3,0.5-2.6,0.8-4c0.8-4,1.6-7.9,2.9-11.9c1.3-4,2.9-7.7,5.3-11.1c1.3-2.1,2.4-4,4.2-5.8
		c1.3-1.1,2.9-1.6,4.8-1.8c2.4,0,5-0.3,7.4,0.5c1.1,0.3,2.4,0.3,3.4,0.3c1.6,0.3,3.2,0.8,4.8,0.8c1.3,0.3,2.4,1.1,3.4,1.1
		c0.3,0,0.3,0,0.5,0c2.1,1.3,4.5,1.3,6.6,2.1c0.5,0.3,1.1,0,1.6,0c0.8,0.5,1.8,0.3,2.9,0.3c2.6-0.3,5.5-0.3,8.2-0.3
		c2.4,0,4.5,0,6.9,0c1.8,0,4,0.5,5.8,0.8c0.3,0,0.5,0,0.5,0c1.1,1.3,2.6,0.8,4.2,1.1c0.5,0,1.3,0,1.8,0.3c0.3,0.5,0.5,0.8,0.5,1.3
		c-0.3,0.5-0.8,1.1-0.8,1.8c-0.5,0.3-0.8,0.3-1.1,0.8c-0.5,0.8-1.3,1.8-2.4,1.6c0,0.5,0.5,0.3,0.5,0.8c-0.5,0.3-1.1,0.3-1.6,0.5
		c-1.8,2.1-5.8,5.5-7.1,5.5c-0.5,0.5-1.1,0.8-1.8,1.1c-1.3,1.1-3.2,1.3-4.8,1.6c-0.3,0-0.8,0.3-0.8,0.5c-0.5,0.3-1.1,0.5-1.6,0.5
		c-1.1,0-2.1,0.5-2.9,1.3c-0.5,0.3-1.1,0.5-1.6,0.5c-2.1,0.8-4.2,1.6-6.3,2.6c-1.3,0.5-2.6,1.3-4.2,2.1c-0.5,0.3-1.3,0.5-1.8,0.5
		c-1.1,0-1.8,0.5-2.6,0.8c-0.5,0-0.8,0.3-0.8,0.5c-0.3,0.8-0.5,1.3-1.3,1.6c0.3,0.8,0.3,1.6-0.3,2.4c-0.3,0.8-0.3,1.6-0.5,2.6
		c-0.5,1.8-0.8,4-1.1,5.8c-0.3,1.6-0.5,3.4-0.5,5.3c-0.5,0.5-0.5,1.3-0.5,2.1c0,1.6,0,2.9-0.3,4.5c0,0.3,0,0.5,0,0.8
		c0,1.1,0,2.1-0.5,3.2c0,0.3-0.3,0.5,0,0.8c0.3,1.1,0,2.1-0.3,3.2c-0.3,0.8-0.3,1.3,0,2.1c-0.3,1.8-0.3,4-0.3,5.8
		c-0.3,0.3-0.3,0.5-0.3,0.8c-0.8,1.1-0.5,2.4-0.5,3.7c0,1.1-0.3,2.1-0.3,3.2c0,1.6-0.3,2.9,0,4c-0.3,0.5-0.8,0-1.1,0.5
		c0,0,0,0.3,0.3,0.3c1.3,1.3,2.9,0.5,4.5,0.3c1.3,0,2.4-0.5,3.4-0.3c1.3-0.8,2.6-0.8,4-0.8c1.3-0.3,2.6-0.5,4-0.8
		c2.9-0.5,5.5-1.6,8.4-2.1c1.1,0,2.1-0.3,3.4-0.5c1.6-0.5,3.4-0.8,5-1.1c2.1-0.3,4.2-0.5,6.3-0.8c4-0.3,8.2-0.3,12.1,0
		c2.6,0.3,5.3,0.5,7.9,0.8c0.5,0,1.3,0,2.1,0c0.8,0.3,1.1,0.5,1.6,1.1c-0.3,1.1-0.3,1.8-0.8,2.6c-1.1,0.3-1.6,1.1-2.4,1.6
		c-0.3,0.5,0,0.8,0,1.3c-0.3,0.3,0,1.1-0.8,1.3c-0.5,0.3-1.1,0-1.6,0.5c-0.3,0.3,0,0.8-0.5,1.1c-0.3,0.3-1.1,0.3-1.6,1.1
		c-0.5,3.2-3.7,4-6.6,4.8c0,0-0.3,0-0.5,0l-0.3-0.3c-0.5,0.3-0.5,0.8-1.1,1.1c-1.3-0.3-2.6,1.1-4.2,0.5c-0.5,1.3-1.6,1.3-2.6,1.3
		c-1.1,0-1.8,0.5-3.2,0.8c-0.3-0.5-0.8-0.3-1.6-0.3c0.3-0.8,1.1-0.5,1.6-0.5c0.3-0.5-0.3-1.1-0.5-1.6c-0.3,0.3-0.5,1.1-1.1,0.8
		c-0.3,0.5-0.3,1.1-0.5,1.6c-1.1-0.3-0.3-0.8-0.5-1.1c-0.5-0.5-0.8,0.3-1.3,0.3c-0.3,0,0-0.5-0.3-0.8c-0.3,0.3-0.5,0.3-1.1,0.3
		c0,1.1-1.3,1.3-1.8,2.1c-1.1,0-1.8,0.3-2.9,0.5c-1.6,0.5-2.9,0.8-4.2,1.3c-0.5,0.3-1.1,0-1.6-0.5c-1.8,0.5-3.7-0.5-5.8,0
		c-0.3,0.3-1.3-0.3-1.8,0.3c-0.8,0-0.8-0.5-1.1-0.5c-0.5,0-0.5,0.5-1.1,0.5c-0.3,0.3-0.5,0-1.1-0.3c-0.5,0.3-0.8,0.8-1.6,0.3
		c0,0,0.3-0.3,0-0.5c0-0.3-0.5-0.3-0.8-0.5c-0.3,0.3-0.5,0.3-0.5,0.5c-1.3-0.3-2.4,0.5-3.7,0c-0.3,0-0.3-0.5-0.8-0.3
		c0,0.3-0.5,0.8-0.8,1.3c-0.5,0.3-1.3,0-1.6,0.5c0.3,0.5,0.5,0.3,1.1,0.5c0.5,1.1-0.3,2.4,0.3,3.4c0.3,0.3,0.8,0.3,0.8,0.8
		c0,2.1,0.3,4,0.5,4.8c0,0.5-0.5,0.8-0.3,1.3c0.8,1.1,0.5,2.1,0.3,3.4c1.1,0.8,0.8,1.8,1.1,2.9c-0.3,0.5-0.5,0.5-0.8,1.1
		c0,1.6,1.6,2.9,1.8,4.5c-0.5,0.3-1.1,0-1.6,0.3c0.3,0.5,0.5,0,0.8,0.3c0.3,0.5,1.1,0.8,1.3,1.3c-0.8,1.6,0.3,3.4-0.5,5
		c0.3,0.3,0.8,0.5,0.8,1.1c-0.8,0.3-0.5,1.1-1.3,1.6c0.3,1.1,1.1,2.1,0.5,3.2c0.8,0.3,1.6,0.8,2.4,1.3c-0.3,0.8,0,1.8-0.5,2.6
		c-0.3-0.8,0-1.8-0.8-2.4c-0.3,0-0.5-0.3-0.8,0c-0.3,0.3-0.3,0.5,0,0.5c0.8,0.5,0.8,1.6,1.3,2.1c0.5,0.5,0,1.3,0.3,1.8
		c0.5,0,0.3-0.5,0.5-0.8c0.8,0.8,1.1,1.6,1.6,2.6c-0.3,0.3-0.3,0.8,0,1.3c-0.5,0.8-1.1,0-1.6,0.3c0,0.8,0.5,0.5,0.5,0.5
		c0.5,0.8,0.3,1.3,1.1,1.6c0.3,0,0.3-0.5,0.5-0.8c0.3,0.5,0.5,1.1,1.1,1.3c-0.3,1.1,0.5,1.8-0.3,2.6c0.3,0.3,0.5,0,0.8,0
		c0.3-0.3,0-1.1,0.8-1.1c0.3,0,0,0.5,0.3,0.8c1.1,0.3,1.8,1.3,2.6,1.8c1.3,0.8,2.4,0.8,3.7,0.8c4.5,0,8.7-0.8,12.9-1.8
		c4.2-1.1,8.4-2.6,12.7-3.4c3.2-0.8,6.1-1.6,9-2.4c0.5-0.3,1.1-0.3,1.6-0.5c0.5-0.3,1.3-0.5,1.8,0c0.5-0.3,0-0.3,0.3-0.8
		c1.6-0.8,3.4-1.6,5-2.6c2.6-2.1,5.3-4.5,7.7-6.9c0.5-0.8,0.8-1.6,1.3-2.6c0.5,0.8,1.1,1.6,1.6,2.1c0.3,0.3,0.3,0.8,0,1.1
		c-0.5,0.5-0.5,1.1-0.8,1.8c0,1.3-0.8,2.4-1.6,3.2c-0.5,0.5-0.5,1.1-0.5,1.6c0.3,0.8-0.5,1.3-0.3,2.1c-0.5,0.5-1.1,1.3-0.3,2.1
		c-0.5,0.5-1.1,1.3-1.1,1.8c-0.8,0.3-1.6,0.5-2.1,1.1c0,0.3,0.3,0.5,0.3,1.1c0,0.3-0.5,0.8-0.5,1.3c-2.1,0.5-3.2,2.4-4.5,4.2
		c-0.5,0.8-1.6,1.3-2.4,1.8c-0.5,0.5-0.8,0.5-1.1,1.1c-1.6,0.5-1.6,0.5-2.4,0c1.1-0.8,1.3-2.1,2.6-2.1c0.3-0.5,0.5-1.1,0.8-1.3
		c-1.1-0.5-1.3,0.8-2.1,0.5c-0.3,0.3,0,0.8-0.3,1.1c-0.8,0-1.6,0-1.8,0.8c-0.5,0.3-0.5-0.3-0.8,0c0,0.5-0.3,1.1-1.1,1.1
		c0,0-0.3-0.3-0.5-0.3c0,0.8,0,0.8-0.3,1.1c-0.8,0-1.3,0-1.8,0.3c0,0.8,1.1,0.5,1.3,1.1c0.3-0.5,0.3-1.1,0.5-1.3
		c0,0.5,0,0.8,0.5,1.1c0.3-0.5,0-1.3,0.3-1.8C1062.3,183.1,1062.6,183.7,1063.1,183.7z M980.8,72.8c-0.3-0.5-0.5-0.5-0.8-0.3
		c0.3,0.5-0.3,1.1-0.3,1.6c0.3,0.3,0.3,0.3,0.8,0C980,73.6,980.8,73,980.8,72.8z M982.6,156.7c0.3,0,0.8,0,1.3,0
		c-0.5-0.5-0.3-0.8-0.5-1.3C982.6,155.4,982.6,156.2,982.6,156.7z M990.5,107.4c0.5-0.3,0.8-0.5,0.8-1.3c-0.3-0.3-0.5-0.3-0.8-0.3
		C990,106.3,990.3,106.8,990.5,107.4z M1000,162c-0.3-0.5-0.5-1.1-1.1-1.6c-0.3,0.3-0.5,0.8-0.3,1.3C999,162,999.5,162,1000,162z
		 M1001.3,168.6c0.3,0,0.8,0.5,1.3,0.3c0-0.3,0-0.5-0.3-0.8c-0.5,0.3-1.1-0.5-1.8-0.5C1000.8,167.8,1001.1,168.1,1001.3,168.6z
		 M1015.6,158.3c-0.3,0-0.5,0-0.8,0c-0.3-1.1,0-1.8,0.3-2.6C1015.1,156.5,1015.3,157.5,1015.6,158.3z M1027,191.3
		c0.3,0.5,0.5,1.1,1.3,0.5c0-0.3,0-0.5-0.3-1.1C1027.5,190.8,1027.2,191,1027,191.3z M1028.5,121.9c1.1,0.5,1.8,0.5,2.9-0.3
		C1030.1,120.6,1029.1,120.6,1028.5,121.9z M1033.6,192.4c0.3-0.3,0.5-0.5,0.8-0.8c-0.3-0.3-0.3-0.8-0.5-1.1
		c-0.5,0.3-0.5,0.8-0.8,1.1c-0.3,0-0.3,0-0.5-0.3c0-0.5,0.3-0.8,0-1.3c-0.5,0.5-1.6-0.3-2.1,0.5c0.3,0.5,0.8,0.3,0.8,0.8
		c0.3,0-0.3,0.3,0,0.5C1032,192.1,1032.8,192.1,1033.6,192.4z M1033.6,122.9c0.3-0.5,0.5-1.1,1.1-0.8c0.3-0.3,0-0.5,0.3-0.5
		c0,0,0.3,0,0.5,0.3c0-0.8,0.8-0.8,1.1-1.3c-0.8-1.1-0.8,0.3-1.3,0.3c-0.5,0-0.5-0.3-1.1-0.3c-0.3,0-0.8-0.3-1.1,0.3
		C1033.8,121.1,1033.3,121.9,1033.6,122.9z M1038.8,120c-0.3,0-0.8,0-1.3-0.3c-0.3,0-0.5,0.3-0.5,0.5c0.5,0,0.3,0.5,0.5,0.8
		c0.3,0,0.5,0,1.1,0C1038.8,120.8,1039.1,120.6,1038.8,120z M1043.6,188.4c0,1.1,0.3,1.1,1.3,0.5
		C1044.6,187.9,1044.1,188.7,1043.6,188.4z M1061.5,112.6c0.3,0.3,0.3,0.5,0.3,1.1c0.3,0.3,0.5,0.3,1.1,0.5c0-0.3,0.3-0.3,0.5-0.5
		c-0.3-0.3-0.5-0.3-0.8-0.5c0,0,0.3-0.3,0-0.8C1062.3,112.1,1062.1,112.4,1061.5,112.6z"/>
</g>
</svg>
